<svg width="48" height="48" viewBox="0 0 48 48" fill="none" xmlns="http://www.w3.org/2000/svg">
<rect width="48" height="48" rx="24" fill="#F2F2F3"/>
<path d="M23.6241 19.2221C22.7481 19.2221 21.3921 18.2261 19.9641 18.2621C18.0801 18.2861 16.3521 19.3541 15.3801 21.0461C13.4241 24.4421 14.8761 29.4581 16.7841 32.2181C17.7201 33.5621 18.8241 35.0741 20.2881 35.0261C21.6921 34.9661 22.2201 34.1141 23.9241 34.1141C25.6161 34.1141 26.0961 35.0261 27.5841 34.9901C29.0961 34.9661 30.0561 33.6221 30.9801 32.2661C32.0481 30.7061 32.4921 29.1941 32.5161 29.1101C32.4801 29.0981 29.5761 27.9821 29.5401 24.6221C29.5161 21.8141 31.8321 20.4701 31.9401 20.4101C30.6201 18.4781 28.5921 18.2621 27.8841 18.2141C26.0361 18.0701 24.4881 19.2221 23.6241 19.2221ZM26.7441 16.3901C27.5241 15.4541 28.0401 14.1461 27.8961 12.8501C26.7801 12.8981 25.4361 13.5941 24.6321 14.5301C23.9121 15.3581 23.2881 16.6901 23.4561 17.9621C24.6921 18.0581 25.9641 17.3261 26.7441 16.3901Z" fill="#3D434F"/>
</svg>
