<svg width="14" height="14" viewBox="0 0 14 14" fill="none" xmlns="http://www.w3.org/2000/svg">
<path d="M10.333 1.99984H12.9997C13.1765 1.99984 13.3461 2.07008 13.4711 2.1951C13.5961 2.32012 13.6663 2.48969 13.6663 2.6665V13.3332C13.6663 13.51 13.5961 13.6796 13.4711 13.8046C13.3461 13.9296 13.1765 13.9998 12.9997 13.9998H0.999674C0.822863 13.9998 0.653294 13.9296 0.52827 13.8046C0.403246 13.6796 0.333008 13.51 0.333008 13.3332V2.6665C0.333008 2.48969 0.403246 2.32012 0.52827 2.1951C0.653294 2.07008 0.822863 1.99984 0.999674 1.99984H3.66634V0.666504H4.99967V1.99984H8.99967V0.666504H10.333V1.99984ZM1.66634 5.99984V12.6665H12.333V5.99984H1.66634ZM2.99967 7.33317H4.33301V8.6665H2.99967V7.33317ZM6.33301 7.33317H7.66634V8.6665H6.33301V7.33317ZM9.66634 7.33317H10.9997V8.6665H9.66634V7.33317Z" fill="#3D434F"/>
</svg>
