<svg width="1341" height="653" viewBox="0 0 1341 653" fill="none" xmlns="http://www.w3.org/2000/svg">
<g clip-path="url(#clip0_603_23995)">
<path opacity="0.91" d="M572.486 -438.319C584.911 -439.779 597.395 -440.889 609.937 -441.619C622.479 -442.261 635.064 -442.495 647.723 -442.32C660.382 -441.998 673.099 -441.225 685.845 -439.998C698.621 -438.597 711.411 -436.742 724.245 -434.421C737.05 -431.924 749.869 -428.975 762.659 -425.573C775.42 -422.01 788.123 -418.024 800.723 -413.629C813.221 -409.103 825.588 -404.197 837.735 -398.941C849.722 -393.597 861.418 -387.932 872.791 -381.975C883.902 -375.989 894.59 -369.74 904.81 -363.272C914.68 -356.819 923.996 -350.175 932.712 -343.357C941.049 -336.611 948.758 -329.72 955.825 -322.712C962.527 -315.805 968.644 -308.797 974.178 -301.716C981.989 -291.233 996.006 -270.091 1002.91 -259.462C1007.99 -252.497 1013.4 -245.445 1019.26 -238.32C1025.98 -231.326 1033.4 -224.245 1041.65 -217.062C1050.93 -209.98 1061.14 -202.797 1072.22 -195.482C1084.27 -188.255 1097.03 -180.896 1110.37 -173.377C1124.17 -165.93 1138.08 -158.309 1151.87 -150.527C1165.3 -142.774 1177.97 -134.846 1189.58 -126.713C1199.99 -118.595 1208.82 -110.287 1215.86 -101.775C1221.21 -93.2631 1224.58 -84.532 1226.02 -75.5964C1225.99 -66.6462 1224.39 -57.4916 1221.53 -48.1326C1218.15 -38.7445 1214.36 -29.1519 1210.61 -19.3695C1207.74 -9.55788 1205.86 0.458126 1205.36 10.6493C1206.9 20.8698 1210.34 31.28 1215.82 41.8362C1223.47 52.4363 1232.89 63.1969 1243.72 74.1036C1255.68 85.0248 1268.03 96.1067 1280.13 107.305C1291.55 118.519 1301.44 129.863 1309.22 141.325C1314.71 152.801 1317.35 164.365 1316.99 176.045C1314.02 187.725 1308.37 199.494 1300.47 211.349C1291.27 223.205 1281.13 235.134 1270.79 247.15C1261.39 259.152 1253.36 271.095 1247.27 282.951C1243.72 294.821 1242.64 306.603 1243.98 318.328C1247.84 330.037 1253.49 341.689 1260.41 353.267C1268.31 364.86 1276.18 376.38 1283.33 387.856C1289.51 399.346 1293.81 410.779 1295.84 422.167C1295.65 433.614 1292.81 445.003 1287.35 456.376C1279.72 467.809 1270 479.226 1258.58 490.629C1246.16 502.12 1233.03 513.611 1219.77 525.131C1206.98 536.724 1194.97 548.36 1184.09 560.041C1174.78 571.809 1167.04 583.635 1160.92 595.491C1156.61 607.478 1153.75 619.509 1152.13 631.584C1151.77 643.761 1152.06 655.981 1152.66 668.217C1153.56 680.539 1154.12 692.877 1154 705.2C1153.3 717.567 1151.44 729.889 1148.3 742.11C1144.04 754.331 1138.33 766.42 1131.21 778.334C1122.9 790.132 1113.29 801.71 1102.55 812.996C1090.94 824.093 1078.48 834.809 1065.42 845.132C1051.94 855.148 1038.16 864.668 1024.27 873.647C1010.43 882.232 996.736 890.219 983.303 897.534C970.221 904.381 957.548 910.543 945.298 915.96C933.544 920.895 922.244 925.07 911.366 928.487C901 931.451 890.984 933.685 881.26 935.218C871.945 936.371 862.834 936.882 853.84 936.824C845.123 936.546 836.421 935.802 827.675 934.663C819.09 933.539 810.374 932.166 801.482 930.633C792.649 929.348 783.596 928.078 774.281 926.91C764.966 926.224 755.373 925.815 745.503 925.713C735.59 926.311 725.384 927.348 714.9 928.866C704.373 931.188 693.554 934.05 682.473 937.437C671.362 941.627 659.988 946.314 648.366 951.439C636.729 957.235 624.859 963.353 612.769 969.704C600.665 976.45 588.372 983.239 575.874 989.926C563.375 996.672 550.834 1003.01 538.277 1008.82C525.735 1014.34 513.179 1019.1 500.622 1023.03C488.066 1026.37 475.524 1028.73 463.011 1030.08C450.498 1030.66 438.029 1030.14 425.59 1028.53C413.194 1026.12 400.842 1022.63 388.562 1018.12C376.327 1012.88 364.179 1006.7 352.134 999.65C340.147 992.058 328.291 983.75 316.596 974.815C304.989 965.558 293.542 955.834 282.299 945.774C271.174 935.597 260.267 925.246 249.594 914.777C239.052 904.44 228.774 894.132 218.758 883.911C208.873 873.997 199.251 864.273 189.907 854.768C180.679 845.687 171.7 836.883 162.983 828.356C154.31 820.296 145.857 812.543 137.607 805.053C129.343 798.016 121.24 791.241 113.268 784.686C105.209 778.539 97.2513 772.552 89.367 766.683C81.3513 761.149 73.4085 755.674 65.5096 750.228C57.4793 745.001 49.5074 739.73 41.623 734.357C33.6365 729.13 25.7814 723.757 18.0723 718.18C10.3339 712.675 2.81464 706.937 -4.48566 700.922C-11.7276 694.906 -18.6774 688.599 -25.3499 681.985C-31.9348 675.312 -38.213 668.304 -44.1701 660.96C-50.0687 653.543 -55.69 645.775 -61.0484 637.658C-66.4068 629.467 -71.5316 620.925 -76.4666 612.063C-81.4454 603.098 -86.249 593.812 -90.8774 584.234C-95.5642 574.568 -100.061 564.611 -104.354 554.39C-108.646 544.082 -112.676 533.526 -116.399 522.736C-120.049 511.888 -123.335 500.821 -126.24 489.549C-129.029 478.248 -131.409 466.743 -133.409 455.077C-135.336 443.382 -136.913 431.526 -138.183 419.525C-139.497 407.508 -140.592 395.361 -141.498 383.096C-142.534 370.817 -143.44 358.436 -144.213 345.938C-145.148 333.439 -145.922 320.854 -146.476 308.166C-147.09 295.492 -147.411 282.863 -147.367 270.306C-147.236 257.75 -146.681 245.266 -145.673 232.841C-144.505 220.416 -142.885 208.064 -140.826 195.785C-138.665 183.506 -136.125 171.285 -133.263 159.137C-130.387 146.975 -127.277 134.886 -123.962 122.855C-120.721 110.824 -117.334 98.8516 -113.771 86.9375C-110.311 75.0088 -106.675 63.1531 -102.835 51.3558C-99.0538 39.5439 -95.0094 27.7904 -90.7022 16.1246C-86.3658 4.42949 -81.7228 -7.20717 -76.7586 -18.7562C-71.736 -30.3199 -66.3922 -41.796 -60.771 -53.1845C-55.0913 -64.5729 -49.1635 -75.8738 -43.002 -87.0579C-36.8844 -98.2419 -30.5769 -109.295 -24.1089 -120.216C-17.7284 -131.108 -11.2311 -141.854 -4.60246 -152.425C1.93861 -162.952 8.61108 -173.304 15.4296 -183.436C22.1896 -193.496 29.1395 -203.337 36.2938 -212.944C43.4773 -222.435 50.909 -231.677 58.6181 -240.642C66.4441 -249.475 74.562 -258.016 83.0011 -266.236C91.6009 -274.325 100.507 -282.078 109.735 -289.495C119.108 -296.766 128.774 -303.687 138.717 -310.243C148.762 -316.667 159.041 -322.741 169.524 -328.45C180.066 -334.042 190.754 -339.283 201.573 -344.189C212.362 -348.993 223.269 -353.475 234.234 -357.651C245.141 -361.768 256.091 -365.594 267.1 -369.156C277.992 -372.719 288.928 -376.033 299.893 -379.128C310.741 -382.267 321.648 -385.217 332.584 -387.991C343.417 -390.867 354.324 -393.583 365.275 -396.167C376.152 -398.897 387.117 -401.511 398.17 -404.008C409.149 -406.68 420.246 -409.235 431.459 -411.702C442.628 -414.33 453.929 -416.856 465.376 -419.265C476.794 -421.82 488.358 -424.244 500.096 -426.507C511.806 -428.887 523.691 -431.077 535.751 -433.048C547.797 -435.078 560.032 -436.844 572.472 -438.319" stroke="white" stroke-opacity="0.05" stroke-linecap="round" stroke-dasharray="19 2"/>
<path opacity="0.36" d="M621.885 -410.845C634.1 -411.633 646.309 -412.069 658.511 -412.14C670.724 -412.138 682.913 -411.742 695.064 -410.938C707.221 -410.003 719.338 -408.631 731.415 -406.823C743.453 -404.842 755.435 -402.425 767.319 -399.575C779.163 -396.537 790.878 -393.054 802.452 -389.169C813.928 -385.1 825.219 -380.632 836.269 -375.784C847.193 -370.797 857.833 -365.446 868.132 -359.779C878.25 -354.005 887.985 -347.947 897.294 -341.607C906.352 -335.238 914.944 -328.633 923.04 -321.823C930.86 -315.03 938.172 -308.061 944.948 -300.934C951.48 -293.88 957.522 -286.709 963.091 -279.448C968.547 -272.253 973.633 -264.977 978.407 -257.631C983.26 -250.383 987.992 -243.07 992.705 -235.669C997.761 -228.395 1003.02 -221.036 1008.57 -213.586C1014.78 -206.243 1021.51 -198.797 1028.85 -191.243C1037.04 -183.769 1045.96 -176.179 1055.63 -168.458C1066.15 -160.803 1077.36 -153.02 1089.18 -145.084C1101.57 -137.232 1114.3 -129.228 1127.14 -121.1C1140.01 -113.044 1152.53 -104.862 1164.47 -96.5678C1175.7 -88.374 1185.85 -80.0979 1194.67 -71.7096C1202.17 -63.4577 1208.03 -55.1124 1212.12 -46.6953C1214.73 -38.3802 1215.64 -29.9753 1214.95 -21.489C1213.23 -13.0637 1210.38 -4.49958 1206.77 4.19483C1203.13 12.9021 1199.48 21.7843 1196.26 30.8971C1194.2 40.0923 1193.32 49.5329 1193.91 59.235C1196.46 69.0821 1200.76 79.1934 1206.86 89.6007C1214.8 100.116 1224.12 110.874 1234.48 121.854C1245.57 132.891 1256.72 144.078 1267.33 155.38C1277.06 166.645 1285.19 177.947 1291.22 189.257C1295.07 200.438 1296.25 211.58 1294.68 222.676C1290.77 233.649 1284.48 244.585 1276.17 255.504C1266.74 266.371 1256.48 277.277 1246.03 288.275C1236.46 299.324 1228.1 310.401 1221.44 321.549C1217.09 332.818 1214.95 344.173 1215.03 355.63C1217.44 367.223 1221.58 378.876 1227 390.574C1233.51 402.336 1240.19 414.094 1246.44 425.783C1252.06 437.463 1256.18 449.026 1258.4 460.463C1258.72 471.831 1256.69 483.047 1252.23 494.105C1245.72 505.1 1237.07 515.984 1226.62 526.762C1214.9 537.539 1202.17 548.27 1188.89 558.999C1175.61 569.801 1162.66 580.651 1150.39 591.57C1139.25 602.63 1129.32 613.804 1120.76 625.088C1113.81 636.555 1108.27 648.12 1104.03 659.776C1101.17 671.572 1099.24 683.437 1097.99 695.312C1097.43 707.272 1096.96 719.194 1096.34 731.048C1095.58 742.88 1094.16 754.57 1091.86 766.077C1088.84 777.453 1084.64 788.585 1079.25 799.427C1072.85 810.049 1065.21 820.32 1056.4 830.186C1046.68 839.778 1035.95 848.902 1024.39 857.523C1012.18 865.814 999.398 873.558 986.208 880.723C972.763 887.493 959.163 893.654 945.528 899.184C931.992 904.281 918.625 908.73 905.488 912.505C892.667 915.875 880.178 918.576 868.05 920.626C856.323 922.305 844.954 923.376 833.943 923.839C823.327 924.047 813.005 923.732 802.946 922.935C793.184 922.038 783.606 920.772 774.147 919.206C764.904 917.711 755.685 916.056 746.457 914.299C737.358 912.842 728.154 911.422 718.84 910.128C709.556 909.332 700.096 908.775 690.429 908.528C680.752 908.923 670.847 909.729 660.683 910.959C650.489 912.933 640.02 915.358 629.305 918.252C618.533 921.845 607.488 925.86 596.216 930.257C584.88 935.235 573.31 940.477 561.524 945.896C549.703 951.665 537.677 957.436 525.453 963.093C513.24 968.809 500.992 974.128 488.759 978.951C476.541 983.511 464.349 987.386 452.187 990.487C440.084 993.094 428.036 994.783 416.085 995.542C404.19 995.617 392.398 994.688 380.723 992.757C369.135 990.1 357.679 986.442 346.382 981.813C335.184 976.517 324.14 970.324 313.291 963.323C302.561 955.773 292.019 947.517 281.689 938.66C271.468 929.428 261.478 919.743 251.731 909.662C242.095 899.441 232.693 888.971 223.549 878.341C214.503 867.775 205.694 857.179 197.146 846.598C188.658 836.255 180.413 826.014 172.376 815.946C164.364 806.216 156.558 796.703 148.914 787.433C141.246 778.557 133.709 769.938 126.305 761.56C118.788 753.599 111.374 745.879 104.006 738.366C96.4982 731.24 89.0386 724.292 81.6151 717.478C74.0252 711.005 66.4601 704.607 58.9491 698.285C51.2923 692.203 43.7083 686.125 36.2281 680.025C28.6502 674.094 21.2231 668.084 13.9633 661.967C6.71285 655.938 -0.30949 649.762 -7.05833 643.412C-13.7514 637.109 -20.1393 630.59 -26.2202 623.825C-32.2 617.082 -37.8273 610.066 -43.1614 602.79C-48.4201 595.475 -53.3846 587.884 -58.0542 580.003C-62.7066 572.08 -67.1216 563.849 -71.3007 555.339C-75.5193 546.754 -79.5449 537.873 -83.3502 528.727C-87.2103 519.52 -90.8638 510.032 -94.2978 500.293C-97.7421 490.481 -100.924 480.436 -103.83 470.173C-106.688 459.854 -109.213 449.321 -111.404 438.603C-113.52 427.845 -115.289 416.903 -116.697 405.792C-118.046 394.67 -119.092 383.376 -119.837 371.939C-120.595 360.471 -121.111 348.872 -121.4 337.139C-121.791 325.401 -121.97 313.529 -121.981 301.55C-122.079 289.551 -121.966 277.447 -121.627 265.24C-121.317 253.031 -120.704 240.869 -119.772 228.77C-118.796 216.673 -117.444 204.642 -115.701 192.679C-113.87 180.72 -111.649 168.828 -109.052 157.017C-106.397 145.21 -103.408 133.451 -100.132 121.782C-96.8407 110.1 -93.3195 98.4896 -89.5832 86.9504C-85.8897 75.3941 -82.0092 63.8926 -77.9436 52.4752C-73.9355 41.0398 -69.7267 29.6747 -65.3036 18.3954C-60.8942 7.10057 -56.2259 -4.12047 -51.2995 -15.2532C-46.3439 -26.3842 -41.0866 -37.4242 -35.5429 -48.3597C-29.9263 -59.2909 -24.038 -70.1183 -17.8633 -80.8411C-11.6757 -91.5338 -5.24641 -102.11 1.38011 -112.558C7.97491 -122.963 14.7377 -133.242 21.6377 -143.366C28.4323 -153.438 35.3486 -163.342 42.3566 -173.065C49.2437 -182.722 56.2362 -192.183 63.3179 -201.419C70.3216 -210.572 77.4582 -219.497 84.7542 -228.15C92.015 -236.703 99.4782 -244.966 107.158 -252.938C114.904 -260.789 122.909 -268.318 131.173 -275.525C139.561 -282.593 148.25 -289.321 157.225 -295.695C166.339 -301.931 175.753 -307.812 185.439 -313.34C195.249 -318.73 205.316 -323.768 215.61 -328.442C226 -333.022 236.576 -337.269 247.324 -341.2C258.11 -345.04 269.039 -348.579 280.053 -351.821C291.081 -355.048 302.165 -357.993 313.324 -360.7C324.439 -363.424 335.599 -365.926 346.806 -368.205C357.929 -370.578 369.101 -372.772 380.293 -374.804C391.418 -376.957 402.579 -378.962 413.776 -380.847C424.909 -382.883 436.109 -384.812 447.347 -386.636C458.551 -388.624 469.808 -390.535 481.161 -392.324C492.465 -394.291 503.866 -396.15 515.362 -397.886C526.853 -399.783 538.437 -401.529 550.143 -403.121C561.842 -404.816 573.661 -406.329 585.613 -407.614C597.569 -408.972 609.641 -410.06 621.87 -410.846" stroke="white" stroke-opacity="0.05" stroke-linecap="round" stroke-dasharray="13 16"/>
<path opacity="0.88" d="M663.997 -380.609C675.878 -380.748 687.677 -380.559 699.392 -380.042C711.083 -379.44 722.685 -378.465 734.154 -377.11C745.608 -375.624 756.913 -373.743 768.08 -371.453C779.184 -368.994 790.123 -366.143 800.865 -362.859C811.529 -359.422 821.954 -355.573 832.126 -351.328C842.178 -346.934 851.949 -342.163 861.399 -337.032C870.687 -331.774 879.628 -326.189 888.179 -320.297C896.572 -314.306 904.535 -308.043 912.073 -301.535C919.429 -294.991 926.348 -288.219 932.833 -281.263C939.183 -274.293 945.104 -267.168 950.657 -259.911C956.138 -252.676 961.326 -245.315 966.249 -237.838C971.268 -230.422 976.143 -222.907 980.976 -215.279C986.11 -207.718 991.35 -200.056 996.799 -192.296C1002.75 -184.579 1009.08 -176.76 1015.86 -168.814C1023.32 -160.919 1031.34 -152.884 1039.94 -144.707C1049.29 -136.59 1059.22 -128.329 1069.69 -119.917C1080.73 -111.569 1092.17 -103.087 1103.84 -94.5034C1115.72 -85.9843 1127.5 -77.3868 1139.02 -68.7186C1150.17 -60.1675 1160.64 -51.5937 1170.19 -42.9956C1178.81 -34.5815 1186.18 -26.168 1192.13 -17.7903C1198.35 -5.54418 1201.29 18.577 1198.57 30.5172C1195.75 38.4032 1192.28 46.3877 1188.49 54.4958C1185.02 62.6432 1181.93 71.011 1179.55 79.6384C1178.46 88.4201 1178.64 97.5265 1180.27 106.967C1183.71 116.637 1188.72 126.653 1195.21 137.021C1203.21 147.567 1212.23 158.394 1221.89 169.46C1231.95 180.574 1241.78 191.821 1250.86 203.126C1258.93 214.313 1265.33 225.45 1269.7 236.479C1272.01 247.278 1271.87 257.921 1269.24 268.386C1264.53 278.621 1257.68 288.72 1249.07 298.744C1239.5 308.655 1229.18 318.594 1218.7 328.632C1209.01 338.763 1200.37 349.004 1193.26 359.411C1188.18 370.058 1185.09 380.925 1183.98 392.012C1185.04 403.354 1187.72 414.874 1191.66 426.544C1196.77 438.35 1202.19 450.194 1207.44 462.003C1212.34 473.799 1216.07 485.459 1218.27 496.937C1218.94 508.262 1217.54 519.359 1213.96 530.198C1208.48 540.857 1200.94 551.286 1191.54 561.511C1180.76 571.631 1168.73 581.632 1155.83 591.531C1142.57 601.461 1129.21 611.393 1116.1 621.371C1103.68 631.488 1092.1 641.72 1081.54 652.072C1072.33 662.627 1064.33 673.34 1057.58 684.157C1052.19 695.179 1047.86 706.282 1044.41 717.43C1041.92 728.677 1039.89 739.905 1038.1 751.044C1036.6 762.157 1034.86 773.097 1032.72 783.796C1030.24 794.338 1027 804.571 1022.86 814.418C1018.03 824.005 1012.15 833.147 1005.25 841.799C997.533 850.105 988.823 857.868 979.194 865.081C968.878 871.874 957.808 878.093 946.12 883.681C933.996 888.864 921.476 893.412 908.679 897.324C895.721 900.85 882.677 903.734 869.648 906.002C856.706 907.898 843.922 909.21 831.338 909.942C818.981 910.378 806.905 910.304 795.109 909.718C783.597 908.975 772.37 907.81 761.423 906.266C750.742 904.709 740.285 902.871 730.03 900.821C719.992 898.928 710.085 896.919 700.253 894.89C690.56 893.186 680.886 891.572 671.196 890.088C661.565 889.097 651.846 888.36 642.019 887.919C632.193 888.081 622.207 888.606 612.057 889.523C601.857 891.111 591.45 893.086 580.848 895.464C570.185 898.483 559.303 901.857 548.224 905.532C537.069 909.726 525.715 914.118 514.182 918.651C502.613 923.488 490.872 928.29 478.983 932.971C467.087 937.711 455.222 942.072 443.411 945.968C431.626 949.648 419.915 952.704 408.316 955.052C396.786 956.953 385.38 958.046 374.135 958.275C362.988 957.928 352.024 956.647 341.243 954.447C330.597 951.6 320.147 947.837 309.934 943.189C299.839 937.923 290.004 931.821 280.394 924.937C270.931 917.555 261.725 909.483 252.768 900.809C243.94 891.782 235.361 882.27 227.036 872.347C218.82 862.246 210.844 851.865 203.112 841.277C195.439 830.696 187.969 820.006 180.738 809.287C173.49 798.712 166.442 788.19 159.544 777.759C152.6 767.603 145.772 757.577 139.067 747.758C132.239 738.232 125.488 728.922 118.786 719.823C111.925 711.073 105.1 702.518 98.2798 694.17C91.2735 686.152 84.2774 678.298 77.2914 670.606C70.1372 663.218 63 655.935 55.9106 648.745C48.687 641.82 41.5488 634.919 34.5231 628.06C27.4445 621.402 20.5321 614.704 13.8297 607.972C7.13905 601.388 0.723154 594.72 -5.43083 587.95C-11.4774 581.266 -17.2296 574.455 -22.6388 567.479C-27.9372 560.56 -32.9181 553.444 -37.5689 546.146C-42.1327 538.858 -46.3901 531.342 -50.3429 523.612C-54.2939 515.867 -57.9787 507.86 -61.4314 499.63C-64.9079 491.354 -68.1779 482.822 -71.2303 474.067C-74.3338 465.246 -77.2324 456.185 -79.9117 446.885C-82.6166 437.553 -85.0731 427.986 -87.2702 418.214C-89.4622 408.398 -91.353 398.398 -92.9408 388.198C-94.4817 377.974 -95.7087 367.582 -96.6071 357.022C-97.4604 346.453 -98.0142 335.714 -98.2719 324.833C-98.5133 313.94 -98.504 302.914 -98.2276 291.744C-97.9947 280.568 -97.5109 269.26 -96.7925 257.834C-96.1321 246.4 -95.2081 234.85 -94.0238 223.214C-92.8669 211.559 -91.4071 199.955 -89.6591 188.4C-87.8821 176.848 -85.7878 165.349 -83.3635 153.918C-80.8828 142.508 -78.0994 131.149 -74.9859 119.858C-71.8597 108.583 -68.4323 97.3734 -64.7636 86.2363C-61.095 75.0993 -57.1977 64.0187 -53.0898 53.0217C-49.0109 42.0214 -44.7325 31.0741 -40.2451 20.2249C-35.8012 9.37063 -31.1159 -1.41101 -26.22 -12.109C-21.2969 -22.789 -16.1358 -33.3674 -10.6916 -43.8535C-5.20554 -54.3199 0.57641 -64.6779 6.62185 -74.9019C12.7381 -85.1027 19.134 -95.1823 25.7627 -105.117C32.4332 -115.032 39.3203 -124.788 46.395 -134.391C53.45 -143.951 60.6328 -153.35 67.9435 -162.586C75.1587 -171.76 82.4548 -180.749 89.8156 -189.538C97.0518 -198.269 104.337 -206.788 111.697 -215.077C118.915 -223.281 126.236 -231.237 133.63 -238.934C140.966 -246.521 148.429 -253.813 156.05 -260.822C163.67 -267.699 171.488 -274.258 179.516 -280.484C187.603 -286.585 195.944 -292.348 204.535 -297.743C213.245 -303.02 222.222 -307.943 231.45 -312.498C240.812 -316.949 250.426 -321.047 260.28 -324.807C270.254 -328.466 280.439 -331.79 290.808 -334.813C301.287 -337.765 311.909 -340.435 322.687 -342.807C333.51 -345.189 344.448 -347.307 355.478 -349.194C366.526 -351.122 377.653 -352.836 388.831 -354.367C400.003 -355.972 411.231 -357.424 422.485 -358.725C433.725 -360.161 444.996 -361.475 456.294 -362.654C467.582 -363.996 478.889 -365.247 490.242 -366.39C501.572 -367.712 512.949 -368.94 524.359 -370.061C535.759 -371.36 547.221 -372.549 558.726 -373.615C570.221 -374.844 581.787 -375.917 593.423 -376.85C605.042 -377.874 616.742 -378.725 628.504 -379.349C640.259 -380.033 652.087 -380.473 663.983 -380.611" stroke="white" stroke-opacity="0.05" stroke-linecap="round" stroke-dasharray="21 26"/>
<path opacity="0.93" d="M697.275 -348.881C708.686 -348.418 719.943 -347.671 731.026 -346.615C742.082 -345.488 752.957 -344.009 763.623 -342.196C774.254 -340.27 784.67 -337.968 794.83 -335.311C804.948 -332.498 814.79 -329.304 824.344 -325.747C833.825 -322.024 843.003 -317.94 851.852 -313.5C860.6 -308.914 868.989 -303.978 877.038 -298.716C884.947 -293.331 892.504 -287.638 899.671 -281.673C906.729 -275.594 913.401 -269.258 919.704 -262.691C925.938 -256.063 931.823 -249.229 937.389 -242.185C942.936 -235.116 948.229 -227.869 953.313 -220.451C958.486 -213.033 963.542 -205.457 968.543 -197.743C973.797 -190.028 979.1 -182.172 984.54 -174.172C990.395 -166.172 996.508 -158.037 1002.94 -149.757C1009.91 -141.468 1017.31 -133.045 1025.15 -124.454C1033.59 -115.889 1042.49 -107.169 1051.84 -98.2938C1061.71 -89.4586 1071.92 -80.4901 1082.4 -71.4128C1093.12 -62.3977 1103.9 -53.3122 1114.58 -44.1703C1125.1 -35.1597 1135.21 -26.1347 1144.71 -17.1285C1153.59 -8.32137 1161.57 0.413088 1168.45 9.07031C1176.65 21.5952 1184.7 45.6936 1184.58 57.2841C1182.06 68.5209 1172.66 90.9167 1167.33 102.364C1164.45 110.14 1162.17 118.187 1160.75 126.551C1160.7 135.144 1161.9 144.124 1164.45 153.507C1168.6 163.175 1174.06 173.24 1180.71 183.666C1188.5 194.309 1196.98 205.224 1205.76 216.356C1214.68 227.497 1223.1 238.728 1230.62 249.933C1237.04 260.939 1241.8 271.815 1244.62 282.476C1245.54 292.799 1244.22 302.871 1240.63 312.686C1235.23 322.165 1227.95 331.456 1219.11 340.603C1209.47 349.606 1199.17 358.625 1188.7 367.749C1178.95 377.014 1170.12 386.43 1162.62 396.096C1156.92 406.084 1152.96 416.398 1150.78 427.014C1150.56 437.994 1151.86 449.26 1154.38 460.743C1158.06 472.435 1162.22 484.225 1166.37 496.029C1170.42 507.83 1173.64 519.497 1175.65 530.948C1176.44 542.228 1175.48 553.194 1172.63 563.854C1168.06 574.222 1161.58 584.279 1153.31 594.015C1143.6 603.555 1132.49 612.847 1120.31 621.96C1107.48 630.989 1094.22 639.939 1080.82 648.881C1067.72 657.89 1055.06 666.979 1043.09 676.16C1032.1 685.546 1022.1 695.049 1013.15 704.711C1005.45 714.564 998.793 724.529 993.086 734.576C988.453 744.754 984.53 754.94 981.125 765.056C978.324 775.19 975.671 785.158 973 794.9C970.397 804.506 967.411 813.762 963.931 822.633C960.081 831.246 955.517 839.375 950.157 846.977C944.209 854.221 937.4 860.882 929.768 866.922C921.511 872.554 912.476 877.557 902.772 881.907C892.538 885.822 881.764 889.106 870.555 891.749C859.002 893.99 847.188 895.621 835.171 896.637C823.031 897.349 810.845 897.49 798.679 897.1C786.551 896.494 774.537 895.42 762.674 893.912C750.947 892.31 739.413 890.372 728.067 888.127C716.906 885.929 705.927 883.541 695.139 880.994C684.493 878.651 673.989 876.258 663.612 873.904C653.34 871.879 643.135 869.97 632.989 868.235C622.861 866.978 612.735 865.958 602.573 865.228C592.396 865.075 582.147 865.249 571.804 865.778C561.386 866.901 550.857 868.39 540.209 870.214C529.474 872.615 518.595 875.317 507.57 878.26C496.492 881.668 485.265 885.243 473.934 888.902C462.538 892.847 451.048 896.73 439.491 900.498C427.928 904.294 416.438 907.762 405.083 910.809C393.761 913.67 382.587 915.949 371.582 917.62C360.659 918.905 349.945 919.441 339.452 919.231C329.083 918.495 318.949 916.94 309.084 914.543C299.35 911.576 289.897 907.784 280.738 903.17C271.723 898.003 262.978 892.068 254.556 885.405C246.249 878.258 238.236 870.467 230.503 862.102C222.879 853.372 215.535 844.157 208.443 834.528C201.417 824.688 194.641 814.537 188.071 804.14C181.528 793.674 175.157 783.076 168.967 772.377C162.736 761.744 156.625 751.103 150.629 740.483C144.51 730.048 138.483 719.689 132.492 709.455C126.356 699.448 120.239 689.592 114.122 679.899C107.821 670.485 101.507 661.232 95.1795 652.139C88.6658 643.34 82.1409 634.686 75.6334 626.185C68.9572 617.964 62.3205 609.855 55.7377 601.858C49.0513 594.111 42.484 586.444 36.0527 578.845C29.583 571.463 23.3171 564.101 17.2838 556.767C11.2941 549.603 5.5903 542.416 0.172455 535.207C-5.14835 528.118 -10.1298 520.956 -14.789 513.733C-21.453 502.949 -33.042 480.86 -38.0379 469.454C-42.7535 457.891 -51.0285 433.768 -54.6453 421.199C-57.0743 412.698 -59.2924 404.012 -61.3088 395.11C-63.3632 386.171 -65.2042 377.033 -66.8028 367.701C-68.4277 358.35 -69.7815 348.809 -70.8551 339.111C-71.9092 329.387 -72.6662 319.493 -73.1167 309.461C-73.5333 299.406 -73.6461 289.227 -73.4355 278.897C-73.2249 268.568 -72.7079 258.101 -71.8871 247.509C-71.0806 236.916 -69.9871 226.21 -68.6068 215.392C-67.2382 204.557 -65.5879 193.64 -63.6506 182.61C-61.7134 171.58 -59.4886 160.601 -57.0052 149.669C-54.5048 138.725 -51.7194 127.846 -48.6636 117.03C-45.5959 106.232 -42.2695 95.4792 -38.6726 84.7898C-35.0926 74.1122 -31.2733 63.507 -27.2267 52.9571C-23.2114 42.4164 -18.9855 31.943 -14.5662 21.5485C-10.1637 11.1659 -5.56522 0.847963 -0.761331 -9.37408C4.03999 -19.5818 9.07798 -29.7027 14.3357 -39.7252C19.6314 -49.7112 25.19 -59.5911 31.0063 -69.336C36.9062 -79.0511 43.0665 -88.6457 49.5081 -98.0714C56.019 -107.47 62.8112 -116.7 69.8299 -125.785C76.8958 -134.803 84.1712 -143.665 91.6222 -152.347C99.0485 -160.974 106.622 -169.427 114.294 -177.684C121.869 -185.899 129.511 -193.91 137.207 -201.718C144.755 -209.448 152.342 -216.979 159.945 -224.269C167.401 -231.482 174.888 -238.453 182.401 -245.151C189.809 -251.765 197.286 -258.099 204.847 -264.151C212.355 -270.08 219.988 -275.704 227.756 -281.007C235.532 -286.191 243.501 -291.043 251.649 -295.567C259.877 -299.958 268.327 -304.013 276.985 -307.734C285.768 -311.329 294.776 -314.602 303.991 -317.541C313.354 -320.395 322.915 -322.946 332.672 -325.181C342.567 -327.362 352.637 -329.273 362.867 -330.92C373.198 -332.548 383.666 -333.944 394.27 -335.108C404.942 -336.32 415.715 -337.35 426.586 -338.184C437.502 -339.1 448.481 -339.871 459.523 -340.498C470.605 -341.265 481.724 -341.907 492.883 -342.439C504.07 -343.128 515.299 -343.721 526.541 -344.223C537.812 -344.882 549.095 -345.451 560.41 -345.94C571.735 -346.575 583.088 -347.116 594.452 -347.551C605.839 -348.116 617.249 -348.558 628.659 -348.837C640.09 -349.231 651.516 -349.433 662.952 -349.44C674.398 -349.505 685.83 -349.32 697.261 -348.884" stroke="white" stroke-opacity="0.05" stroke-linecap="round" stroke-dasharray="13 18"/>
<path opacity="0.61" d="M722.014 -316.826C732.86 -315.848 743.46 -314.597 753.848 -313.083C764.207 -311.516 774.325 -309.63 784.174 -307.434C793.984 -305.143 803.504 -302.515 812.736 -299.566C821.906 -296.482 830.771 -293.065 839.328 -289.302C847.791 -285.397 855.935 -281.162 863.731 -276.606C871.447 -271.903 878.829 -266.875 885.872 -261.553C892.834 -256.086 899.458 -250.338 905.764 -244.322C912.031 -238.211 918.007 -231.823 923.698 -225.189C929.397 -218.462 934.894 -211.514 940.187 -204.345C945.583 -197.105 950.854 -189.656 956.08 -182.022C961.488 -174.329 966.937 -166.432 972.461 -158.351C978.305 -150.223 984.332 -141.917 990.569 -133.425C997.231 -124.891 1004.18 -116.169 1011.46 -107.276C1019.2 -98.3635 1027.29 -89.2769 1035.72 -80.02C1044.56 -70.7848 1053.69 -61.3895 1063.04 -51.8795C1072.64 -42.4321 1082.32 -32.8899 1091.95 -23.2976C1101.56 -13.8184 1110.91 -4.34025 1119.85 5.117C1128.4 14.3727 1136.29 23.5463 1143.37 32.6002C1149.72 41.3886 1155.04 50.0062 1159.26 58.4504C1163.59 70.5694 1165.06 93.503 1162.56 104.434C1158.56 115.037 1148.59 136.353 1144.01 147.432C1141.24 159.022 1142.13 184.457 1146.43 198.461C1151.06 208.264 1156.71 218.448 1163.25 229.008C1170.61 239.752 1178.34 250.748 1186.08 261.899C1193.72 273.008 1200.7 284.11 1206.66 295.133C1211.48 305.87 1214.7 316.371 1216.07 326.578C1215.72 336.373 1213.33 345.83 1208.92 354.938C1202.97 363.69 1195.35 372.178 1186.34 380.485C1176.71 388.624 1166.48 396.787 1156.09 405.046C1146.34 413.459 1137.38 422.091 1129.55 430.996C1123.31 440.295 1118.59 449.974 1115.44 460.044C1114.06 470.554 1114.08 481.397 1115.25 492.548C1117.57 503.975 1120.42 515.559 1123.46 527.188C1126.57 538.865 1129.13 550.424 1130.78 561.765C1131.52 572.917 1130.82 583.739 1128.51 594.176C1124.74 604.309 1119.25 614.012 1112.06 623.325C1103.48 632.332 1093.47 640.985 1082.25 649.345C1070.21 657.539 1057.47 665.535 1044.31 673.4C1031.09 681.266 1017.98 689.113 1005.19 696.992C993.039 705.011 981.576 713.118 970.943 721.334C961.328 729.749 952.646 738.283 944.875 746.9C938.157 755.694 932.233 764.499 927.017 773.293C922.58 782.154 918.592 790.897 914.879 799.436C909.869 812.003 899.266 835.06 892.948 845.257C885.614 854.429 867.098 869.163 855.875 874.641C847.703 877.666 838.964 880.045 829.706 881.775C820.07 883.143 810.026 883.888 799.656 884.059C789.016 883.911 778.17 883.248 767.176 882.069C756.061 880.71 744.885 878.917 733.695 876.744C722.49 874.508 711.327 871.968 700.252 869.192C689.191 866.481 678.238 863.629 667.401 860.671C656.602 857.932 645.909 855.188 635.308 852.497C624.732 850.142 614.214 847.92 603.758 845.879C593.296 844.302 582.84 842.951 572.407 841.876C561.909 841.326 551.382 841.085 540.826 841.152C530.183 841.768 519.494 842.704 508.719 843.934C497.867 845.672 486.937 847.676 475.944 849.875C464.853 852.486 453.714 855.236 442.53 858.05C431.29 861.091 420.03 864.097 408.754 866.979C397.471 869.889 386.362 872.511 375.42 874.753C364.533 876.827 353.853 878.411 343.424 879.454C333.061 880.153 322.976 880.197 313.182 879.591C303.5 878.516 294.112 876.716 285.05 874.183C276.129 871.128 267.518 867.337 259.251 862.803C251.104 857.772 243.307 852.029 235.801 845.635C228.436 838.779 221.366 831.319 214.609 823.303C207.924 814.929 201.506 806.063 195.35 796.795C189.238 787.282 183.324 777.441 177.613 767.319C171.887 757.072 166.325 746.64 160.889 736.058C155.365 725.47 149.946 714.817 144.594 704.135C139.102 693.54 133.663 682.972 128.228 672.45C122.635 662.086 117.032 651.824 111.423 641.651C105.611 631.699 99.8003 621.868 93.9906 612.158C87.985 602.7 82.009 593.37 76.0449 584.178C69.9485 575.224 63.9278 566.394 57.9933 557.704C51.9903 549.238 46.1122 540.877 40.4192 532.621C34.732 524.591 29.2685 516.63 24.0572 508.744C18.9079 501.039 14.0317 493.384 9.48154 485.746C2.95247 474.527 -8.33039 452.198 -13.1206 440.99C-17.5387 429.797 -25.0339 406.95 -28.2074 395.198C-31.2548 383.297 -36.5577 358.633 -38.7956 345.86C-40.3061 337.255 -41.6235 328.471 -42.6945 319.536C-43.8189 310.574 -44.7077 301.442 -45.3392 292.177C-45.9639 282.883 -46.303 273.463 -46.3423 263.92C-46.3464 254.355 -46.0541 244.68 -45.4193 234.893C-44.7528 225.098 -43.7756 215.198 -42.4736 205.195C-41.1291 195.203 -39.4597 185.108 -37.4973 174.918C-35.4923 164.739 -33.1801 154.468 -30.5783 144.116C-27.9481 133.771 -25.0555 123.459 -21.8932 113.212C-18.7451 102.961 -15.3555 92.7681 -11.7247 82.6331C-8.12216 72.4913 -4.3067 62.4005 -0.270868 52.3926C3.72237 42.3744 7.91097 32.4182 12.2773 22.5345C16.5977 12.6549 21.1135 2.83707 25.8002 -6.87969C30.4585 -16.6033 35.3054 -26.2366 40.355 -35.7762C45.3837 -45.2909 50.6577 -54.7017 56.1668 -63.9661C61.7185 -73.2202 67.5338 -82.3211 73.6018 -91.2863C79.7625 -100.199 86.1832 -108.945 92.8783 -117.519C99.666 -126.042 106.71 -134.383 113.994 -142.531C121.338 -150.62 128.879 -158.526 136.61 -166.222C144.316 -173.878 152.166 -181.32 160.117 -188.558C167.994 -195.738 175.93 -202.724 183.9 -209.477C191.725 -216.189 199.57 -222.671 207.406 -228.93C215.077 -235.124 222.736 -241.08 230.394 -246.782C237.9 -252.414 245.433 -257.785 252.959 -262.872C260.408 -267.888 267.887 -272.596 275.448 -277.015C282.956 -281.34 290.584 -285.352 298.332 -289.05C306.088 -292.656 314.01 -295.952 322.091 -298.909C330.244 -301.789 338.591 -304.352 347.118 -306.602C355.734 -308.786 364.562 -310.663 373.577 -312.255C382.705 -313.821 392.021 -315.101 401.519 -316.142C411.12 -317.173 420.894 -317.983 430.793 -318.568C440.823 -319.196 450.975 -319.645 461.236 -319.918C471.591 -320.273 482.046 -320.484 492.588 -320.554C503.203 -320.742 513.897 -320.821 524.624 -320.786C535.445 -320.895 546.289 -320.908 557.172 -320.836C568.107 -320.917 579.075 -320.885 590.043 -320.793C601.074 -320.836 612.098 -320.791 623.11 -320.628C634.17 -320.604 645.227 -320.446 656.237 -320.149C667.284 -319.947 678.308 -319.587 689.271 -319.031C700.243 -318.517 711.164 -317.791 722 -316.83" stroke="white" stroke-opacity="0.05" stroke-linecap="round" stroke-dasharray="24 4"/>
<path opacity="0.18" d="M740.216 -285.097C750.403 -283.674 760.347 -282.005 770.039 -280.106C779.71 -278.138 789.088 -275.908 798.201 -273.407C807.266 -270.798 816.048 -267.909 824.524 -264.716C832.93 -261.392 841.048 -257.773 848.847 -253.855C856.585 -249.787 864.013 -245.401 871.126 -240.73C881.584 -233.351 901.022 -216.891 910.08 -207.862C916.055 -201.598 921.828 -195.074 927.434 -188.296C933.111 -181.404 938.676 -174.242 944.169 -166.842C949.813 -159.335 955.459 -151.584 961.13 -143.611C967.03 -135.539 973.038 -127.22 979.181 -118.692C985.636 -110.086 992.282 -101.253 999.145 -92.2328C1006.35 -83.1248 1013.79 -73.8386 1021.44 -64.3645C1029.43 -54.867 1037.59 -45.2083 1045.92 -35.4247C1054.45 -25.6559 1063.04 -15.7918 1071.61 -5.87189C1080.18 3.96972 1088.57 13.8025 1096.67 23.6386C1104.5 33.2741 1111.84 42.8355 1118.59 52.2793C1124.8 61.4657 1130.21 70.4753 1134.74 79.2922C1139.95 91.9149 1144.18 115.59 1143.25 126.659C1140.62 137.198 1131.97 157.659 1126.94 167.899C1122.66 178.424 1117.76 201.136 1118.07 213.617C1119.81 222.428 1122.55 231.664 1126.27 241.349C1131.1 251.34 1136.67 261.708 1142.83 272.392C1149.52 283.223 1156.32 294.222 1162.91 305.31C1169.21 316.295 1174.71 327.191 1179.12 337.91C1182.44 348.28 1184.21 358.337 1184.25 368.022C1182.76 377.227 1179.45 386.034 1174.36 394.438C1167.93 402.454 1160.06 410.168 1151 417.675C1141.4 425.021 1131.28 432.344 1121.03 439.796C1111.33 447.399 1102.3 455.237 1094.23 463.395C1087.55 471.973 1082.18 480.966 1078.18 490.402C1075.76 500.317 1074.58 510.64 1074.5 521.293C1075.53 532.299 1077.14 543.511 1079.04 554.812C1081.17 566.198 1082.98 577.502 1084.14 588.624C1084.67 599.556 1084.06 610.155 1082.13 620.356C1078.99 630.193 1074.35 639.587 1068.18 648.505C1060.73 657.035 1051.91 665.131 1041.83 672.818C1030.84 680.23 1018.97 687.329 1006.46 694.188C993.644 700.939 980.636 707.571 967.639 714.115C954.976 720.714 942.688 727.335 930.965 734.006C919.986 740.84 909.751 747.733 900.3 754.71C891.768 761.874 884.05 769.071 877.063 776.276C870.923 783.6 865.387 790.848 860.332 797.966C853.76 808.531 841.922 828.073 835.986 836.74C829.745 844.552 815.007 856.946 806.289 861.399C796.551 864.689 774.155 867.714 761.632 867.506C752.868 866.926 743.775 865.82 734.415 864.235C724.833 862.477 715.064 860.327 705.133 857.807C695.067 855.231 684.91 852.398 674.687 849.332C664.378 846.347 654.043 843.247 643.71 840.041C633.295 837.054 622.908 834.075 612.536 831.147C602.099 828.535 591.68 826.065 581.27 823.766C570.784 821.871 560.308 820.193 549.816 818.77C539.241 817.824 528.645 817.147 518.01 816.748C507.292 816.827 496.531 817.199 485.74 817.82C474.85 818.869 463.934 820.155 452.991 821.63C441.965 823.432 430.915 825.363 419.884 827.331C408.799 829.526 397.736 831.652 386.734 833.674C375.724 835.724 364.942 837.523 354.378 839.007C343.861 840.337 333.609 841.244 323.639 841.672C313.754 841.82 304.177 841.406 294.93 840.405C285.806 838.999 277.011 836.96 268.563 834.279C260.24 831.133 252.269 827.33 244.645 822.885C237.151 817.961 229.986 812.404 223.156 806.246C216.438 799.665 210.014 792.517 203.904 784.838C197.839 776.808 192.052 768.312 186.485 759.394C180.948 750.226 175.613 740.693 170.459 730.863C165.259 720.882 160.21 710.657 155.262 700.249C150.229 689.769 145.275 679.176 140.38 668.494C135.355 657.834 130.353 647.15 125.37 636.457C120.236 625.855 115.108 615.286 109.973 604.79C104.689 594.433 99.4076 584.168 94.1526 574.018C88.7684 564.042 83.4244 554.185 78.1347 544.451C72.7633 534.937 67.502 525.563 62.3592 516.301C57.1907 507.276 52.1966 498.379 47.3952 489.602C42.6366 481.036 38.1125 472.602 33.8637 464.267C29.676 456.134 25.7816 448.089 22.1892 440.105C17.0906 428.431 8.52035 405.453 5.01815 394.049C1.80515 382.748 -3.49582 359.906 -5.66891 348.294C-7.79416 336.575 -11.3939 312.448 -12.8545 300.046C-13.8755 291.681 -14.7102 283.206 -15.3599 274.572C-16.0515 265.926 -16.5246 257.164 -16.7428 248.265C-16.975 239.361 -16.9329 230.358 -16.5841 221.249C-16.2032 212.135 -15.5103 202.947 -14.4968 193.658C-13.3995 184.395 -11.9719 175.048 -10.2044 165.637C-8.36266 156.233 -6.19496 146.76 -3.68723 137.222C-1.12785 127.714 1.76181 118.124 4.96902 108.493C8.19444 98.852 11.6756 89.2733 15.4125 79.7568C19.1215 70.2317 23.0401 60.7702 27.1586 51.354C31.2309 41.939 35.4988 32.5833 39.9162 23.2881C44.2735 13.99 48.7845 4.73839 53.4365 -4.42471C58.0326 -13.6047 62.774 -22.7103 67.6843 -31.7188C72.5345 -40.7304 77.5536 -49.645 82.7655 -58.4402C87.9688 -67.2074 93.383 -75.865 99.0234 -84.3625C104.701 -92.8335 110.648 -101.132 116.834 -109.266C123.109 -117.342 129.649 -125.232 136.448 -132.921C143.364 -140.543 150.522 -147.956 157.907 -155.162C165.377 -162.297 173.056 -169.216 180.912 -175.913C188.78 -182.546 196.792 -188.952 204.907 -195.144C212.963 -201.293 221.086 -207.208 229.248 -212.898C237.29 -218.547 245.329 -223.984 253.356 -229.18C261.218 -234.335 269.045 -239.272 276.841 -243.959C284.468 -248.59 292.056 -252.989 299.627 -257.133C310.768 -263.141 332.905 -273.72 344.026 -278.254C355.144 -282.422 377.921 -289.223 389.645 -291.865C401.614 -294.159 426.476 -297.368 439.373 -298.344C448.151 -298.919 457.079 -299.281 466.16 -299.444C475.36 -299.648 484.699 -299.656 494.172 -299.502C503.762 -299.435 513.459 -299.213 523.265 -298.852C533.17 -298.613 543.176 -298.252 553.253 -297.777C563.415 -297.43 573.654 -296.983 583.927 -296.45C594.284 -296.043 604.681 -295.564 615.09 -294.974C625.559 -294.533 636.055 -293.978 646.521 -293.325C657.053 -292.789 667.546 -292.128 678.016 -291.337C688.511 -290.629 698.96 -289.768 709.326 -288.733C719.709 -287.708 730.01 -286.51 740.202 -285.101" stroke="white" stroke-opacity="0.05" stroke-linecap="round" stroke-dasharray="8 12"/>
<path opacity="0.46" d="M754.857 -253.529C764.395 -251.712 773.686 -249.69 782.739 -247.444C791.767 -245.13 800.538 -242.583 809.048 -239.791C817.508 -236.908 825.71 -233.746 833.627 -230.317C845.305 -224.848 867.256 -212.25 877.548 -205.129C887.569 -197.485 906.513 -180.486 915.553 -171.15C921.574 -164.684 927.475 -157.936 933.283 -150.895C939.185 -143.726 945.059 -136.272 950.911 -128.546C956.921 -120.7 962.968 -112.575 969.095 -104.203C975.408 -95.7004 981.824 -86.9728 988.367 -77.9965C995.129 -68.9394 1002.02 -59.6473 1009.05 -50.1662C1016.28 -40.6232 1023.61 -30.9064 1031.04 -21.0431C1038.59 -11.167 1046.15 -1.19344 1053.68 8.87599C1061.18 18.8755 1068.54 28.8981 1075.66 38.9134C1082.59 48.7932 1089.13 58.5779 1095.2 68.2832C1100.88 77.7499 1105.94 87.0544 1110.31 96.1613C1115.59 109.265 1121.06 133.794 1121.17 145.207C1119.65 155.959 1112.79 176.352 1108.1 186.262C1103.46 196.179 1095.65 216.953 1093.4 228.195C1093.04 236.093 1093.47 244.389 1094.73 253.131C1097.06 262.221 1100.2 271.733 1104.11 281.652C1108.85 291.847 1114.08 302.363 1119.63 313.137C1125.47 323.972 1131.18 334.913 1136.52 345.857C1141.43 356.611 1145.46 367.2 1148.4 377.51C1150.27 387.426 1150.7 396.95 1149.56 406.038C1147.07 414.613 1142.97 422.749 1137.3 430.448C1130.51 437.733 1122.47 444.698 1113.4 451.441C1103.9 458.009 1093.96 464.567 1083.86 471.228C1074.27 478.056 1065.24 485.123 1057.01 492.516C1049.99 500.34 1044.07 508.618 1039.34 517.33C1036 526.557 1033.79 536.23 1032.55 546.276C1032.38 556.714 1032.81 567.376 1033.6 578.187C1034.75 589.142 1035.76 600.048 1036.34 610.797C1036.53 621.4 1035.86 631.671 1034.16 641.563C1031.5 651.089 1027.56 660.14 1022.32 668.665C1015.96 676.777 1008.29 684.363 999.436 691.464C989.655 698.207 978.92 704.538 967.408 710.489C955.407 716.244 942.99 721.737 930.361 727.044C917.767 732.3 905.295 737.477 893.092 742.598C881.381 747.822 870.182 753.048 859.578 758.307C849.722 763.732 840.544 769.174 832.073 774.642C820.858 783.036 802.451 799.595 794.822 807.506C788.132 815.108 775.651 828.42 769.36 833.882C755.51 841.617 730.727 846.803 720.889 846.306C710.306 844.96 687.158 839.794 674.753 836.173C666.176 833.605 657.405 830.763 648.46 827.717C639.338 824.73 630.09 821.619 620.72 818.416C611.187 815.403 601.576 812.391 591.881 809.396C582.056 806.71 572.15 804.119 562.193 801.665C552.105 799.567 541.961 797.666 531.759 795.962C521.433 794.679 511.054 793.625 500.621 792.801C490.078 792.402 479.482 792.233 468.857 792.271C458.122 792.689 447.368 793.287 436.604 794.037C425.744 795.093 414.904 796.219 404.09 797.401C393.216 798.748 382.408 800.041 371.695 801.245C360.958 802.472 350.459 803.474 340.232 804.204C330.051 804.81 320.144 805.051 310.554 804.895C301.033 804.468 291.855 803.577 283.006 802.169C274.27 800.413 265.875 798.114 257.849 795.235C249.922 791.958 242.365 788.1 235.145 783.667C228.049 778.812 221.289 773.381 214.856 767.402C208.51 761.018 202.461 754.122 196.705 746.727C191.002 738.978 185.552 730.794 180.319 722.191C175.122 713.321 170.107 704.083 165.25 694.545C160.375 684.798 155.638 674.807 151.014 664.592C146.32 654.274 141.704 643.782 137.148 633.173C132.51 622.533 127.91 611.829 123.345 601.076C118.685 590.366 114.045 579.648 109.454 568.963C104.758 558.395 100.106 547.875 95.5219 537.426C90.8583 527.151 86.2891 516.956 81.8266 506.895C77.3259 497.021 72.9644 487.277 68.7695 477.672C64.5912 468.275 60.6119 459.014 56.8402 449.907C53.1501 441.001 49.6864 432.241 46.4953 423.628C41.9635 411.051 34.3947 386.697 31.3505 374.855C28.6221 363.254 24.3632 340.306 22.7381 328.878C21.1779 317.442 18.6898 294.291 17.6863 282.485C16.6495 270.558 15.1024 246.119 14.6656 233.619C14.3775 225.235 14.2956 216.756 14.4474 208.192C14.5991 199.628 15.0119 190.989 15.7131 182.285C16.4742 173.587 17.551 164.835 18.9661 156.051C20.4547 147.279 22.2952 138.481 24.4977 129.63C26.7773 120.823 29.4088 111.99 32.3972 103.117C35.4542 94.2689 38.8493 85.3902 42.5502 76.4841C46.2921 67.5931 50.2771 58.7605 54.4949 50.0137C58.6717 41.2518 63.059 32.5518 67.6057 23.9261C72.089 15.2615 76.7128 6.67985 81.4736 -1.85138C86.1335 -10.4042 90.9254 -18.8929 95.8305 -27.3088C100.635 -35.7463 105.566 -44.1059 110.613 -52.3602C115.601 -60.6211 120.752 -68.7752 126.048 -76.814C131.333 -84.8253 136.803 -92.7062 142.476 -100.419C148.18 -108.089 154.128 -115.576 160.306 -122.886C166.564 -130.118 173.089 -137.144 179.852 -143.973C186.727 -150.683 193.841 -157.196 201.192 -163.466C208.633 -169.641 216.288 -175.596 224.116 -181.302C231.992 -186.927 240.018 -192.326 248.161 -197.495C256.275 -202.582 264.464 -207.454 272.698 -212.108C280.833 -216.704 288.979 -221.078 297.124 -225.236C305.115 -229.356 313.071 -233.256 320.973 -236.927C332.556 -242.307 355.184 -251.865 366.276 -256.042C377.129 -259.948 398.698 -266.505 409.497 -269.124C420.292 -271.48 442.294 -274.905 453.577 -276.008C465.069 -276.878 488.829 -277.555 501.117 -277.416C509.452 -277.318 517.938 -277.039 526.549 -276.59C535.268 -276.226 544.121 -275.719 553.076 -275.065C562.145 -274.509 571.317 -273.854 580.577 -273.057C589.948 -272.39 599.389 -271.62 608.9 -270.745C618.504 -269.993 628.15 -269.147 637.84 -268.207C647.598 -267.367 657.385 -266.438 667.159 -265.389C677.006 -264.454 686.821 -263.39 696.619 -262.193C706.441 -261.064 716.227 -259.793 725.933 -258.349C735.668 -256.941 745.301 -255.338 754.843 -253.534" stroke="white" stroke-opacity="0.05" stroke-linecap="round" stroke-dasharray="21 15"/>
<path opacity="0.47" d="M768.847 -221.195C777.766 -219.036 786.473 -216.683 794.97 -214.103C803.449 -211.484 811.711 -208.624 819.758 -205.524C831.651 -200.617 854.271 -189.336 864.988 -182.903C875.481 -175.994 895.457 -160.482 905.032 -151.872C911.365 -145.871 917.584 -139.571 923.692 -132.983C929.862 -126.242 935.942 -119.189 941.985 -111.866C948.095 -104.37 954.2 -96.6058 960.306 -88.5537C966.518 -80.3763 972.75 -71.9189 979.02 -63.2215C985.415 -54.4064 991.848 -45.3513 998.313 -36.0756C1004.9 -26.728 1011.51 -17.1981 1018.12 -7.49193C1024.79 2.23767 1031.41 12.1069 1037.95 22.0523C1044.44 31.9801 1050.79 41.9357 1056.91 51.9223C1062.85 61.7677 1068.49 71.5899 1073.72 81.3154C1078.65 90.8605 1083.07 100.249 1086.94 109.489C1090.37 118.459 1093.14 127.207 1095.24 135.722C1097.23 147.937 1096.92 170.68 1094.75 181.267C1091.54 191.366 1082.97 210.903 1078.28 220.627C1074.14 230.578 1068.29 251.922 1067.21 263.59C1067.58 271.829 1068.65 280.47 1070.43 289.531C1073.06 298.934 1076.32 308.723 1080.12 318.856C1084.5 329.214 1089.16 339.806 1093.9 350.558C1098.73 361.318 1103.26 372.074 1107.28 382.738C1110.79 393.161 1113.41 403.323 1114.95 413.142C1115.49 422.523 1114.72 431.442 1112.53 439.886C1109.16 447.815 1104.38 455.255 1098.27 462.242C1091.21 468.813 1083.08 475.061 1074.07 481.067C1064.73 486.914 1054.99 492.729 1045.12 498.629C1035.66 504.71 1026.69 511.021 1018.38 517.638C1011.11 524.705 1004.77 532.2 999.444 540.133C995.34 548.617 992.2 557.522 989.964 566.837C988.71 576.566 988.04 586.565 987.803 596.738C987.988 607.112 988.172 617.452 988.142 627.7C987.904 637.84 987.056 647.698 985.422 657.166C983.093 666.329 979.732 675.01 975.27 683.147C969.864 690.855 963.331 698.007 955.703 704.602C947.191 710.778 937.717 716.455 927.447 721.656C916.574 726.562 905.145 731.099 893.327 735.321C881.326 739.416 869.215 743.288 857.169 747.013C845.331 750.733 833.791 754.393 822.641 757.999C812 761.716 801.894 765.412 792.363 769.104C779.35 774.86 757.238 786.346 747.95 791.928C732.802 802.28 713.099 814.706 706.791 817.368C693.304 820.049 670.15 818.891 661.234 816.798C651.703 814.18 630.937 807.262 619.767 803.18C612.034 800.456 604.079 797.587 595.928 794.617C587.563 791.808 579.027 788.956 570.34 786.119C561.451 783.527 552.407 780.995 543.231 778.549C533.882 776.426 524.41 774.439 514.827 772.596C505.065 771.089 495.216 769.783 485.283 768.632C475.173 767.849 465.007 767.232 454.789 766.769C444.439 766.646 434.05 766.65 423.633 766.752C413.124 767.102 402.619 767.517 392.154 767.949C381.611 768.523 371.138 769.047 360.744 769.462C350.338 769.905 340.177 770.151 330.265 770.156C320.394 770.067 310.813 769.642 301.522 768.882C292.311 767.903 283.424 766.507 274.875 764.669C262.358 761.226 239.209 751.339 228.554 744.837C221.691 739.976 215.14 734.582 208.885 728.696C202.741 722.443 196.886 715.712 191.295 708.523C185.785 701.002 180.508 693.057 175.452 684.715C170.435 676.103 165.615 667.147 160.961 657.85C156.304 648.375 151.802 638.618 147.433 628.632C143.03 618.504 138.729 608.214 134.531 597.761C130.292 587.258 126.132 576.647 122.06 565.978C117.923 555.313 113.89 544.63 109.922 533.943C105.932 523.342 102.036 512.782 98.2475 502.269C94.4595 491.9 90.7878 481.629 87.2649 471.455C83.7773 461.456 80.4402 451.586 77.313 441.856C74.2286 432.32 71.3676 422.929 68.724 413.697C66.1499 404.67 63.8184 395.781 61.7369 387.049C58.8377 374.28 54.3676 349.64 52.753 337.687C51.3611 325.99 49.451 302.93 48.8492 291.467C48.2433 280.05 47.4125 256.999 47.1517 245.303C46.8014 233.519 46.5159 209.512 46.6745 197.329C46.9257 185.044 48.5075 160.227 49.9775 147.74C51.8347 135.28 57.3549 110.383 61.0522 97.9772C63.7506 89.7556 66.8153 81.5346 70.2076 73.3294C73.6995 65.1516 77.5191 56.9895 81.653 48.8373C85.8195 40.6833 90.2194 32.6153 94.8275 24.6542C99.4147 16.668 104.162 8.75197 109.051 0.913571C113.86 -6.95989 118.791 -14.7481 123.816 -22.4955C128.735 -30.257 133.742 -37.9642 138.831 -45.6037C143.815 -53.2574 148.88 -60.8434 154.043 -68.3234C159.12 -75.825 164.326 -83.2222 169.644 -90.4748C174.943 -97.7199 180.387 -104.822 186.01 -111.75C191.661 -118.635 197.518 -125.333 203.57 -131.82C209.716 -138.233 216.089 -144.435 222.697 -150.408C229.388 -156.28 236.34 -161.911 243.501 -167.291C250.76 -172.565 258.233 -177.602 265.891 -182.368C273.611 -187.058 281.488 -191.488 289.483 -195.676C297.508 -199.786 305.61 -203.672 313.764 -207.313C321.881 -210.905 330.024 -214.264 338.157 -217.419C350.173 -221.986 373.808 -230.065 385.349 -233.581C396.593 -236.891 418.545 -242.503 429.266 -244.799C439.795 -246.909 460.676 -250.105 471.101 -251.176C481.535 -252.084 502.715 -252.935 513.531 -252.895C524.537 -252.741 547.177 -251.648 558.835 -250.762C570.763 -249.838 595.308 -247.451 607.923 -246.021C616.443 -245.136 625.073 -244.139 633.768 -243.034C642.561 -242.046 651.412 -240.936 660.315 -239.725C669.292 -238.609 678.306 -237.396 687.34 -236.048C696.434 -234.8 705.529 -233.409 714.604 -231.899C723.73 -230.431 732.823 -228.818 741.86 -227.038C750.928 -225.292 759.928 -223.353 768.834 -221.2" stroke="white" stroke-opacity="0.05" stroke-linecap="round" stroke-dasharray="18 15"/>
<path opacity="0.21" d="M784.133 -186.905C792.474 -184.431 800.676 -181.749 808.707 -178.859C820.638 -174.33 843.583 -163.984 854.598 -158.103C861.843 -153.991 868.93 -149.599 875.845 -144.935C889.608 -135.214 902.781 -124.303 915.443 -112.226C928.134 -99.562 940.457 -85.6921 952.531 -70.6878C964.757 -55.1143 976.826 -38.4907 988.732 -20.9018C1000.77 -2.98545 1012.54 15.6669 1023.88 34.8517C1034.93 53.9561 1045.11 73.2373 1054.04 92.3923C1061.97 110.927 1068.07 128.952 1071.98 146.191C1074.33 162.441 1074.28 177.766 1071.85 192.14C1068.32 205.711 1063.13 218.695 1056.87 231.417C1051.31 244.236 1046.2 257.573 1042.3 271.84C1041.12 287.261 1042.11 304.16 1045.39 322.571C1051.35 342.182 1058.57 362.86 1066.05 384.061C1073.23 405.026 1078.11 425.283 1079.43 444.169C1077.83 457.054 1067.05 479.546 1057.92 489.206C1050.69 495.078 1042.55 500.63 1033.67 505.93C1024.52 511.083 1015.04 516.189 1005.41 521.366C996.166 526.721 987.306 532.288 979.012 538.127C971.583 544.422 964.935 551.115 959.146 558.244C954.398 565.903 950.515 573.986 947.42 582.454C945.203 591.384 943.579 600.599 942.384 610C941.276 629.438 939.876 648.613 936.89 666.751C931.972 683.858 923.561 698.909 911.412 711.682C896.122 722.676 877.587 731.545 856.65 738.57C834.426 744.645 811.609 749.664 789.163 753.955C767.89 758.417 748.239 762.656 730.555 766.699C715.067 771.286 701.547 775.58 689.747 779.358C679.579 783.375 670.402 786.471 661.743 788.422C653.628 790.175 645.293 790.522 636.492 789.435C627.354 788.046 617.33 785.306 606.387 781.378C594.681 777.47 581.948 772.745 568.285 767.433C553.757 762.696 538.328 757.829 522.103 753.015C505.073 749.266 487.329 745.858 469.04 742.878C459.625 741.839 450.111 740.898 440.492 740.067C430.721 739.503 420.897 739.011 411.014 738.57C401.032 738.357 391.017 738.144 381.008 737.917C370.953 737.815 360.905 737.634 350.936 737.33C340.948 737.064 331.176 736.598 321.634 735.938C312.125 735.18 302.88 734.13 293.904 732.774C285.002 731.243 276.389 729.335 268.087 727.045C259.89 724.513 251.996 721.546 244.413 718.13C229.624 710.427 216.089 700.839 203.736 689.444C191.835 676.772 180.991 662.376 171.085 646.427C161.461 629.475 152.609 611.26 144.443 592.019C136.366 572.25 128.849 551.831 121.869 530.999C114.936 510.173 108.544 489.279 102.772 468.553C97.1541 448.265 92.2449 428.354 88.1613 408.978C84.3277 390.27 81.3714 372.156 79.3446 354.662C77.4832 337.808 76.4671 321.451 76.212 305.53C75.8369 289.973 75.9957 274.623 76.6176 259.361C76.7689 244.154 77.2017 228.845 77.9555 213.387C78.155 197.828 78.7608 182.05 79.9095 166.139C80.8496 150.187 82.652 134.182 85.4792 118.223C87.9059 106.336 94.5465 82.849 98.7994 71.2687C103.587 59.8291 114.994 37.2436 121.569 26.0907C126.087 18.6913 130.813 11.3977 135.734 4.20349C140.622 -2.99098 145.667 -10.106 150.822 -17.1485C155.893 -24.2176 161.048 -31.2274 166.274 -38.1518C171.396 -45.1292 176.563 -52.0344 181.795 -58.8739C191.882 -72.6795 202.24 -86.1177 212.914 -99.0834C223.387 -112.038 234.422 -124.328 246.106 -135.831C258.042 -147.057 270.833 -157.325 284.42 -166.548C298.442 -175.371 313.207 -183.143 328.586 -189.834C344.132 -196.21 360.023 -201.623 376.046 -206.103C391.865 -210.472 407.548 -214.026 422.997 -216.799C437.977 -219.646 452.644 -221.784 467.006 -223.193C480.913 -224.8 494.632 -225.717 508.254 -225.929C521.643 -226.391 535.119 -226.187 548.747 -225.315C562.417 -224.75 576.415 -223.575 590.749 -221.804C605.326 -220.417 620.305 -218.497 635.64 -216.086C651.304 -214.097 667.317 -211.635 683.582 -208.701C695.955 -206.649 721.004 -202.016 733.614 -199.401C742.051 -197.664 750.501 -195.758 758.91 -193.675C767.351 -191.625 775.752 -189.366 784.113 -186.899" stroke="white" stroke-opacity="0.05" stroke-linecap="round" stroke-dasharray="25 8"/>
<path opacity="0.96" d="M800.996 -149.752C816.68 -144.178 831.874 -137.707 846.532 -130.348C861.065 -122.69 875.058 -113.994 888.503 -104.216C901.827 -94.0005 914.643 -82.6275 926.999 -70.1201C939.262 -57.1083 951.137 -42.9704 962.61 -27.7989C974.028 -12.1861 985.025 4.34789 995.527 21.6411C1005.82 39.1168 1015.42 57.1161 1024.14 75.3654C1032.24 93.3962 1039.07 111.351 1044.37 128.969C1048.58 145.913 1050.92 162.217 1051.23 177.727C1050.37 192.413 1047.59 206.299 1043.1 219.49C1038.23 232.237 1032.47 244.749 1026.4 257.351C1021.54 270.426 1017.53 284.303 1014.92 299.254C1014.79 315.467 1016.5 333.077 1019.9 352.004C1025.2 371.886 1031.08 392.46 1036.57 413.167C1041.32 433.353 1043.63 452.501 1042.53 470.057C1038.25 485.703 1029.71 499.282 1017.03 510.86C1001.89 520.98 984.287 530.101 965.511 538.975C947.99 548.566 932.273 559.178 919.183 571.227C909.615 585.353 902.808 600.976 898.154 617.69C895.461 635.534 892.939 653.258 889.523 670.139C884.928 686.261 877.685 700.461 867.447 712.436C854.593 722.694 838.777 730.643 820.566 736.498C800.762 741.116 779.862 744.281 758.695 746.342C737.931 748.233 718.111 749.61 699.707 750.649C682.921 752.161 667.878 753.441 654.516 754.419C642.78 755.858 632.296 756.777 622.787 756.982C614.11 757.386 605.768 756.869 597.435 755.325C589.117 753.842 580.335 751.359 570.917 747.912C560.98 744.686 550.161 740.741 538.463 736.247C525.961 732.315 512.528 728.126 498.19 723.864C483.043 720.464 467.056 717.2 450.377 714.105C432.987 711.965 415.05 709.979 396.729 708.072C377.965 706.836 359.05 705.394 340.183 703.523C321.26 701.721 303.098 699.078 285.817 695.395C268.855 691.136 252.946 685.482 238.151 678.33C223.845 670.196 210.703 660.392 198.676 648.973C187.169 636.489 176.703 622.43 167.237 606.979C158.163 590.657 149.952 573.148 142.575 554.706C135.478 535.785 129.123 516.233 123.505 496.317C118.144 476.365 113.514 456.35 109.672 436.492C106.102 416.979 103.352 397.828 101.439 379.183C99.8047 361.074 98.978 343.521 98.9788 326.521C99.0503 310.035 99.7676 293.978 101.073 278.333C102.115 262.906 103.518 247.673 105.222 232.532C106.364 217.367 107.714 202.137 109.259 186.835C110.296 171.388 111.69 155.879 113.585 140.325C115.322 124.781 117.904 109.324 121.46 94.0825C125.344 79.0325 130.475 64.3068 136.931 49.9497C143.872 35.8601 152.087 22.1097 161.531 8.68882C171.138 -4.63621 181.421 -17.4979 192.167 -29.9365C202.598 -42.5594 213.225 -54.8815 223.963 -66.9018C234.213 -79.1571 244.59 -91.0508 255.139 -102.488C265.43 -113.975 276.148 -124.806 287.352 -134.845C298.723 -144.651 310.815 -153.494 323.598 -161.29C336.799 -168.672 350.713 -174.96 365.222 -180.156C380.016 -184.999 395.202 -188.834 410.625 -191.718C425.993 -194.449 441.347 -196.376 456.56 -197.54C471.45 -198.791 486.083 -199.397 500.419 -199.382C514.372 -199.609 528.073 -199.289 541.561 -198.4C554.808 -197.855 567.989 -196.79 581.174 -195.183C594.331 -193.963 607.645 -192.229 621.162 -190.003C634.824 -188.2 648.795 -185.913 663.061 -183.147C677.538 -180.8 692.344 -177.973 707.41 -174.638C722.691 -171.668 738.175 -168.123 753.777 -163.967C769.496 -160.013 785.264 -155.304 800.983 -149.76" stroke="white" stroke-opacity="0.05" stroke-linecap="round" stroke-dasharray="17 1"/>
<path opacity="0.67" d="M818.135 -109.731C832.894 -103.572 847.235 -96.5509 861.111 -88.6471C874.869 -80.4881 888.129 -71.3453 900.875 -61.1943C913.466 -50.6546 925.518 -39.0702 937.048 -26.4655C948.384 -13.4639 959.168 0.521483 969.349 15.3328C979.259 30.4722 988.488 46.3159 996.903 62.6697C1004.85 79.0639 1011.8 95.721 1017.56 112.427C1022.57 128.808 1026.14 144.95 1028.11 160.622C1029.13 175.694 1028.47 190.155 1026.14 203.939C1023.08 217.164 1018.68 229.866 1013.23 242.167C1007.94 254.456 1002.4 266.85 997.037 279.649C993.13 293.242 990.244 307.779 988.681 323.462C989.22 340.389 991.135 358.515 994.171 377.67C998.406 397.501 1002.62 417.632 1006.01 437.516C1008.36 456.618 1008.28 474.448 1005.06 490.515C999.077 504.691 989.453 516.805 976.363 526.958C961.325 535.794 944.246 543.638 926.192 551.182C909.19 559.41 893.658 568.514 880.317 578.886C869.919 591.238 861.926 604.984 855.905 619.8C851.815 635.851 848.228 651.939 844.284 667.403C839.769 682.381 833.4 695.665 824.776 706.885C814.071 716.54 800.848 723.866 785.43 728.957C768.349 732.674 749.903 734.622 730.761 735.14C711.416 735.172 692.425 734.385 674.243 733.016C657.065 731.931 641.232 730.567 626.804 728.964C613.716 727.904 601.925 726.585 591.247 724.886C581.504 723.652 572.397 721.913 563.671 719.55C555.22 717.564 546.668 714.913 537.821 711.627C528.694 708.734 518.932 705.293 508.457 701.395C497.37 698.072 485.396 694.473 472.605 690.68C459.052 687.66 444.665 684.575 429.525 681.461C413.728 679.121 397.3 676.728 380.402 674.197C363.095 672.2 345.537 669.843 327.894 666.956C310.211 664.129 293.131 660.476 276.825 655.848C260.798 650.774 245.699 644.441 231.609 636.78C218.033 628.322 205.527 618.418 194.094 607.089C183.244 594.885 173.448 581.313 164.692 566.522C156.447 551.019 149.182 534.467 142.861 517.105C136.997 499.347 132.013 481.034 127.931 462.393C124.259 443.745 121.437 425.031 119.506 406.456C117.906 388.172 117.153 370.172 117.247 352.614C117.55 335.476 118.583 318.772 120.3 302.542C121.956 286.641 124.134 271.087 126.701 255.845C128.887 240.701 131.32 225.686 133.904 210.736C135.92 195.689 138.065 180.605 140.353 165.493C142.183 150.251 144.341 135.017 146.985 119.897C149.539 104.805 152.88 89.9567 157.172 75.4444C161.816 61.2197 167.614 47.4488 174.683 34.1925C182.206 21.2562 190.932 8.80611 200.779 -3.1942C210.784 -15.0892 221.392 -26.4414 232.345 -37.3359C243.018 -48.4168 253.808 -59.1737 264.606 -69.6269C274.927 -80.3637 285.264 -90.7562 295.637 -100.703C305.71 -110.78 316.047 -120.225 326.723 -128.917C337.465 -137.442 348.785 -145.02 360.675 -151.586C372.927 -157.77 385.809 -162.849 399.258 -166.831C413.056 -170.44 427.294 -173 441.82 -174.596C456.472 -175.985 471.212 -176.561 485.936 -176.375C500.502 -176.242 514.918 -175.49 529.099 -174.174C543.02 -173.102 556.72 -171.564 570.171 -169.576C583.425 -167.949 596.529 -165.913 609.547 -163.46C622.509 -161.449 635.511 -159.024 648.574 -156.19C661.738 -153.798 675.069 -150.997 688.613 -147.754C702.316 -144.932 716.25 -141.641 730.39 -137.843C744.708 -134.365 759.212 -130.324 773.825 -125.631C788.548 -121.129 803.34 -115.861 818.123 -109.739" stroke="white" stroke-opacity="0.05" stroke-linecap="round" stroke-dasharray="21 11"/>
<path opacity="0.25" d="M833.172 -67.9227C847.004 -61.2593 860.407 -53.7856 873.34 -45.4959C886.132 -37.0199 898.413 -27.6492 910.118 -17.3958C921.612 -6.86278 932.493 4.57915 942.708 16.8539C952.638 29.4079 961.83 42.7214 970.214 56.6687C978.194 70.7868 985.247 85.3571 991.267 100.227C996.716 115.032 1000.99 129.916 1003.95 144.65C1006.19 159.098 1007.03 173.22 1006.4 186.89C1005.09 200.143 1002.41 212.92 998.476 225.226C994.292 237.327 989.285 249.209 983.73 261.042C978.743 273.213 973.877 285.805 969.508 299.046C966.563 313.237 964.605 328.446 963.735 344.735C964.488 362.121 966.154 380.454 968.396 399.478C971.242 418.866 973.637 438.171 974.92 456.89C975.017 474.66 972.795 490.97 967.759 505.409C960.399 518.056 949.986 528.69 936.715 537.438C921.918 545.033 905.474 551.658 888.22 557.928C871.842 564.878 856.686 572.512 843.298 581.246C832.365 591.816 823.487 603.663 816.395 616.513C811.1 630.665 806.537 644.987 802.04 658.882C797.424 672.596 791.628 684.87 784.255 695.329C775.363 704.458 764.464 711.375 751.66 716.066C737.325 719.344 721.583 720.681 704.913 720.364C687.639 719.298 670.219 717.116 653.121 714.097C636.454 711.112 620.637 707.706 605.851 704C591.997 700.78 579.237 697.396 567.513 693.827C556.623 690.851 546.484 687.655 536.913 684.192C527.719 681.272 518.698 678.025 509.659 674.415C500.509 671.363 491.01 667.974 481.051 664.274C470.623 661.17 459.526 657.837 447.733 654.288C435.327 651.429 422.168 648.403 408.329 645.212C393.904 642.675 378.883 639.909 363.388 636.875C347.524 634.258 331.378 631.19 315.102 627.493C298.794 623.864 283.001 619.433 267.852 614.099C253 608.422 238.982 601.618 225.887 593.664C213.302 585.107 201.75 575.28 191.254 564.275C181.347 552.562 172.533 539.717 164.782 525.827C157.653 511.382 151.561 496.073 146.511 480.088C142.01 463.787 138.51 447.033 135.998 430.037C133.948 412.988 132.832 395.913 132.627 378.941C132.759 362.15 133.718 345.599 135.463 329.387C137.316 313.421 139.807 297.772 142.849 282.484C145.742 267.321 148.981 252.402 152.496 237.674C155.568 222.903 158.786 208.206 162.071 193.541C164.822 178.71 167.643 163.86 170.616 149.051C173.195 134.109 176.092 119.279 179.456 104.655C182.811 90.1162 186.926 75.9507 191.921 62.2672C197.275 48.9091 203.718 36.1185 211.287 23.9948C219.318 12.2027 228.434 1.01018 238.546 -9.61229C248.831 -20.1232 259.606 -30.0249 270.66 -39.4234C281.435 -49.0332 292.269 -58.2865 303.065 -67.2216C313.365 -76.4943 323.597 -85.4343 333.772 -93.9599C343.597 -102.677 353.543 -110.826 363.667 -118.292C373.806 -125.655 384.336 -132.156 395.294 -137.674C406.547 -142.879 418.344 -147.012 430.625 -150.067C443.282 -152.746 456.376 -154.382 469.793 -155.04C483.476 -155.444 497.336 -155.018 511.275 -153.8C525.259 -152.568 539.19 -150.734 552.982 -148.328C566.693 -146.13 580.224 -143.501 593.561 -140.469C606.797 -137.788 619.872 -134.771 632.817 -131.414C645.722 -128.489 658.588 -125.245 671.439 -121.666C684.352 -118.533 697.337 -115.035 710.414 -111.175C723.624 -107.709 736.967 -103.812 750.428 -99.4426C764.036 -95.3643 777.75 -90.7483 791.532 -85.4955C805.405 -80.4117 819.299 -74.5804 833.16 -67.9314" stroke="white" stroke-opacity="0.05" stroke-linecap="round" stroke-dasharray="22 16"/>
<path opacity="0.16" d="M843.471 -26.3858C856.319 -19.3103 868.672 -11.543 880.466 -3.12011C892.139 5.46782 903.196 14.778 913.573 24.7742C923.698 34.9975 933.102 45.9101 941.693 57.4157C949.938 69.1249 957.302 81.3496 963.705 93.9824C969.658 106.692 974.533 119.654 978.287 132.715C981.487 145.707 983.469 158.619 984.183 171.353C984.342 183.883 983.247 196.129 980.953 208.025C978.263 219.757 974.579 231.236 970.05 242.513C965.604 253.918 960.741 265.408 955.721 277.149C951.444 289.503 947.476 302.486 944.087 316.23C941.948 330.983 940.578 346.68 940.017 363.295C940.583 380.795 941.594 398.942 942.723 417.402C944.023 435.93 944.567 454.063 943.84 471.324C941.908 487.5 937.852 502.116 931.369 514.853C922.939 525.913 912.009 535.09 898.781 542.483C884.388 548.88 868.667 554.359 852.284 559.444C836.644 565.144 821.98 571.408 808.775 578.55C797.569 587.397 788.099 597.359 780.214 608.23C773.958 620.452 768.53 632.919 763.498 645.148C758.649 657.476 753.18 668.641 746.699 678.293C739.214 686.916 730.234 693.534 719.763 698.077C707.973 701.284 694.886 702.503 680.809 701.957C665.934 700.501 650.612 697.724 635.215 693.866C619.79 689.792 604.761 685.097 590.359 679.957C576.438 675.132 563.299 670.11 550.999 664.959C539.253 660.395 528.215 655.744 517.783 651.034C507.66 646.952 497.871 642.771 488.248 638.463C478.594 634.8 468.814 630.991 458.824 627.022C448.471 623.684 437.702 620.202 426.443 616.553C414.684 613.513 402.362 610.3 389.517 606.891C376.175 603.997 362.345 600.843 348.135 597.325C333.611 594.153 318.839 590.483 303.996 586.176C289.106 581.925 274.707 576.941 260.926 571.142C247.405 565.104 234.688 558.101 222.857 550.126C211.496 541.689 201.142 532.23 191.847 521.775C183.134 510.817 175.516 498.913 169.013 486.195C163.108 473.046 158.308 459.209 154.606 444.849C151.452 430.227 149.348 415.253 148.274 400.083C147.64 384.847 147.954 369.556 149.156 354.349C150.631 339.204 152.876 324.215 155.8 309.441C158.781 294.735 162.286 280.225 166.201 265.931C169.905 251.592 173.867 237.357 177.982 223.233C181.69 208.935 185.45 194.644 189.273 180.368C192.604 165.882 196.028 151.4 199.594 137.02C202.861 122.519 206.476 108.218 210.539 94.223C214.657 80.3895 219.483 67.007 225.124 54.2225C231.135 41.7917 238.123 30.0598 246.122 19.0552C254.557 8.44058 263.944 -1.51468 274.201 -10.8246C284.635 -20.0036 295.452 -28.5296 306.477 -36.5129C317.259 -44.7046 328.047 -52.5448 338.718 -60.0441C348.935 -67.9112 359.032 -75.4581 368.972 -82.6403C378.549 -90.0939 388.116 -97.0185 397.74 -103.357C407.293 -109.68 417.083 -115.224 427.163 -119.87C437.448 -124.283 448.154 -127.705 459.252 -130.101C470.709 -132.153 482.588 -133.193 494.784 -133.253C507.302 -133.039 520.076 -131.954 533.005 -130.085C546.117 -128.136 559.281 -125.529 572.418 -122.35C585.637 -119.312 598.769 -115.812 611.766 -111.928C624.792 -108.326 637.687 -104.413 650.45 -100.21C663.257 -96.3734 675.98 -92.2812 688.643 -87.9148C701.377 -83.9478 714.103 -79.6798 726.825 -75.0903C739.672 -70.8734 752.56 -66.2764 765.45 -61.2551C778.464 -56.5128 791.496 -51.2749 804.501 -45.4652C817.567 -39.795 830.583 -33.458 843.449 -26.4047" stroke="white" stroke-opacity="0.05" stroke-linecap="round" stroke-dasharray="17 16"/>
<path opacity="0.82" d="M847.109 12.4602C858.909 19.7957 870.09 27.6499 880.641 35.9922C891.039 44.4513 900.735 53.4308 909.636 62.9019C918.313 72.5221 926.133 82.6144 933.051 93.0765C939.621 103.67 945.216 114.583 949.784 125.703C953.928 136.862 956.98 148.127 958.927 159.384C960.419 170.609 960.784 181.743 960.03 192.715C958.913 203.622 956.781 214.385 953.727 224.992C950.551 235.663 946.703 246.337 942.34 257.064C938.264 268.187 934.04 279.654 929.846 291.575C926.422 304.254 923.333 317.639 920.724 331.809C919.095 346.878 917.978 362.763 917.319 379.329C917.333 396.502 917.426 413.993 917.292 431.468C916.989 448.74 915.773 465.36 913.255 480.912C909.588 495.321 904.05 508.137 896.45 519.137C887.29 528.62 876.122 536.337 863.123 542.441C849.271 547.705 834.368 552.102 818.951 556.087C804.103 560.638 790.089 565.606 777.247 571.273C766.016 578.465 756.219 586.609 747.813 595.581C740.818 605.866 734.708 616.474 729.153 626.987C723.997 637.823 718.627 647.806 712.747 656.571C706.264 664.636 698.754 670.987 690.193 675.48C680.586 678.829 669.888 680.3 658.285 679.992C645.836 678.732 632.81 676.007 619.459 672.08C605.769 667.706 592.123 662.505 578.734 656.7C565.45 650.996 552.613 644.972 540.31 638.752C528.284 632.981 516.794 627.157 505.79 621.333C494.973 616.094 484.497 610.88 474.27 605.701C463.994 601.143 453.77 596.594 443.493 592.015C432.94 588.041 422.169 584.04 411.128 579.942C399.685 576.389 387.9 572.729 375.769 568.86C363.245 565.463 350.395 561.795 337.322 557.79C323.975 554.049 310.505 549.846 297.064 545.064C283.573 540.335 270.606 534.976 258.276 528.973C246.169 522.759 234.851 515.785 224.416 508.04C214.408 499.955 205.405 491.054 197.43 481.398C189.993 471.35 183.647 460.587 178.424 449.201C173.752 437.495 170.183 425.249 167.702 412.61C165.732 399.753 164.799 386.595 164.854 373.294C165.3 359.881 166.652 346.387 168.81 332.918C171.174 319.404 174.22 305.917 177.868 292.541C181.493 279.083 185.532 265.678 189.923 252.349C194.054 238.849 198.39 225.346 202.851 211.86C206.914 198.114 211.049 184.336 215.235 170.567C219.035 156.568 222.949 142.619 227.041 128.8C230.947 114.923 235.189 101.329 239.893 88.1168C244.694 75.0991 250.177 62.6353 256.387 50.8484C262.956 39.4464 270.398 28.8008 278.724 18.9424C287.44 9.47863 296.976 0.741416 307.281 -7.29917C317.712 -15.1978 328.457 -22.4317 339.348 -29.1007C350.028 -35.9718 360.664 -42.46 371.142 -48.6144C381.24 -55.1534 391.138 -61.3991 400.825 -67.3204C410.165 -73.5546 419.391 -79.3527 428.555 -84.6435C437.593 -90.0143 446.727 -94.7056 456.033 -98.6259C465.445 -102.404 475.164 -105.28 485.151 -107.231C495.453 -108.9 506.096 -109.596 517.046 -109.368C528.323 -108.868 539.885 -107.507 551.64 -105.333C563.667 -103.021 575.841 -100.041 588.07 -96.4629C600.494 -92.8991 612.927 -88.8812 625.308 -84.4285C637.828 -80.1853 650.284 -75.5999 662.652 -70.7338C675.129 -66.1489 687.527 -61.3145 699.838 -56.2407C712.277 -51.4898 724.648 -46.4793 736.952 -41.2092C749.395 -36.2311 761.762 -30.9417 774.053 -25.3203C786.475 -19.8977 798.791 -14.0703 810.972 -7.7857C823.212 -1.6056 835.289 5.12521 847.099 12.4501" stroke="white" stroke-opacity="0.05" stroke-linecap="round" stroke-dasharray="10 21"/>
<path opacity="0.29" d="M843.487 46.6004C854.134 54.0322 864.108 61.7896 873.358 69.8396C882.469 77.9981 890.793 86.4674 898.281 95.2148C905.536 104.098 911.913 113.237 917.331 122.587C922.457 132.03 926.606 141.621 929.74 151.297C932.53 161.033 934.305 170.812 935.06 180.543C935.513 190.334 934.986 200.077 933.553 209.765C931.95 219.55 929.551 229.356 926.499 239.189C923.499 249.313 920.058 259.627 916.317 270.219C912.957 281.373 909.547 293.011 906.231 305.2C903.567 318.158 901.155 331.817 899.038 346.139C897.595 361.209 896.388 376.857 895.321 392.913C894.561 409.301 893.585 425.691 892.134 441.784C890.326 457.471 887.539 472.315 883.516 485.954C878.45 498.489 871.812 509.456 863.463 518.705C853.892 526.636 842.73 532.977 830.167 537.85C816.967 542.058 802.962 545.459 788.56 548.433C774.623 551.931 761.358 555.702 749.043 560.026C737.979 565.679 728.104 572.121 719.411 579.279C711.909 587.703 705.272 596.459 699.275 605.26C693.795 614.556 688.39 623.266 682.803 631.07C676.962 638.472 670.513 644.487 663.358 648.946C655.473 652.509 646.765 654.367 637.303 654.595C627.1 653.916 616.293 651.768 605.049 648.333C593.309 644.341 581.39 639.382 569.448 633.646C557.336 627.791 545.375 621.477 533.674 614.842C521.985 608.455 510.59 601.935 499.547 595.387C488.498 589.283 477.715 583.23 467.158 577.227C456.508 571.769 445.957 566.397 435.457 561.078C424.718 556.298 413.917 551.557 403.012 546.812C391.769 542.539 380.373 538.21 368.836 533.771C356.976 529.692 344.979 525.422 332.909 520.88C320.613 516.568 308.364 511.875 296.245 506.722C284.084 501.588 272.519 496.001 261.613 489.923C250.899 483.708 240.981 476.914 231.953 469.554C223.286 461.939 215.582 453.731 208.901 444.973C202.676 435.913 197.524 426.335 193.433 416.312C189.827 406.018 187.27 395.331 185.757 384.352C184.666 373.142 184.555 361.701 185.358 350.129C186.468 338.373 188.398 326.513 191.063 314.609C193.848 302.535 197.234 290.421 201.148 278.296C204.987 265.962 209.2 253.559 213.693 241.136C217.938 228.446 222.372 215.679 226.932 202.856C231.172 189.752 235.497 176.589 239.924 163.451C244.071 150.095 248.389 136.839 252.916 123.787C257.362 110.712 262.156 97.9698 267.397 85.7097C272.806 73.673 278.81 62.2583 285.49 51.5513C292.506 41.2497 300.266 31.7307 308.801 23.0471C317.662 14.7376 327.228 7.18852 337.438 0.356251C347.787 -6.32607 358.338 -12.3395 368.982 -17.8017C379.456 -23.4255 389.863 -28.6695 400.084 -33.6003C409.976 -38.8846 419.653 -43.9085 429.07 -48.653C438.17 -53.7402 447.081 -58.4731 455.862 -62.7666C464.474 -67.2629 473.075 -71.1708 481.703 -74.4473C490.401 -77.6695 499.235 -80.122 508.266 -81.7611C517.537 -83.2051 527.043 -83.7722 536.805 -83.4823C546.879 -82.943 557.2 -81.578 567.729 -79.4302C578.571 -77.1154 589.594 -74.1119 600.717 -70.4846C612.117 -66.7952 623.601 -62.6066 635.088 -57.9632C646.806 -53.4144 658.531 -48.4934 670.182 -43.2653C682.047 -38.215 693.859 -32.898 705.55 -27.3481C717.434 -22.018 729.238 -16.4534 740.909 -10.6666C752.754 -5.10048 764.474 0.73992 776.019 6.84223C787.695 12.7842 799.182 19.0599 810.438 25.6884C821.771 32.2269 832.798 39.1876 843.466 46.5996" stroke="white" stroke-opacity="0.05" stroke-linecap="round" stroke-dasharray="21 2"/>
<path opacity="0.44" d="M833.418 75.152C842.9 82.4951 851.65 90.0056 859.65 97.661C867.548 105.4 874.633 113.298 880.884 121.333C886.94 129.453 892.111 137.715 896.383 146.055C900.427 154.488 903.541 163.006 905.749 171.55C907.71 180.184 908.775 188.856 908.987 197.548C909.001 206.367 908.24 215.255 906.771 224.178C905.234 233.364 903.122 242.702 900.535 252.242C898.074 262.189 895.33 272.482 892.382 283.169C889.779 294.461 887.136 306.278 884.555 318.63C882.426 331.669 880.386 345.277 878.466 359.374C876.919 373.995 875.34 388.944 873.656 404.018C872.005 419.178 869.943 434.091 867.278 448.478C864.158 462.313 860.075 475.183 854.885 486.845C848.802 497.446 841.411 506.571 832.657 514.132C822.994 520.588 812.08 525.615 800.098 529.367C787.679 532.588 774.647 535.086 761.312 537.17C748.339 539.694 735.897 542.405 724.246 545.525C713.531 549.783 703.792 554.676 695.033 560.162C687.25 566.811 680.251 573.816 673.916 580.938C668.111 588.682 662.561 596.047 657.091 602.797C648.687 612.207 629.362 624.154 618.009 626.12C609.652 626.189 600.775 624.89 591.481 622.326C581.655 619.161 571.534 614.971 561.227 609.913C550.594 604.595 539.897 598.648 529.255 592.24C518.409 585.905 507.683 579.302 497.096 572.546C486.378 566.068 475.797 559.572 465.38 553.093C454.77 546.999 444.266 540.988 433.838 535.046C423.172 529.528 412.509 524.082 401.884 518.682C390.962 513.657 380.02 508.63 369.082 503.562C357.877 498.79 346.684 493.894 335.579 488.831C324.281 483.946 313.155 478.787 302.278 473.31C291.378 467.852 281.107 462.102 271.531 456.046C262.101 449.87 253.476 443.316 245.737 436.391C238.267 429.264 231.737 421.742 226.167 413.846C220.973 405.716 216.779 397.217 213.58 388.411C210.767 379.362 208.927 370.023 208.041 360.467C207.478 350.682 207.798 340.683 208.95 330.546C210.322 320.172 212.413 309.66 215.168 299.037C217.997 288.182 221.338 277.19 225.154 266.109C228.875 254.729 232.95 243.228 237.284 231.627C241.419 219.717 245.763 207.692 250.25 195.587C254.513 183.212 258.915 170.799 263.469 158.431C267.872 145.904 272.489 133.521 277.351 121.391C282.221 109.293 287.456 97.5933 293.127 86.4236C298.982 75.4999 305.386 65.2209 312.391 55.6953C319.691 46.5511 327.65 38.2074 336.244 30.6828C345.124 23.5283 354.605 17.1272 364.619 11.4418C374.743 5.89163 385.011 0.998563 395.316 -3.32035C405.494 -7.81766 415.581 -11.9192 425.493 -15.706C435.107 -19.8535 444.509 -23.7313 453.649 -27.3752C462.495 -31.4005 471.123 -35.1149 479.574 -38.4939C487.832 -42.1303 495.991 -45.2888 504.103 -47.9539C516.281 -51.6965 541.253 -55.6781 554.232 -55.7121C563.207 -55.306 572.377 -54.134 581.725 -52.2393C591.377 -50.1594 601.202 -47.4092 611.143 -44.0358C621.387 -40.5707 631.754 -36.5645 642.157 -32.0777C652.85 -27.5834 663.567 -22.6927 674.27 -17.4506C685.22 -12.2985 696.132 -6.84947 706.967 -1.14852C718.01 4.43784 728.969 10.2443 739.782 16.2853C750.774 22.1779 761.61 28.2939 772.226 34.6478C782.989 40.8811 793.508 47.3709 803.712 54.1203C813.993 60.8254 823.913 67.8273 833.409 75.1407" stroke="white" stroke-opacity="0.05" stroke-linecap="round" stroke-dasharray="8 2"/>
<path opacity="0.47" d="M818.834 98.6687C827.146 105.764 834.753 112.957 841.644 120.185C848.441 127.481 854.474 134.845 859.724 142.275C866.97 153.56 877.205 176.561 880.197 188.254C882.183 200.229 882.462 224.937 881.024 237.816C879.898 246.784 878.312 256.014 876.366 265.542C874.56 275.511 872.504 285.879 870.286 296.671C868.309 307.992 866.235 319.8 864.111 332.059C862.243 344.819 860.306 357.954 858.299 371.392C856.427 385.113 854.334 398.903 851.945 412.584C849.417 426.149 846.364 439.266 842.675 451.708C838.507 463.542 833.482 474.374 827.464 484.016C820.758 492.713 812.986 500.073 804.148 506.042C794.636 511.111 784.189 514.946 772.942 517.684C761.404 520.021 749.392 521.708 737.149 523.004C725.199 524.702 713.677 526.466 702.758 528.513C692.565 531.532 683.13 535.045 674.488 539.028C666.612 544.062 659.438 549.415 652.872 554.957C643.945 564.152 627.469 580.961 619.151 587.472C610.222 592.423 589.998 595.632 578.636 593.848C570.479 591.751 562 588.643 553.289 584.62C544.2 580.277 534.931 575.216 525.573 569.587C515.916 563.869 506.214 557.768 496.537 551.378C486.593 545.092 476.692 538.667 466.856 532.158C456.783 525.894 446.742 519.625 436.791 513.38C426.565 507.426 416.405 501.514 406.3 495.653C395.934 490.054 385.627 484.484 375.425 478.911C365 473.553 354.679 468.138 344.548 462.639C334.273 457.263 324.234 451.714 314.527 445.978C304.789 440.248 295.72 434.371 287.335 428.341C279.068 422.225 271.589 415.877 264.917 409.322C258.468 402.603 252.905 395.636 248.224 388.442C242.075 377.224 234.697 353.335 233.386 340.724C233.031 332.005 233.467 323.107 234.618 314.049C235.936 304.725 237.896 295.24 240.413 285.603C242.986 275.671 246.044 265.586 249.512 255.346C252.915 244.792 256.656 234.082 260.667 223.248C264.569 212.114 268.688 200.857 273.004 189.548C277.197 178.021 281.592 166.474 286.19 155.031C290.731 143.486 295.544 132.139 300.645 121.089C305.802 110.142 311.342 99.6212 317.298 89.646C323.44 79.9509 330.096 70.9113 337.264 62.6001C344.696 54.6752 352.686 47.5173 361.2 41.1522C369.963 35.1294 379.221 29.8115 388.911 25.2092C398.695 20.7367 408.578 16.8964 418.463 13.5789C428.262 10.1433 437.942 7.06535 447.457 4.30632C456.761 1.23187 465.83 -1.61801 474.657 -4.25518C487.416 -8.6367 511.604 -16.5217 523.202 -19.7687C534.652 -22.7987 557.655 -26.1355 569.388 -26.247C577.439 -26.0067 585.615 -25.0988 593.908 -23.5351C602.453 -21.8481 611.15 -19.5312 619.949 -16.6024C629.036 -13.5762 638.227 -10.0113 647.475 -5.94611C657 -1.84789 666.58 2.69789 676.175 7.61187C686.001 12.5203 695.817 17.7615 705.579 23.2765C715.547 28.7505 725.443 34.4747 735.188 40.4363C745.123 46.3129 754.877 52.4118 764.421 58.7181C774.1 64.962 783.504 71.4241 792.585 78.0861C801.733 84.7169 810.501 91.5702 818.825 98.6568" stroke="white" stroke-opacity="0.05" stroke-linecap="round" stroke-dasharray="16 6"/>
<path opacity="0.7" d="M802.027 119.019C809.237 125.79 815.802 132.609 821.727 139.459C830.159 149.835 843.465 170.909 848.33 181.649C852.321 192.62 856.9 215.291 857.637 227.085C857.897 235.246 857.648 243.614 856.953 252.232C856.277 261.151 855.235 270.392 853.879 279.955C852.598 289.904 851.088 300.226 849.369 310.925C847.764 322.019 845.988 333.466 844.052 345.207C842.188 357.248 840.143 369.492 837.857 381.822C835.55 394.2 832.897 406.47 829.835 418.43C826.568 430.123 822.735 441.26 818.271 451.656C813.385 461.422 807.745 470.231 801.291 477.933C794.303 484.831 786.485 490.545 777.837 495.074C768.724 498.878 758.915 501.653 748.52 503.487C737.93 505.046 726.998 506.045 715.874 506.663C704.958 507.634 694.404 508.598 684.295 509.745C674.719 511.694 665.733 513.993 657.385 516.664C646.018 522.175 626.596 535.218 618.084 541.985C610.021 548.776 593.881 559.122 585.398 562.07C576.289 563.529 556.265 560.961 545.364 557.116C537.674 553.95 529.775 550.051 521.729 545.519C513.369 540.822 504.884 535.634 496.325 530.06C487.475 524.464 478.577 518.604 469.657 512.55C460.493 506.6 451.311 500.541 442.166 494.406C432.776 488.428 423.417 482.447 414.129 476.439C404.618 470.625 395.177 464.784 385.893 458.946C376.409 453.255 367.071 447.521 357.977 441.735C348.768 436.04 339.824 430.244 331.238 424.305C322.637 418.393 314.659 412.428 307.339 406.405C300.11 400.307 293.598 394.111 287.83 387.803C279.829 378.071 268.051 357.646 264.303 346.918C261.64 335.718 260.252 312.127 261.356 299.74C262.419 291.18 264.052 282.428 266.186 273.51C268.369 264.317 271.006 254.938 274.013 245.408C277.017 235.601 280.351 225.635 283.996 215.556C287.568 205.229 291.42 194.826 295.52 184.403C299.578 173.833 303.89 163.309 308.48 152.918C313.061 142.515 317.951 132.349 323.158 122.516C328.481 112.835 334.168 103.613 340.255 94.9334C346.523 86.5362 353.234 78.7743 360.402 71.725C367.792 65.0198 375.647 59.0394 383.954 53.7918C392.447 48.8592 401.342 44.6058 410.594 40.9905C419.944 37.5023 429.334 34.6143 438.71 32.2201C448.024 29.7277 457.238 27.594 466.298 25.733C475.192 23.614 483.879 21.7143 492.357 20.0013C504.652 17.0174 527.956 11.6149 539.076 9.36818C549.956 7.15381 571.464 4.65669 582.219 4.5705C593.199 5.05114 615.789 8.88665 627.419 12.246C635.424 14.7409 643.509 17.7395 651.646 21.225C660.026 24.7632 668.434 28.7515 676.864 33.1249C685.52 37.5265 694.154 42.272 702.746 47.357C711.524 52.4087 720.237 57.7631 728.824 63.3542C737.566 68.9156 746.157 74.7296 754.526 80.7382C763.018 86.7205 771.25 92.9212 779.18 99.2989C787.174 105.67 794.796 112.245 802.019 119.007" stroke="white" stroke-opacity="0.05" stroke-linecap="round" stroke-dasharray="14 18"/>
<path opacity="0.35" d="M784.887 138.715C793.884 148.347 809.072 167.983 815.204 178.002C822.753 191.613 828.009 205.676 831.155 220.187C833.993 235.34 834.936 251.324 834.282 268.221C833.613 286.165 831.643 305.31 828.644 325.485C825.725 346.637 821.725 368.429 816.557 390.108C810.92 411.431 803.499 431.277 793.988 448.479C783.055 463.415 769.536 474.646 753.512 481.775C744.993 484.469 735.957 486.331 726.485 487.416C716.906 488.311 707.067 488.715 697.075 488.786C687.221 489.132 677.645 489.438 668.428 489.844C659.568 490.887 651.158 492.163 643.225 493.724C628.611 499.072 615.693 505.142 604.189 511.255C593.396 518.693 582.976 524.498 572.586 527.975C561.582 530.776 549.943 530.449 537.676 527.127C524.285 522.76 510.195 515.806 495.682 506.879C480.061 497.619 464.13 487.06 448.187 475.737C431.304 464.708 414.537 453.229 398.255 441.511C389.873 435.804 381.643 430.011 373.653 424.167C365.554 418.368 357.739 412.477 350.251 406.485C342.739 400.507 335.807 394.52 329.463 388.506C323.182 382.455 317.533 376.335 312.535 370.183C302.922 357.547 296.047 344.479 291.819 330.994C288.238 316.812 287.188 302.01 288.4 286.641C290.018 270.357 293.558 253.379 298.687 235.892C303.912 217.531 310.47 198.773 318.207 180.055C326.008 161.034 335.06 142.599 345.357 125.458C356.113 109.013 368.389 94.5276 382.199 82.5635C389.38 77.0715 396.945 72.2343 404.882 68.0589C412.963 64.1707 421.381 60.8808 430.102 58.1907C438.888 55.6151 447.706 53.574 456.494 51.9855C465.233 50.3405 473.903 49.0191 482.416 47.9864C499.094 45.1796 515.09 43.1249 530.246 41.6926C544.881 39.0956 558.945 37.3892 572.5 36.7731C586.027 35.6025 599.455 36.0123 612.834 38.124C626.686 40.2718 640.739 44.2991 654.865 50.0944C669.686 56.0523 684.61 63.6264 699.333 72.57C714.699 81.5544 729.735 91.7118 744.067 102.851C751.369 108.395 758.46 114.158 765.273 120.143C772.132 126.12 778.687 132.301 784.88 138.702" stroke="white" stroke-opacity="0.05" stroke-linecap="round" stroke-dasharray="25 13"/>
<path opacity="0.89" d="M768.383 160.041C778.874 172.081 787.525 184.612 794.344 197.515C800.913 210.637 805.62 224.373 808.611 238.686C811.348 253.511 812.482 269.182 812.198 285.641C811.77 302.804 810.059 320.835 807.16 339.395C804.082 358.352 799.722 377.347 794.006 395.656C787.689 413.233 779.648 429.069 769.746 442.351C758.774 453.67 745.752 461.846 730.84 466.638C715.14 469.882 698.095 470.728 680.284 469.868C662.9 469.921 646.477 470.009 631.392 470.713C617.47 473.773 604.849 477.434 593.4 481.271C582.61 486.558 572.338 490.877 562.357 493.691C552.116 496.404 541.604 496.862 530.785 494.953C519.182 492.369 507.061 487.52 494.614 480.736C481.245 473.556 467.564 464.904 453.83 455.141C439.324 445.428 424.886 434.953 410.858 423.92C396.331 413.097 382.47 401.74 369.711 389.911C356.873 378.12 346.067 366.2 337.391 354.152C329.071 341.834 323.02 329.142 319.2 316.127C315.842 302.561 314.639 288.451 315.373 273.883C316.487 258.628 319.33 242.823 323.692 226.701C328.268 210.019 334.237 193.195 341.444 176.646C348.886 160.079 357.632 144.29 367.618 129.846C378.073 116.165 389.925 104.353 403.098 94.8204C416.827 86.3974 431.833 80.2275 447.898 76.3347C464.187 72.8687 480.44 71.0936 496.326 70.5357C511.907 69.2825 526.951 68.7288 541.291 68.7293C555.244 67.6679 568.653 67.293 581.526 67.6829C594.309 67.3862 606.863 68.2561 619.163 70.4031C631.758 72.3573 644.357 75.82 656.855 80.7769C669.844 85.7391 682.796 92.1962 695.5 99.9762C708.668 107.774 721.502 116.79 733.725 126.883C746.202 136.933 757.859 148 768.377 160.027" stroke="white" stroke-opacity="0.05" stroke-linecap="round" stroke-dasharray="22 19"/>
<path opacity="0.88" d="M752.395 184.14C761.184 195.38 768.463 207.248 774.254 219.608C779.851 232.145 783.916 245.335 786.527 259.098C788.918 273.205 789.901 287.994 789.576 303.327C789.036 319.018 787.216 335.13 784.162 351.314C780.789 367.456 776.098 383.166 770.026 397.838C763.408 411.615 755.234 423.666 745.501 433.378C735.03 441.546 722.965 447.136 709.491 450.022C695.552 451.869 680.581 451.804 664.996 450.303C649.695 449.522 635.04 448.583 621.319 447.951C608.342 449.144 596.311 450.75 585.184 452.55C574.557 455.706 564.472 458.337 554.783 460.06C545.02 462.098 535.254 462.572 525.429 461.347C515.115 459.819 504.529 456.459 493.773 451.399C482.37 446.038 470.744 439.19 459.111 431.11C446.886 422.976 434.745 413.827 422.994 403.867C410.843 394.01 399.262 383.395 388.605 372.11C377.907 360.842 368.862 349.329 361.572 337.624C354.529 325.753 349.357 313.514 346.006 300.976C343.019 288.097 341.831 274.754 342.321 261.108C343.149 247.021 345.536 232.617 349.352 218.109C353.44 203.345 358.889 188.696 365.58 174.525C372.584 160.572 380.842 147.505 390.295 135.791C400.155 124.825 411.244 115.561 423.498 108.296C436.132 101.947 449.868 97.5604 464.482 95.1324C479.267 93.0763 494.032 92.5307 508.511 93.0846C522.809 93.1284 536.713 93.8583 550.057 95.1058C563.148 95.4781 575.777 96.3748 587.902 97.8451C599.925 98.6146 611.655 100.201 623.032 102.726C634.57 104.915 645.95 108.245 657.084 112.768C668.533 117.176 679.81 122.842 690.781 129.711C702.036 136.54 712.946 144.557 723.27 153.671C733.767 162.746 743.56 172.903 752.395 184.14Z" stroke="white" stroke-opacity="0.05" stroke-linecap="round" stroke-dasharray="9 21"/>
<path opacity="0.78" d="M735.937 210.52C743.172 220.893 749.146 231.907 753.857 243.423C758.436 255.047 761.702 267.253 763.727 279.891C765.547 292.693 766.117 305.947 765.489 319.402C764.613 332.944 762.528 346.52 759.252 359.785C755.657 372.759 750.807 385.011 744.73 396.099C738.208 406.351 730.37 415.006 721.282 421.67C711.713 427.217 700.951 430.722 689.127 432.155C677.044 432.935 664.151 432.188 650.738 430.263C637.504 428.893 624.658 427.218 612.427 425.622C600.644 425.354 589.487 425.286 578.992 425.343C568.827 426.567 559.107 427.514 549.798 427.914C540.502 428.836 531.335 428.754 522.286 427.502C512.965 426.268 503.583 423.664 494.215 419.678C484.415 415.565 474.561 410.141 464.796 403.51C454.637 396.816 444.612 389.039 434.971 380.324C425.044 371.632 415.626 362.051 406.987 351.641C398.306 341.246 390.992 330.468 385.091 319.444C379.374 308.325 375.167 296.834 372.438 285.106C369.998 273.185 369.059 260.957 369.549 248.57C370.332 236.004 372.494 223.313 375.937 210.748C379.671 198.174 384.655 185.906 390.808 174.282C397.247 162.991 404.862 152.636 413.552 143.544C422.556 135.132 432.647 128.196 443.694 122.984C455.024 118.492 467.263 115.632 480.278 114.465C493.393 113.587 506.518 114.021 519.448 115.45C532.272 116.53 544.837 118.288 556.998 120.526C568.993 122.111 580.639 124.159 591.834 126.641C602.956 128.516 613.772 130.976 624.209 134.125C634.719 136.862 644.982 140.443 654.912 144.928C665.005 149.218 674.843 154.508 684.295 160.815C693.91 167.018 703.139 174.284 711.786 182.588C720.539 190.839 728.656 200.147 735.937 210.52Z" stroke="white" stroke-opacity="0.05" stroke-linecap="round" stroke-dasharray="20 3"/>
<path opacity="0.7" d="M717.795 237.073C723.598 246.445 728.291 256.344 731.918 266.606C735.441 276.928 737.842 287.63 739.156 298.564C740.322 309.51 740.37 320.637 739.363 331.684C738.144 342.624 735.826 353.33 732.456 363.485C728.83 373.272 724.122 382.243 718.366 390.085C712.329 397.264 705.226 403.09 697.141 407.329C688.798 410.821 679.527 412.755 669.467 413.138C659.271 413.149 648.435 411.976 637.125 409.83C625.923 408.063 614.922 405.935 604.3 403.699C593.923 402.381 583.916 401.079 574.355 399.802C564.982 399.398 555.954 398.819 547.256 397.905C538.592 397.541 530.114 396.549 521.85 394.813C513.44 393.255 505.119 390.73 496.944 387.223C488.528 383.724 480.193 379.169 472.065 373.585C463.693 367.994 455.551 361.396 447.802 353.883C439.872 346.375 432.431 337.97 425.662 328.721C418.864 319.481 413.19 309.815 408.68 299.864C404.268 289.885 401.09 279.601 399.121 269.141C397.35 258.625 396.819 247.939 397.473 237.25C398.367 226.554 400.432 215.92 403.629 205.587C407.047 195.388 411.578 185.632 417.126 176.574C422.898 167.878 429.698 160.073 437.426 153.401C445.374 147.289 454.218 142.41 463.88 138.968C473.722 136.052 484.326 134.483 495.57 134.311C506.895 134.374 518.263 135.547 529.494 137.579C540.688 139.425 551.711 141.895 562.452 144.871C573.117 147.367 583.517 150.319 593.549 153.632C603.556 156.482 613.266 159.781 622.63 163.573C632.01 166.996 641.109 171.03 649.831 175.717C658.642 180.181 667.123 185.408 675.176 191.423C683.327 197.305 691.041 204.054 698.18 211.665C705.382 219.228 711.975 227.692 717.795 237.073Z" stroke="white" stroke-opacity="0.05" stroke-linecap="round" stroke-dasharray="9 9"/>
<path opacity="0.89" d="M697.071 260.69C705.953 277.102 710.998 294.693 712.404 312.327C713.378 329.832 710.548 346.773 704.236 361.494C697.295 374.994 686.801 385.078 673.284 390.418C659.267 394.044 642.539 393.395 623.957 388.895C605.626 385.461 587.693 380.787 570.923 375.825C554.52 373.265 538.853 369.705 524.294 364.598C509.439 360.454 495.116 353.576 482.007 343.737C468.307 333.999 455.833 321.088 445.721 305.262C435.519 289.441 429.167 272.229 426.638 254.724C424.621 237.301 426.635 219.852 432.343 203.754C438.68 188.4 448.641 175.233 461.715 165.729C475.289 157.805 491.784 153.959 510.512 154.793C529.397 156.34 548.459 161.183 566.721 168.087C584.863 173.911 602.32 181.367 618.409 190.143C634.577 197.854 649.661 207.495 662.936 219.167C676.407 230.436 688.115 244.279 697.071 260.69Z" stroke="white" stroke-opacity="0.05" stroke-linecap="round" stroke-dasharray="2 2"/>
<path opacity="0.2" d="M673.623 278.276C680.097 291.906 683.38 305.738 683.748 318.914C683.863 331.893 680.961 343.76 675.352 353.413C669.426 362.289 660.822 368.386 649.977 371.028C638.925 372.83 625.824 371.544 611.22 367.336C596.722 363.791 582.263 358.834 568.5 353.233C554.868 349.091 541.706 344.015 529.511 337.956C517.174 332.674 505.523 325.67 495.155 316.805C484.515 308.086 475.153 297.196 467.951 284.288C460.676 271.378 456.514 257.687 455.348 244.151C454.444 230.766 456.671 217.825 461.742 206.38C467.178 195.556 475.417 186.723 486.039 180.85C496.94 175.981 510.09 174.257 525.011 176.108C540.023 178.432 555.249 183.473 569.946 190.284C584.619 196.581 598.805 204.361 611.876 213.207C624.997 221.44 637.137 231.027 647.598 241.859C658.182 252.435 667.118 264.635 673.623 278.276Z" stroke="white" stroke-opacity="0.05" stroke-linecap="round" stroke-dasharray="11 8"/>
<path opacity="0.29" d="M648.118 287.707C652.446 298.204 654.363 308.225 654.108 317.216C652.492 329.896 638.879 346.584 627.573 349.291C619.441 349.991 609.831 348.551 599.065 344.952C588.323 341.732 577.488 337.157 567.06 331.808C556.645 327.176 546.526 321.692 537.189 315.514C527.767 309.814 519.002 303.05 511.43 295.315C503.71 287.712 497.187 278.873 492.437 268.991C487.643 259.113 485.216 249.129 484.994 239.628C485.937 225.945 498.657 204.753 509.85 199.02C517.984 196.441 527.741 196.136 538.813 198.398C549.915 200.965 561.207 205.567 572.159 211.598C583.093 217.454 593.714 224.575 603.463 232.516C613.23 240.192 622.197 248.814 629.805 258.072C637.46 267.222 643.762 277.213 648.118 287.707Z" stroke="white" stroke-opacity="0.05" stroke-linecap="round" stroke-dasharray="4 26"/>
<path opacity="0.67" d="M621.713 288.601C626.086 308.455 607.494 326.716 587.863 321.625C573.781 316.816 559.208 307.906 546.862 297.355C534.372 287.584 523.908 275.202 518.484 261.705C513.015 248.224 513.874 236.132 519.793 228.04C525.883 220.54 536.979 217.816 551.436 221.82C565.93 226.35 580.965 236.176 593.594 248.279C606.272 260.131 616.639 274.403 621.713 288.601Z" stroke="white" stroke-opacity="0.05" stroke-linecap="round" stroke-dasharray="24 3"/>
</g>
<defs>
<clipPath id="clip0_603_23995">
<rect width="1520" height="1526" fill="white" transform="translate(-179 -469)"/>
</clipPath>
</defs>
</svg>
