<svg width="1291" height="561" viewBox="0 0 1291 561" fill="none" xmlns="http://www.w3.org/2000/svg">
<g clip-path="url(#clip0_603_23479)">
<path opacity="0.91" d="M751.485 -438.319C763.91 -439.779 776.394 -440.889 788.936 -441.619C801.478 -442.261 814.063 -442.495 826.722 -442.32C839.381 -441.998 852.098 -441.225 864.844 -439.998C877.62 -438.597 890.41 -436.742 903.244 -434.421C916.049 -431.924 928.868 -428.975 941.658 -425.573C954.419 -422.01 967.122 -418.024 979.722 -413.629C992.22 -409.103 1004.59 -404.197 1016.73 -398.941C1028.72 -393.597 1040.42 -387.932 1051.79 -381.975C1062.9 -375.989 1073.59 -369.74 1083.81 -363.272C1093.68 -356.819 1102.99 -350.175 1111.71 -343.357C1120.05 -336.611 1127.76 -329.72 1134.82 -322.712C1141.53 -315.805 1147.64 -308.797 1153.18 -301.716C1160.99 -291.233 1175 -270.091 1181.91 -259.462C1186.99 -252.497 1192.39 -245.445 1198.26 -238.32C1204.98 -231.326 1212.4 -224.245 1220.65 -217.062C1229.93 -209.98 1240.14 -202.797 1251.22 -195.482C1263.27 -188.255 1276.03 -180.896 1289.37 -173.377C1303.17 -165.93 1317.08 -158.309 1330.87 -150.527C1344.3 -142.774 1356.97 -134.846 1368.58 -126.713C1378.99 -118.595 1387.82 -110.287 1394.86 -101.775C1400.2 -93.2631 1403.58 -84.532 1405.02 -75.5964C1404.99 -66.6462 1403.39 -57.4916 1400.53 -48.1326C1397.15 -38.7445 1393.36 -29.1519 1389.6 -19.3695C1386.74 -9.55788 1384.86 0.458126 1384.36 10.6493C1385.9 20.8698 1389.34 31.28 1394.82 41.8362C1402.47 52.4363 1411.88 63.1969 1422.72 74.1036C1434.68 85.0248 1447.03 96.1067 1459.13 107.305C1470.55 118.519 1480.43 129.863 1488.22 141.325C1493.71 152.801 1496.35 164.365 1495.98 176.045C1493.02 187.725 1487.37 199.494 1479.47 211.349C1470.27 223.205 1460.13 235.134 1449.79 247.15C1440.39 259.152 1432.36 271.095 1426.27 282.951C1422.72 294.821 1421.64 306.603 1422.98 318.328C1426.84 330.037 1432.49 341.689 1439.41 353.267C1447.31 364.86 1455.18 376.38 1462.33 387.856C1468.51 399.346 1472.81 410.779 1474.84 422.167C1474.65 433.614 1471.81 445.003 1466.35 456.376C1458.72 467.809 1449 479.226 1437.58 490.629C1425.16 502.12 1412.03 513.611 1398.77 525.131C1385.98 536.724 1373.97 548.36 1363.09 560.041C1353.77 571.809 1346.04 583.635 1339.92 595.491C1335.61 607.478 1332.75 619.509 1331.13 631.584C1330.76 643.761 1331.06 655.981 1331.65 668.217C1332.56 680.539 1333.11 692.877 1333 705.2C1332.3 717.567 1330.44 729.889 1327.3 742.11C1323.04 754.331 1317.33 766.42 1310.21 778.334C1301.9 790.132 1292.29 801.71 1281.55 812.996C1269.94 824.093 1257.48 834.809 1244.42 845.132C1230.94 855.148 1217.16 864.668 1203.27 873.647C1189.43 882.232 1175.73 890.219 1162.3 897.534C1149.22 904.381 1136.55 910.543 1124.3 915.96C1112.54 920.895 1101.24 925.07 1090.37 928.487C1080 931.451 1069.98 933.685 1060.26 935.218C1050.94 936.371 1041.83 936.882 1032.84 936.824C1024.12 936.546 1015.42 935.802 1006.67 934.663C998.089 933.539 989.373 932.166 980.481 930.633C971.648 929.348 962.595 928.078 953.28 926.91C943.965 926.224 934.372 925.815 924.502 925.713C914.589 926.311 904.383 927.348 893.899 928.866C883.372 931.188 872.553 934.05 861.472 937.437C850.361 941.627 838.987 946.314 827.365 951.439C815.728 957.235 803.858 963.353 791.768 969.704C779.664 976.45 767.371 983.239 754.873 989.926C742.374 996.672 729.833 1003.01 717.276 1008.82C704.734 1014.34 692.178 1019.1 679.621 1023.03C667.065 1026.37 654.523 1028.73 642.01 1030.08C629.497 1030.66 617.028 1030.14 604.589 1028.53C592.193 1026.12 579.841 1022.63 567.562 1018.12C555.326 1012.88 543.178 1006.7 531.133 999.65C519.146 992.058 507.29 983.75 495.595 974.815C483.988 965.558 472.541 955.834 461.298 945.774C450.173 935.597 439.266 925.246 428.593 914.777C418.051 904.44 407.773 894.132 397.757 883.911C387.872 873.997 378.25 864.273 368.906 854.768C359.678 845.687 350.699 836.883 341.982 828.356C333.309 820.296 324.856 812.543 316.606 805.053C308.342 798.016 300.239 791.241 292.267 784.686C284.208 778.539 276.25 772.552 268.366 766.683C260.35 761.149 252.408 755.674 244.509 750.228C236.478 745.001 228.506 739.73 220.622 734.357C212.636 729.13 204.78 723.757 197.071 718.18C189.333 712.675 181.814 706.937 174.513 700.922C167.271 694.906 160.322 688.599 153.649 681.985C147.064 675.312 140.786 668.304 134.829 660.96C128.93 653.543 123.309 645.775 117.951 637.658C112.592 629.467 107.467 620.925 102.532 612.063C97.5536 603.098 92.75 593.812 88.1216 584.234C83.4348 574.568 78.9378 564.611 74.6453 554.39C70.3527 544.082 66.3229 533.526 62.5998 522.736C58.9496 511.888 55.6645 500.821 52.759 489.549C49.9702 478.248 47.5904 466.743 45.5901 455.077C43.6628 443.382 42.0859 431.526 40.8157 419.525C39.5016 407.508 38.4066 395.361 37.5013 383.096C36.4647 370.817 35.5595 358.436 34.7856 345.938C33.8512 333.439 33.0773 320.854 32.5225 308.166C31.9093 295.492 31.5881 282.863 31.6319 270.306C31.7633 257.75 32.3181 245.266 33.3256 232.841C34.4936 220.416 36.1143 208.064 38.173 195.785C40.3339 183.506 42.8744 171.285 45.7361 159.137C48.6124 146.975 51.7223 134.886 55.0366 122.855C58.278 110.824 61.6653 98.8516 65.2279 86.9375C68.6882 75.0088 72.3238 63.1531 76.1637 51.3558C79.9453 39.5439 83.9896 27.7904 88.2968 16.1246C92.6332 4.42949 97.2762 -7.20717 102.24 -18.7562C107.263 -30.3199 112.607 -41.796 118.228 -53.1845C123.908 -64.5729 129.836 -75.8738 135.997 -87.0579C142.115 -98.2419 148.422 -109.295 154.89 -120.216C161.271 -131.108 167.768 -141.854 174.397 -152.425C180.938 -162.952 187.61 -173.304 194.429 -183.436C201.189 -193.496 208.139 -203.337 215.293 -212.944C222.476 -222.435 229.908 -231.677 237.617 -240.642C245.443 -249.475 253.561 -258.016 262 -266.236C270.6 -274.325 279.506 -282.078 288.734 -289.495C298.107 -296.766 307.773 -303.687 317.716 -310.243C327.761 -316.667 338.04 -322.741 348.523 -328.45C359.065 -334.042 369.753 -339.283 380.572 -344.189C391.361 -348.993 402.268 -353.475 413.233 -357.651C424.14 -361.768 435.09 -365.594 446.099 -369.156C456.991 -372.719 467.927 -376.033 478.892 -379.128C489.74 -382.267 500.647 -385.217 511.583 -387.991C522.416 -390.867 533.323 -393.583 544.274 -396.167C555.151 -398.897 566.116 -401.511 577.169 -404.008C588.148 -406.68 599.245 -409.235 610.458 -411.702C621.628 -414.33 632.928 -416.856 644.375 -419.265C655.793 -421.82 667.357 -424.244 679.095 -426.507C690.805 -428.887 702.69 -431.077 714.75 -433.048C726.796 -435.078 739.031 -436.844 751.471 -438.319" stroke="black" stroke-opacity="0.07" stroke-linecap="round" stroke-dasharray="19 2"/>
<path opacity="0.36" d="M800.884 -410.845C813.1 -411.633 825.309 -412.069 837.511 -412.14C849.723 -412.138 861.913 -411.742 874.063 -410.938C886.221 -410.003 898.338 -408.631 910.415 -406.823C922.452 -404.842 934.435 -402.425 946.319 -399.575C958.162 -396.537 969.877 -393.054 981.452 -389.169C992.927 -385.1 1004.22 -380.632 1015.27 -375.784C1026.19 -370.797 1036.83 -365.446 1047.13 -359.779C1057.25 -354.005 1066.98 -347.947 1076.29 -341.607C1085.35 -335.238 1093.94 -328.633 1102.04 -321.823C1109.86 -315.03 1117.17 -308.061 1123.95 -300.934C1130.48 -293.88 1136.52 -286.709 1142.09 -279.448C1147.55 -272.253 1152.63 -264.977 1157.41 -257.631C1162.26 -250.383 1166.99 -243.07 1171.7 -235.669C1176.76 -228.395 1182.02 -221.036 1187.57 -213.586C1193.78 -206.243 1200.51 -198.797 1207.85 -191.243C1216.04 -183.769 1224.96 -176.179 1234.63 -168.458C1245.15 -160.803 1256.36 -153.02 1268.18 -145.084C1280.57 -137.232 1293.3 -129.228 1306.14 -121.1C1319.01 -113.044 1331.53 -104.862 1343.47 -96.5678C1354.7 -88.374 1364.85 -80.0979 1373.67 -71.7096C1381.17 -63.4577 1387.03 -55.1124 1391.12 -46.6953C1393.73 -38.3802 1394.64 -29.9753 1393.95 -21.489C1392.23 -13.0637 1389.38 -4.49958 1385.77 4.19483C1382.13 12.9021 1378.48 21.7843 1375.26 30.8971C1373.2 40.0923 1372.32 49.5329 1372.91 59.235C1375.46 69.0821 1379.76 79.1934 1385.86 89.6007C1393.8 100.116 1403.12 110.874 1413.48 121.854C1424.57 132.891 1435.72 144.078 1446.33 155.38C1456.06 166.645 1464.19 177.947 1470.22 189.257C1474.07 200.438 1475.25 211.58 1473.68 222.676C1469.77 233.649 1463.48 244.585 1455.17 255.504C1445.74 266.371 1435.48 277.277 1425.03 288.275C1415.46 299.324 1407.1 310.401 1400.44 321.549C1396.09 332.818 1393.95 344.173 1394.03 355.63C1396.44 367.223 1400.58 378.876 1406 390.574C1412.51 402.336 1419.18 414.094 1425.44 425.783C1431.06 437.463 1435.18 449.026 1437.4 460.463C1437.72 471.831 1435.69 483.047 1431.23 494.105C1424.72 505.1 1416.07 515.984 1405.62 526.762C1393.9 537.539 1381.17 548.27 1367.88 558.999C1354.61 569.801 1341.66 580.651 1329.39 591.57C1318.25 602.63 1308.32 613.804 1299.76 625.088C1292.81 636.555 1287.27 648.12 1283.03 659.776C1280.17 671.572 1278.24 683.437 1276.99 695.312C1276.43 707.272 1275.96 719.194 1275.34 731.048C1274.58 742.88 1273.16 754.57 1270.86 766.077C1267.83 777.453 1263.64 788.585 1258.25 799.427C1251.84 810.049 1244.2 820.32 1235.4 830.186C1225.68 839.778 1214.95 848.902 1203.39 857.523C1191.18 865.814 1178.4 873.558 1165.21 880.723C1151.76 887.493 1138.16 893.654 1124.53 899.184C1110.99 904.281 1097.62 908.73 1084.49 912.505C1071.67 915.875 1059.18 918.576 1047.05 920.626C1035.32 922.305 1023.95 923.376 1012.94 923.839C1002.33 924.047 992.005 923.732 981.945 922.935C972.184 922.038 962.605 920.772 953.147 919.206C943.904 917.711 934.684 916.056 925.457 914.299C916.357 912.842 907.153 911.422 897.84 910.128C888.555 909.332 879.096 908.775 869.428 908.528C859.752 908.923 849.847 909.729 839.682 910.959C829.489 912.933 819.02 915.358 808.304 918.252C797.533 921.845 786.488 925.86 775.216 930.257C763.88 935.235 752.309 940.477 740.523 945.896C728.702 951.665 716.676 957.436 704.452 963.093C692.24 968.809 679.992 974.128 667.758 978.951C655.54 983.511 643.348 987.386 631.187 990.487C619.084 993.094 607.035 994.783 595.085 995.542C583.19 995.617 571.397 994.688 559.723 992.757C548.134 990.1 536.678 986.442 525.382 981.813C514.183 976.517 503.14 970.324 492.29 963.323C481.561 955.773 471.019 947.517 460.688 938.66C450.467 929.428 440.478 919.743 430.731 909.662C421.095 899.441 411.692 888.971 402.548 878.341C393.503 867.775 384.693 857.179 376.146 846.598C367.658 836.255 359.412 826.014 351.376 815.946C343.363 806.216 335.558 796.703 327.913 787.433C320.245 778.557 312.709 769.938 305.304 761.56C297.787 753.599 290.373 745.879 283.005 738.366C275.498 731.24 268.038 724.292 260.615 717.478C253.025 711.005 245.46 704.607 237.949 698.285C230.292 692.203 222.708 686.125 215.228 680.025C207.65 674.094 200.223 668.084 192.963 661.967C185.712 655.938 178.69 649.762 171.941 643.412C165.248 637.109 158.86 630.59 152.779 623.825C146.8 617.082 141.172 610.066 135.838 602.79C130.579 595.475 125.615 587.884 120.945 580.003C116.293 572.08 111.878 563.849 107.699 555.339C103.48 546.754 99.4546 537.873 95.6493 528.727C91.7892 519.52 88.1357 510.032 84.7017 500.293C81.2574 490.481 78.0755 480.436 75.1697 470.173C72.3111 459.854 69.7868 449.321 67.5953 438.603C65.4791 427.845 63.7102 416.903 62.3023 405.792C60.9536 394.67 59.9075 383.376 59.1624 371.939C58.4044 360.471 57.8882 348.872 57.5992 337.139C57.2081 325.401 57.0298 313.529 57.0186 301.55C56.9208 289.551 57.0339 277.447 57.3726 265.24C57.6821 253.031 58.2959 240.869 59.2279 228.77C60.2035 216.673 61.5556 204.642 63.2986 192.679C65.129 180.72 67.3505 168.828 69.9474 157.017C72.6026 145.21 75.5914 133.451 78.8674 121.782C82.1588 110.1 85.68 98.4896 89.4163 86.9504C93.1099 75.3941 96.9903 63.8926 101.056 52.4752C105.064 41.0398 109.273 29.6747 113.696 18.3954C118.105 7.10057 122.774 -4.12047 127.7 -15.2532C132.656 -26.3842 137.913 -37.4242 143.457 -48.3597C149.073 -59.2909 154.962 -70.1183 161.136 -80.8411C167.324 -91.5338 173.753 -102.11 180.38 -112.558C186.974 -122.963 193.737 -133.242 200.637 -143.366C207.432 -153.438 214.348 -163.342 221.356 -173.065C228.243 -182.722 235.236 -192.183 242.317 -201.419C249.321 -210.572 256.458 -219.497 263.754 -228.15C271.015 -236.703 278.478 -244.966 286.158 -252.938C293.904 -260.789 301.909 -268.318 310.173 -275.525C318.56 -282.593 327.249 -289.321 336.225 -295.695C345.338 -301.931 354.753 -307.812 364.439 -313.34C374.248 -318.73 384.315 -323.768 394.609 -328.442C405 -333.022 415.576 -337.269 426.323 -341.2C437.11 -345.04 448.039 -348.579 459.053 -351.821C470.081 -355.048 481.165 -357.993 492.323 -360.7C503.438 -363.424 514.599 -365.926 525.805 -368.205C536.929 -370.578 548.101 -372.772 559.292 -374.804C570.417 -376.957 581.578 -378.962 592.776 -380.847C603.909 -382.883 615.109 -384.812 626.347 -386.636C637.55 -388.624 648.808 -390.535 660.16 -392.324C671.465 -394.291 682.866 -396.15 694.361 -397.886C705.852 -399.783 717.436 -401.529 729.143 -403.121C740.841 -404.816 752.66 -406.329 764.612 -407.614C776.568 -408.972 788.64 -410.06 800.87 -410.846" stroke="black" stroke-opacity="0.07" stroke-linecap="round" stroke-dasharray="13 16"/>
<path opacity="0.88" d="M842.997 -380.609C854.878 -380.748 866.676 -380.559 878.392 -380.042C890.082 -379.44 901.685 -378.465 913.154 -377.11C924.608 -375.624 935.912 -373.743 947.08 -371.453C958.183 -368.994 969.123 -366.143 979.864 -362.859C990.529 -359.422 1000.95 -355.573 1011.13 -351.328C1021.18 -346.934 1030.95 -342.163 1040.4 -337.032C1049.69 -331.774 1058.63 -326.189 1067.18 -320.297C1075.57 -314.306 1083.53 -308.043 1091.07 -301.535C1098.43 -294.991 1105.35 -288.219 1111.83 -281.263C1118.18 -274.293 1124.1 -267.168 1129.66 -259.911C1135.14 -252.676 1140.33 -245.315 1145.25 -237.838C1150.27 -230.422 1155.14 -222.907 1159.98 -215.279C1165.11 -207.718 1170.35 -200.056 1175.8 -192.296C1181.75 -184.579 1188.08 -176.76 1194.86 -168.814C1202.32 -160.919 1210.34 -152.884 1218.94 -144.707C1228.29 -136.59 1238.22 -128.329 1248.69 -119.917C1259.73 -111.569 1271.17 -103.087 1282.84 -94.5034C1294.71 -85.9843 1306.5 -77.3868 1318.02 -68.7186C1329.17 -60.1675 1339.64 -51.5937 1349.19 -42.9956C1357.81 -34.5815 1365.18 -26.168 1371.13 -17.7903C1377.35 -5.54418 1380.29 18.577 1377.57 30.5172C1374.75 38.4032 1371.28 46.3877 1367.49 54.4958C1364.02 62.6432 1360.93 71.011 1358.54 79.6384C1357.46 88.4201 1357.64 97.5265 1359.27 106.967C1362.71 116.637 1367.72 126.653 1374.21 137.021C1382.21 147.567 1391.23 158.394 1400.89 169.46C1410.95 180.574 1420.78 191.821 1429.85 203.126C1437.93 214.313 1444.33 225.45 1448.7 236.479C1451.01 247.278 1450.87 257.921 1448.24 268.386C1443.53 278.621 1436.67 288.72 1428.07 298.744C1418.5 308.655 1408.18 318.594 1397.7 328.632C1388.01 338.763 1379.37 349.004 1372.26 359.411C1367.18 370.058 1364.09 380.925 1362.98 392.012C1364.04 403.354 1366.72 414.874 1370.66 426.544C1375.77 438.35 1381.19 450.194 1386.44 462.003C1391.33 473.799 1395.07 485.459 1397.27 496.937C1397.94 508.262 1396.54 519.359 1392.96 530.198C1387.48 540.857 1379.94 551.286 1370.54 561.511C1359.76 571.631 1347.73 581.632 1334.83 591.531C1321.57 601.461 1308.21 611.393 1295.1 621.371C1282.68 631.488 1271.1 641.72 1260.54 652.072C1251.33 662.627 1243.33 673.34 1236.58 684.157C1231.19 695.179 1226.86 706.282 1223.41 717.43C1220.92 728.677 1218.89 739.905 1217.1 751.044C1215.6 762.157 1213.86 773.097 1211.72 783.796C1209.23 794.338 1206 804.571 1201.86 814.418C1197.02 824.005 1191.15 833.147 1184.25 841.799C1176.53 850.105 1167.82 857.868 1158.19 865.081C1147.88 871.874 1136.81 878.093 1125.12 883.681C1113 888.864 1100.48 893.412 1087.68 897.324C1074.72 900.85 1061.68 903.734 1048.65 906.002C1035.71 907.898 1022.92 909.21 1010.34 909.942C997.981 910.378 985.904 910.304 974.109 909.718C962.596 908.975 951.369 907.81 940.422 906.266C929.741 904.709 919.285 902.871 909.03 900.821C898.991 898.928 889.084 896.919 879.253 894.89C869.56 893.186 859.885 891.572 850.195 890.088C840.565 889.097 830.846 888.36 821.018 887.919C811.192 888.081 801.206 888.606 791.056 889.523C780.856 891.111 770.449 893.086 759.847 895.464C749.184 898.483 738.303 901.857 727.224 905.532C716.069 909.726 704.714 914.118 693.181 918.651C681.612 923.488 669.871 928.29 657.982 932.971C646.087 937.711 634.221 942.072 622.41 945.968C610.625 949.648 598.914 952.704 587.316 955.052C575.785 956.953 564.379 958.046 553.134 958.275C541.987 957.928 531.024 956.647 520.242 954.447C509.596 951.6 499.147 947.837 488.934 943.189C478.838 937.923 469.003 931.821 459.393 924.937C449.93 917.555 440.725 909.483 431.767 900.809C422.94 891.782 414.36 882.27 406.036 872.347C397.82 862.246 389.843 851.865 382.112 841.277C374.438 830.696 366.968 820.006 359.738 809.287C352.49 798.712 345.441 788.19 338.544 777.759C331.599 767.603 324.771 757.577 318.066 747.758C311.238 738.232 304.488 728.922 297.786 719.823C290.925 711.073 284.1 702.518 277.279 694.17C270.273 686.152 263.277 678.298 256.291 670.606C249.137 663.218 242 655.935 234.91 648.745C227.687 641.82 220.548 634.919 213.523 628.06C206.444 621.402 199.532 614.704 192.829 607.972C186.139 601.388 179.723 594.72 173.569 587.95C167.522 581.266 161.77 574.455 156.361 567.479C151.062 560.56 146.081 553.444 141.431 546.146C136.867 538.858 132.609 531.342 128.657 523.612C124.706 515.867 121.021 507.86 117.568 499.63C114.092 491.354 110.822 482.822 107.769 474.067C104.666 465.246 101.767 456.185 99.0878 446.885C96.3829 437.553 93.9264 427.986 91.7293 418.214C89.5373 408.398 87.6466 398.398 86.0587 388.198C84.5178 377.974 83.2908 367.582 82.3924 357.022C81.5391 346.453 80.9854 335.714 80.7277 324.833C80.4862 313.94 80.4955 302.914 80.7719 291.744C81.0049 280.568 81.4886 269.26 82.207 257.834C82.8674 246.4 83.7915 234.85 84.9757 223.214C86.1326 211.559 87.5924 199.955 89.3404 188.4C91.1174 176.848 93.2117 165.349 95.636 153.918C98.1167 142.508 100.9 131.149 104.014 119.858C107.14 108.583 110.567 97.3734 114.236 86.2363C117.905 75.0993 121.802 64.0187 125.91 53.0217C129.989 42.0214 134.267 31.0741 138.754 20.2249C143.198 9.37063 147.884 -1.41101 152.779 -12.109C157.703 -22.789 162.864 -33.3674 168.308 -43.8535C173.794 -54.3199 179.576 -64.6779 185.621 -74.9019C191.738 -85.1027 198.134 -95.1823 204.762 -105.117C211.433 -115.032 218.32 -124.788 225.394 -134.391C232.449 -143.951 239.632 -153.35 246.943 -162.586C254.158 -171.76 261.454 -180.749 268.815 -189.538C276.051 -198.269 283.336 -206.788 290.697 -215.077C297.915 -223.281 305.236 -231.237 312.629 -238.934C319.966 -246.521 327.429 -253.813 335.05 -260.822C342.67 -267.699 350.487 -274.258 358.515 -280.484C366.602 -286.585 374.943 -292.348 383.535 -297.743C392.245 -303.02 401.222 -307.943 410.449 -312.498C419.811 -316.949 429.426 -321.047 439.279 -324.807C449.254 -328.466 459.438 -331.79 469.808 -334.813C480.286 -337.765 490.908 -340.435 501.686 -342.807C512.509 -345.189 523.448 -347.307 534.477 -349.194C545.526 -351.122 556.652 -352.836 567.83 -354.367C579.003 -355.972 590.23 -357.424 601.484 -358.725C612.725 -360.161 623.995 -361.475 635.293 -362.654C646.582 -363.996 657.888 -365.247 669.241 -366.39C680.571 -367.712 691.949 -368.94 703.358 -370.061C714.759 -371.36 726.22 -372.549 737.726 -373.615C749.221 -374.844 760.786 -375.917 772.423 -376.85C784.041 -377.874 795.742 -378.725 807.504 -379.349C819.258 -380.033 831.087 -380.473 842.982 -380.611" stroke="black" stroke-opacity="0.07" stroke-linecap="round" stroke-dasharray="21 26"/>
<path opacity="0.93" d="M876.275 -348.881C887.686 -348.418 898.943 -347.671 910.026 -346.615C921.082 -345.488 931.956 -344.009 942.622 -342.196C953.254 -340.27 963.67 -337.968 973.83 -335.311C983.947 -332.498 993.789 -329.304 1003.34 -325.747C1012.82 -322.024 1022 -317.94 1030.85 -313.5C1039.6 -308.914 1047.99 -303.978 1056.04 -298.716C1063.95 -293.331 1071.5 -287.638 1078.67 -281.673C1085.73 -275.594 1092.4 -269.258 1098.7 -262.691C1104.94 -256.063 1110.82 -249.229 1116.39 -242.185C1121.94 -235.116 1127.23 -227.869 1132.31 -220.451C1137.49 -213.033 1142.54 -205.457 1147.54 -197.743C1152.8 -190.028 1158.1 -182.172 1163.54 -174.172C1169.39 -166.172 1175.51 -158.037 1181.94 -149.757C1188.91 -141.468 1196.31 -133.045 1204.15 -124.454C1212.59 -115.889 1221.49 -107.169 1230.84 -98.2938C1240.71 -89.4586 1250.92 -80.4901 1261.4 -71.4128C1272.12 -62.3977 1282.9 -53.3122 1293.57 -44.1703C1304.1 -35.1597 1314.21 -26.1347 1323.71 -17.1285C1332.59 -8.32137 1340.57 0.413088 1347.45 9.07031C1355.65 21.5952 1363.7 45.6936 1363.58 57.2841C1361.06 68.5209 1351.66 90.9167 1346.33 102.364C1343.45 110.14 1341.16 118.187 1339.75 126.551C1339.7 135.144 1340.9 144.124 1343.45 153.507C1347.6 163.175 1353.06 173.24 1359.71 183.666C1367.5 194.309 1375.98 205.224 1384.76 216.356C1393.68 227.497 1402.1 238.728 1409.62 249.933C1416.04 260.939 1420.8 271.815 1423.62 282.476C1424.54 292.799 1423.21 302.871 1419.63 312.686C1414.23 322.165 1406.95 331.456 1398.11 340.603C1388.47 349.606 1378.17 358.625 1367.7 367.749C1357.95 377.014 1349.12 386.43 1341.62 396.096C1335.92 406.084 1331.96 416.398 1329.78 427.014C1329.56 437.994 1330.86 449.26 1333.38 460.743C1337.06 472.435 1341.22 484.225 1345.37 496.029C1349.42 507.83 1352.64 519.497 1354.65 530.948C1355.44 542.228 1354.48 553.194 1351.63 563.854C1347.06 574.222 1340.58 584.279 1332.31 594.015C1322.6 603.555 1311.49 612.847 1299.31 621.96C1286.48 630.989 1273.22 639.939 1259.82 648.881C1246.72 657.89 1234.06 666.979 1222.09 676.16C1211.1 685.546 1201.1 695.049 1192.15 704.711C1184.45 714.564 1177.79 724.529 1172.09 734.576C1167.45 744.754 1163.53 754.94 1160.12 765.056C1157.32 775.19 1154.67 785.158 1152 794.9C1149.4 804.506 1146.41 813.762 1142.93 822.633C1139.08 831.246 1134.52 839.375 1129.16 846.977C1123.21 854.221 1116.4 860.882 1108.77 866.922C1100.51 872.554 1091.48 877.557 1081.77 881.907C1071.54 885.822 1060.76 889.106 1049.55 891.749C1038 893.99 1026.19 895.621 1014.17 896.637C1002.03 897.349 989.844 897.49 977.678 897.1C965.551 896.494 953.537 895.42 941.674 893.912C929.946 892.31 918.412 890.372 907.067 888.127C895.905 885.929 884.926 883.541 874.139 880.994C863.493 878.651 852.989 876.258 842.612 873.904C832.339 871.879 822.135 869.97 811.988 868.235C801.86 866.978 791.735 865.958 781.572 865.228C771.396 865.075 761.146 865.249 750.804 865.778C740.385 866.901 729.857 868.39 719.209 870.214C708.473 872.615 697.595 875.317 686.57 878.26C675.491 881.668 664.265 885.243 652.934 888.902C641.537 892.847 630.048 896.73 618.49 900.498C606.927 904.294 595.438 907.762 584.083 910.809C572.761 913.67 561.587 915.949 550.581 917.62C539.659 918.905 528.944 919.441 518.452 919.231C508.083 918.495 497.949 916.94 488.083 914.543C478.35 911.576 468.896 907.784 459.738 903.17C450.723 898.003 441.978 892.068 433.555 885.405C425.249 878.258 417.236 870.467 409.502 862.102C401.879 853.372 394.535 844.157 387.442 834.528C380.417 824.688 373.64 814.537 367.07 804.14C360.527 793.674 354.156 783.076 347.967 772.377C341.736 761.744 335.624 751.103 329.628 740.483C323.51 730.048 317.482 719.689 311.491 709.455C305.356 699.448 299.238 689.592 293.121 679.899C286.821 670.485 280.507 661.232 274.179 652.139C267.665 643.34 261.14 634.686 254.633 626.185C247.957 617.964 241.32 609.855 234.737 601.858C228.051 594.111 221.484 586.444 215.052 578.845C208.583 571.463 202.317 564.101 196.283 556.767C190.294 549.603 184.59 542.416 179.172 535.207C173.851 528.118 168.87 520.956 164.211 513.733C157.546 502.949 145.957 480.86 140.962 469.454C136.246 457.891 127.971 433.768 124.354 421.199C121.925 412.698 119.707 404.012 117.691 395.11C115.636 386.171 113.795 377.033 112.197 367.701C110.572 358.35 109.218 348.809 108.144 339.111C107.09 329.387 106.333 319.493 105.883 309.461C105.466 299.406 105.353 289.227 105.564 278.897C105.775 268.568 106.292 258.101 107.112 247.509C107.919 236.916 109.012 226.21 110.393 215.392C111.761 204.557 113.412 193.64 115.349 182.61C117.286 171.58 119.511 160.601 121.994 149.669C124.495 138.725 127.28 127.846 130.336 117.03C133.404 106.232 136.73 95.4792 140.327 84.7898C143.907 74.1122 147.726 63.507 151.773 52.9571C155.788 42.4164 160.014 31.943 164.433 21.5485C168.836 11.1659 173.434 0.847963 178.238 -9.37408C183.04 -19.5818 188.077 -29.7027 193.335 -39.7252C198.631 -49.7112 204.189 -59.5911 210.006 -69.336C215.906 -79.0511 222.066 -88.6457 228.508 -98.0714C235.018 -107.47 241.811 -116.7 248.829 -125.785C255.895 -134.803 263.171 -143.665 270.622 -152.347C278.048 -160.974 285.621 -169.427 293.293 -177.684C300.868 -185.899 308.511 -193.91 316.207 -201.718C323.755 -209.448 331.342 -216.979 338.945 -224.269C346.401 -231.482 353.888 -238.453 361.4 -245.151C368.808 -251.765 376.286 -258.099 383.846 -264.151C391.355 -270.08 398.987 -275.704 406.755 -281.007C414.531 -286.191 422.501 -291.043 430.649 -295.567C438.877 -299.958 447.327 -304.013 455.984 -307.734C464.767 -311.329 473.775 -314.602 482.99 -317.541C492.353 -320.395 501.914 -322.946 511.671 -325.181C521.567 -327.362 531.637 -329.273 541.867 -330.92C552.198 -332.548 562.665 -333.944 573.269 -335.108C583.941 -336.32 594.714 -337.35 605.586 -338.184C616.502 -339.1 627.481 -339.871 638.523 -340.498C649.605 -341.265 660.724 -341.907 671.882 -342.439C683.069 -343.128 694.298 -343.721 705.541 -344.223C716.811 -344.882 728.095 -345.451 739.409 -345.94C750.735 -346.575 762.088 -347.116 773.452 -347.551C784.839 -348.116 796.249 -348.558 807.659 -348.837C819.089 -349.231 830.516 -349.433 841.952 -349.44C853.398 -349.505 864.829 -349.32 876.26 -348.884" stroke="black" stroke-opacity="0.07" stroke-linecap="round" stroke-dasharray="13 18"/>
<path opacity="0.61" d="M901.014 -316.826C911.86 -315.848 922.46 -314.597 932.848 -313.083C943.207 -311.516 953.325 -309.63 963.174 -307.434C972.984 -305.143 982.504 -302.515 991.736 -299.566C1000.91 -296.482 1009.77 -293.065 1018.33 -289.302C1026.79 -285.397 1034.93 -281.162 1042.73 -276.606C1050.45 -271.903 1057.83 -266.875 1064.87 -261.553C1071.83 -256.086 1078.46 -250.338 1084.76 -244.322C1091.03 -238.211 1097.01 -231.823 1102.7 -225.189C1108.4 -218.462 1113.89 -211.514 1119.19 -204.345C1124.58 -197.105 1129.85 -189.656 1135.08 -182.022C1140.49 -174.329 1145.94 -166.432 1151.46 -158.351C1157.31 -150.223 1163.33 -141.917 1169.57 -133.425C1176.23 -124.891 1183.18 -116.169 1190.46 -107.276C1198.2 -98.3635 1206.29 -89.2769 1214.72 -80.02C1223.56 -70.7848 1232.69 -61.3895 1242.04 -51.8795C1251.64 -42.4321 1261.32 -32.8899 1270.95 -23.2976C1280.56 -13.8184 1289.91 -4.34025 1298.85 5.117C1307.4 14.3727 1315.29 23.5463 1322.37 32.6002C1328.72 41.3886 1334.04 50.0062 1338.26 58.4504C1342.59 70.5694 1344.06 93.503 1341.56 104.434C1337.56 115.037 1327.59 136.353 1323.01 147.432C1320.24 159.022 1321.13 184.457 1325.43 198.461C1330.06 208.264 1335.71 218.448 1342.25 229.008C1349.61 239.752 1357.34 250.748 1365.08 261.899C1372.72 273.008 1379.7 284.11 1385.66 295.133C1390.48 305.87 1393.7 316.371 1395.07 326.578C1394.72 336.373 1392.33 345.83 1387.92 354.938C1381.97 363.69 1374.35 372.178 1365.34 380.485C1355.71 388.624 1345.48 396.787 1335.09 405.046C1325.34 413.459 1316.38 422.091 1308.55 430.996C1302.31 440.295 1297.59 449.974 1294.44 460.044C1293.06 470.554 1293.08 481.397 1294.25 492.548C1296.57 503.975 1299.42 515.559 1302.46 527.188C1305.57 538.865 1308.13 550.424 1309.78 561.765C1310.52 572.917 1309.82 583.739 1307.51 594.176C1303.74 604.309 1298.25 614.012 1291.06 623.325C1282.48 632.332 1272.47 640.985 1261.25 649.345C1249.21 657.539 1236.47 665.535 1223.31 673.4C1210.09 681.266 1196.98 689.113 1184.19 696.992C1172.04 705.011 1160.58 713.118 1149.94 721.334C1140.33 729.749 1131.65 738.283 1123.87 746.9C1117.16 755.694 1111.23 764.499 1106.02 773.293C1101.58 782.154 1097.59 790.897 1093.88 799.436C1088.87 812.003 1078.27 835.06 1071.95 845.257C1064.61 854.429 1046.1 869.163 1034.88 874.641C1026.7 877.666 1017.96 880.045 1008.71 881.775C999.07 883.143 989.026 883.888 978.656 884.059C968.016 883.911 957.17 883.248 946.176 882.069C935.061 880.71 923.885 878.917 912.695 876.744C901.49 874.508 890.327 871.968 879.252 869.192C868.191 866.481 857.238 863.629 846.401 860.671C835.602 857.932 824.909 855.188 814.308 852.497C803.732 850.142 793.214 847.92 782.758 845.879C772.296 844.302 761.84 842.951 751.407 841.876C740.909 841.326 730.382 841.085 719.826 841.152C709.183 841.768 698.494 842.704 687.719 843.934C676.867 845.672 665.937 847.676 654.944 849.875C643.853 852.486 632.714 855.236 621.53 858.05C610.29 861.091 599.03 864.097 587.754 866.979C576.471 869.889 565.362 872.511 554.42 874.753C543.533 876.827 532.853 878.411 522.424 879.454C512.061 880.153 501.976 880.197 492.182 879.591C482.5 878.516 473.112 876.716 464.05 874.183C455.129 871.128 446.518 867.337 438.251 862.803C430.104 857.772 422.307 852.029 414.801 845.635C407.436 838.779 400.366 831.319 393.609 823.303C386.924 814.929 380.506 806.063 374.35 796.795C368.238 787.282 362.324 777.441 356.613 767.319C350.887 757.072 345.325 746.64 339.889 736.058C334.365 725.47 328.946 714.817 323.594 704.135C318.102 693.54 312.663 682.972 307.228 672.45C301.635 662.086 296.032 651.824 290.423 641.651C284.611 631.699 278.8 621.868 272.991 612.158C266.985 602.7 261.009 593.37 255.045 584.178C248.949 575.224 242.928 566.394 236.993 557.704C230.99 549.238 225.112 540.877 219.419 532.621C213.732 524.591 208.269 516.63 203.057 508.744C197.908 501.039 193.032 493.384 188.482 485.746C181.952 474.527 170.67 452.198 165.879 440.99C161.461 429.797 153.966 406.95 150.793 395.198C147.745 383.297 142.442 358.633 140.204 345.86C138.694 337.255 137.377 328.471 136.305 319.536C135.181 310.574 134.292 301.442 133.661 292.177C133.036 282.883 132.697 273.463 132.658 263.92C132.654 254.355 132.946 244.68 133.581 234.893C134.247 225.098 135.224 215.198 136.526 205.195C137.871 195.203 139.54 185.108 141.503 174.918C143.508 164.739 145.82 154.468 148.422 144.116C151.052 133.771 153.944 123.459 157.107 113.212C160.255 102.961 163.644 92.7681 167.275 82.6331C170.878 72.4913 174.693 62.4005 178.729 52.3926C182.722 42.3744 186.911 32.4182 191.277 22.5345C195.598 12.6549 200.113 2.83707 204.8 -6.87969C209.459 -16.6033 214.305 -26.2366 219.355 -35.7762C224.384 -45.2909 229.658 -54.7017 235.167 -63.9661C240.719 -73.2202 246.534 -82.3211 252.602 -91.2863C258.762 -100.199 265.183 -108.945 271.878 -117.519C278.666 -126.042 285.71 -134.383 292.994 -142.531C300.338 -150.62 307.879 -158.526 315.61 -166.222C323.316 -173.878 331.166 -181.32 339.117 -188.558C346.994 -195.738 354.93 -202.724 362.9 -209.477C370.725 -216.189 378.57 -222.671 386.406 -228.93C394.077 -235.124 401.736 -241.08 409.394 -246.782C416.9 -252.414 424.433 -257.785 431.959 -262.872C439.408 -267.888 446.887 -272.596 454.448 -277.015C461.956 -281.34 469.584 -285.352 477.332 -289.05C485.088 -292.656 493.01 -295.952 501.091 -298.909C509.244 -301.789 517.591 -304.352 526.118 -306.602C534.734 -308.786 543.562 -310.663 552.577 -312.255C561.705 -313.821 571.021 -315.101 580.519 -316.142C590.12 -317.173 599.894 -317.983 609.793 -318.568C619.823 -319.196 629.975 -319.645 640.236 -319.918C650.591 -320.273 661.046 -320.484 671.588 -320.554C682.203 -320.742 692.897 -320.821 703.624 -320.786C714.445 -320.895 725.289 -320.908 736.172 -320.836C747.107 -320.917 758.075 -320.885 769.043 -320.793C780.074 -320.836 791.098 -320.791 802.11 -320.628C813.17 -320.604 824.227 -320.446 835.237 -320.149C846.284 -319.947 857.308 -319.587 868.271 -319.031C879.243 -318.517 890.164 -317.791 901 -316.83" stroke="black" stroke-opacity="0.07" stroke-linecap="round" stroke-dasharray="24 4"/>
<path opacity="0.18" d="M919.217 -285.097C929.404 -283.674 939.348 -282.005 949.04 -280.106C958.711 -278.138 968.089 -275.908 977.202 -273.407C986.267 -270.798 995.049 -267.909 1003.52 -264.716C1011.93 -261.392 1020.05 -257.773 1027.85 -253.855C1035.59 -249.787 1043.01 -245.401 1050.13 -240.73C1060.58 -233.351 1080.02 -216.891 1089.08 -207.862C1095.06 -201.598 1100.83 -195.074 1106.43 -188.296C1112.11 -181.404 1117.68 -174.242 1123.17 -166.842C1128.81 -159.335 1134.46 -151.584 1140.13 -143.611C1146.03 -135.539 1152.04 -127.22 1158.18 -118.692C1164.64 -110.086 1171.28 -101.253 1178.15 -92.2328C1185.35 -83.1248 1192.79 -73.8386 1200.45 -64.3645C1208.43 -54.867 1216.6 -45.2083 1224.92 -35.4247C1233.45 -25.6559 1242.04 -15.7918 1250.62 -5.87189C1259.18 3.96972 1267.57 13.8025 1275.67 23.6386C1283.5 33.2741 1290.84 42.8355 1297.59 52.2793C1303.8 61.4657 1309.21 70.4753 1313.74 79.2922C1318.95 91.9149 1323.18 115.59 1322.25 126.659C1319.62 137.198 1310.97 157.659 1305.94 167.899C1301.66 178.424 1296.76 201.136 1297.07 213.617C1298.81 222.428 1301.55 231.664 1305.27 241.349C1310.1 251.34 1315.67 261.708 1321.83 272.392C1328.53 283.223 1335.32 294.222 1341.91 305.31C1348.21 316.295 1353.71 327.191 1358.12 337.91C1361.44 348.28 1363.21 358.337 1363.25 368.022C1361.76 377.227 1358.45 386.034 1353.36 394.438C1346.93 402.454 1339.06 410.168 1330 417.675C1320.4 425.021 1310.28 432.344 1300.03 439.796C1290.33 447.399 1281.3 455.237 1273.23 463.395C1266.55 471.973 1261.18 480.966 1257.18 490.402C1254.76 500.317 1253.58 510.64 1253.5 521.293C1254.53 532.299 1256.14 543.511 1258.04 554.812C1260.17 566.198 1261.98 577.502 1263.14 588.624C1263.68 599.556 1263.06 610.155 1261.13 620.356C1258 630.193 1253.35 639.587 1247.19 648.505C1239.74 657.035 1230.91 665.131 1220.83 672.818C1209.84 680.23 1197.97 687.329 1185.46 694.188C1172.65 700.939 1159.64 707.571 1146.64 714.115C1133.98 720.714 1121.69 727.335 1109.97 734.006C1098.99 740.84 1088.75 747.733 1079.3 754.71C1070.77 761.874 1063.05 769.071 1056.06 776.276C1049.92 783.6 1044.39 790.848 1039.33 797.966C1032.76 808.531 1020.92 828.073 1014.99 836.74C1008.75 844.552 994.008 856.946 985.29 861.399C975.552 864.689 953.156 867.714 940.633 867.506C931.869 866.926 922.776 865.82 913.416 864.235C903.834 862.477 894.065 860.327 884.134 857.807C874.068 855.231 863.911 852.398 853.688 849.332C843.379 846.347 833.044 843.247 822.711 840.041C812.296 837.054 801.909 834.075 791.537 831.147C781.1 828.535 770.681 826.065 760.271 823.766C749.785 821.871 739.309 820.193 728.817 818.77C718.242 817.824 707.646 817.147 697.011 816.748C686.293 816.827 675.532 817.199 664.741 817.82C653.851 818.869 642.935 820.155 631.992 821.63C620.966 823.432 609.916 825.363 598.885 827.331C587.8 829.526 576.737 831.652 565.735 833.674C554.725 835.724 543.943 837.523 533.379 839.007C522.862 840.337 512.61 841.244 502.64 841.672C492.755 841.82 483.178 841.406 473.931 840.405C464.807 838.999 456.012 836.96 447.564 834.279C439.241 831.133 431.27 827.33 423.646 822.885C416.152 817.961 408.987 812.404 402.157 806.246C395.439 799.665 389.015 792.517 382.905 784.838C376.84 776.808 371.053 768.312 365.486 759.394C359.949 750.226 354.614 740.693 349.46 730.863C344.26 720.882 339.211 710.657 334.263 700.249C329.23 689.769 324.276 679.176 319.381 668.494C314.356 657.834 309.354 647.15 304.371 636.457C299.237 625.855 294.109 615.286 288.974 604.79C283.69 594.433 278.409 584.168 273.154 574.018C267.769 564.042 262.425 554.185 257.136 544.451C251.764 534.937 246.503 525.563 241.36 516.301C236.192 507.276 231.198 498.379 226.396 489.602C221.638 481.036 217.114 472.602 212.865 464.267C208.677 456.134 204.783 448.089 201.19 440.105C196.092 428.431 187.521 405.453 184.019 394.049C180.806 382.748 175.505 359.906 173.332 348.294C171.207 336.575 167.607 312.448 166.146 300.046C165.125 291.681 164.291 283.206 163.641 274.572C162.95 265.926 162.476 257.164 162.258 248.265C162.026 239.361 162.068 230.358 162.417 221.249C162.798 212.135 163.491 202.947 164.504 193.658C165.601 184.395 167.029 175.048 168.797 165.637C170.638 156.233 172.806 146.76 175.314 137.222C177.873 127.714 180.763 118.124 183.97 108.493C187.195 98.852 190.677 89.2733 194.414 79.7568C198.123 70.2317 202.041 60.7702 206.16 51.354C210.232 41.939 214.5 32.5833 218.917 23.2881C223.274 13.99 227.785 4.73839 232.438 -4.42471C237.034 -13.6047 241.775 -22.7103 246.685 -31.7188C251.535 -40.7304 256.555 -49.645 261.766 -58.4402C266.97 -67.2074 272.384 -75.865 278.024 -84.3625C283.702 -92.8335 289.649 -101.132 295.835 -109.266C302.11 -117.342 308.65 -125.232 315.449 -132.921C322.365 -140.543 329.523 -147.956 336.908 -155.162C344.378 -162.297 352.057 -169.216 359.913 -175.913C367.781 -182.546 375.793 -188.952 383.908 -195.144C391.964 -201.293 400.087 -207.208 408.249 -212.898C416.291 -218.547 424.33 -223.984 432.357 -229.18C440.219 -234.335 448.046 -239.272 455.842 -243.959C463.469 -248.59 471.057 -252.989 478.628 -257.133C489.769 -263.141 511.906 -273.72 523.027 -278.254C534.145 -282.422 556.922 -289.223 568.646 -291.865C580.615 -294.159 605.477 -297.368 618.374 -298.344C627.152 -298.919 636.08 -299.281 645.161 -299.444C654.361 -299.648 663.7 -299.656 673.173 -299.502C682.763 -299.435 692.46 -299.213 702.266 -298.852C712.171 -298.613 722.177 -298.252 732.254 -297.777C742.416 -297.43 752.655 -296.983 762.928 -296.45C773.285 -296.043 783.682 -295.564 794.091 -294.974C804.56 -294.533 815.056 -293.978 825.522 -293.325C836.054 -292.789 846.547 -292.128 857.017 -291.337C867.512 -290.629 877.961 -289.768 888.327 -288.733C898.71 -287.708 909.011 -286.51 919.203 -285.101" stroke="black" stroke-opacity="0.07" stroke-linecap="round" stroke-dasharray="8 12"/>
<path opacity="0.46" d="M933.858 -253.529C943.395 -251.712 952.686 -249.69 961.74 -247.444C970.767 -245.13 979.539 -242.583 988.048 -239.791C996.509 -236.908 1004.71 -233.746 1012.63 -230.317C1024.31 -224.848 1046.26 -212.25 1056.55 -205.129C1066.57 -197.485 1085.51 -180.486 1094.55 -171.15C1100.57 -164.684 1106.48 -157.936 1112.28 -150.895C1118.19 -143.726 1124.06 -136.272 1129.91 -128.546C1135.92 -120.7 1141.97 -112.575 1148.1 -104.203C1154.41 -95.7004 1160.82 -86.9728 1167.37 -77.9965C1174.13 -68.9394 1181.02 -59.6473 1188.05 -50.1662C1195.28 -40.6232 1202.61 -30.9064 1210.04 -21.0431C1217.59 -11.167 1225.15 -1.19344 1232.68 8.87599C1240.18 18.8755 1247.54 28.8981 1254.66 38.9134C1261.59 48.7932 1268.13 58.5779 1274.2 68.2832C1279.88 77.7499 1284.94 87.0544 1289.31 96.1613C1294.59 109.265 1300.06 133.794 1300.17 145.207C1298.65 155.959 1291.79 176.352 1287.1 186.262C1282.46 196.179 1274.66 216.953 1272.4 228.195C1272.04 236.093 1272.47 244.389 1273.73 253.131C1276.06 262.221 1279.2 271.733 1283.11 281.652C1287.85 291.847 1293.08 302.363 1298.63 313.137C1304.47 323.972 1310.18 334.913 1315.52 345.857C1320.43 356.611 1324.46 367.2 1327.4 377.51C1329.27 387.426 1329.7 396.95 1328.56 406.038C1326.07 414.613 1321.97 422.749 1316.3 430.448C1309.51 437.733 1301.47 444.698 1292.4 451.441C1282.9 458.009 1272.96 464.567 1262.86 471.228C1253.27 478.056 1244.24 485.123 1236.01 492.516C1228.99 500.34 1223.07 508.618 1218.34 517.33C1215 526.557 1212.79 536.23 1211.55 546.276C1211.38 556.714 1211.81 567.376 1212.6 578.187C1213.75 589.142 1214.76 600.048 1215.34 610.797C1215.53 621.4 1214.86 631.671 1213.16 641.563C1210.5 651.089 1206.56 660.14 1201.32 668.665C1194.96 676.777 1187.29 684.363 1178.44 691.464C1168.66 698.207 1157.92 704.538 1146.41 710.489C1134.41 716.244 1121.99 721.737 1109.36 727.044C1096.77 732.3 1084.3 737.477 1072.09 742.598C1060.38 747.822 1049.18 753.048 1038.58 758.307C1028.72 763.732 1019.54 769.174 1011.07 774.642C999.859 783.036 981.451 799.595 973.823 807.506C967.132 815.108 954.651 828.42 948.36 833.882C934.51 841.617 909.727 846.803 899.889 846.306C889.307 844.96 866.159 839.794 853.753 836.173C845.177 833.605 836.406 830.763 827.461 827.717C818.338 824.73 809.09 821.619 799.72 818.416C790.188 815.403 780.576 812.391 770.881 809.396C761.057 806.71 751.15 804.119 741.194 801.665C731.106 799.567 720.961 797.666 710.759 795.962C700.433 794.679 690.054 793.625 679.622 792.801C669.079 792.402 658.483 792.233 647.857 792.271C637.122 792.689 626.368 793.287 615.605 794.037C604.744 795.093 593.904 796.219 583.091 797.401C572.216 798.748 561.408 800.041 550.695 801.245C539.958 802.472 529.46 803.474 519.233 804.204C509.051 804.81 499.144 805.051 489.555 804.895C480.034 804.468 470.855 803.577 462.007 802.169C453.271 800.413 444.875 798.114 436.849 795.235C428.923 791.958 421.366 788.1 414.146 783.667C407.049 778.812 400.29 773.381 393.857 767.402C387.51 761.018 381.462 754.122 375.706 746.727C370.002 738.978 364.553 730.794 359.32 722.191C354.122 713.321 349.108 704.083 344.25 694.545C339.376 684.798 334.639 674.807 330.015 664.592C325.32 654.274 320.705 643.782 316.149 633.173C311.51 622.533 306.911 611.829 302.345 601.076C297.686 590.366 293.045 579.648 288.454 568.963C283.758 558.395 279.107 547.875 274.522 537.426C269.859 527.151 265.29 516.956 260.827 506.895C256.326 497.021 251.965 487.277 247.77 477.672C243.592 468.275 239.612 459.014 235.841 449.907C232.151 441.001 228.687 432.241 225.496 423.628C220.964 411.051 213.395 386.697 210.351 374.855C207.623 363.254 203.364 340.306 201.739 328.878C200.178 317.442 197.69 294.291 196.687 282.485C195.65 270.558 194.103 246.119 193.666 233.619C193.378 225.235 193.296 216.756 193.448 208.192C193.6 199.628 194.012 190.989 194.714 182.285C195.475 173.587 196.552 164.835 197.967 156.051C199.455 147.279 201.296 138.481 203.498 129.63C205.778 120.823 208.409 111.99 211.398 103.117C214.455 94.2689 217.85 85.3902 221.551 76.4841C225.293 67.5931 229.278 58.7605 233.495 50.0137C237.672 41.2518 242.06 32.5518 246.606 23.9261C251.089 15.2615 255.713 6.67985 260.474 -1.85138C265.134 -10.4042 269.926 -18.8929 274.831 -27.3088C279.635 -35.7463 284.566 -44.1059 289.614 -52.3602C294.602 -60.6211 299.753 -68.7752 305.048 -76.814C310.333 -84.8253 315.804 -92.7062 321.477 -100.419C327.181 -108.089 333.128 -115.576 339.306 -122.886C345.565 -130.118 352.09 -137.144 358.853 -143.973C365.728 -150.683 372.842 -157.196 380.193 -163.466C387.633 -169.641 395.289 -175.596 403.116 -181.302C410.992 -186.927 419.018 -192.326 427.162 -197.495C435.275 -202.582 443.465 -207.454 451.699 -212.108C459.834 -216.704 467.98 -221.078 476.124 -225.236C484.115 -229.356 492.071 -233.256 499.974 -236.927C511.556 -242.307 534.185 -251.865 545.277 -256.042C556.129 -259.948 577.698 -266.505 588.497 -269.124C599.292 -271.48 621.295 -274.905 632.577 -276.008C644.07 -276.878 667.83 -277.555 680.118 -277.416C688.452 -277.318 696.939 -277.039 705.549 -276.59C714.268 -276.226 723.122 -275.719 732.077 -275.065C741.146 -274.509 750.318 -273.854 759.578 -273.057C768.948 -272.39 778.389 -271.62 787.901 -270.745C797.504 -269.993 807.151 -269.147 816.841 -268.207C826.598 -267.367 836.385 -266.438 846.159 -265.389C856.006 -264.454 865.822 -263.39 875.619 -262.193C885.442 -261.064 895.227 -259.793 904.934 -258.349C914.669 -256.941 924.301 -255.338 933.844 -253.534" stroke="black" stroke-opacity="0.07" stroke-linecap="round" stroke-dasharray="21 15"/>
<path opacity="0.47" d="M947.847 -221.195C956.767 -219.036 965.474 -216.683 973.97 -214.103C982.449 -211.484 990.712 -208.624 998.758 -205.524C1010.65 -200.617 1033.27 -189.336 1043.99 -182.903C1054.48 -175.994 1074.46 -160.482 1084.03 -151.872C1090.37 -145.871 1096.58 -139.571 1102.69 -132.983C1108.86 -126.242 1114.94 -119.189 1120.99 -111.866C1127.1 -104.37 1133.2 -96.6058 1139.31 -88.5537C1145.52 -80.3763 1151.75 -71.9189 1158.02 -63.2215C1164.42 -54.4064 1170.85 -45.3513 1177.31 -36.0756C1183.91 -26.728 1190.51 -17.1981 1197.12 -7.49193C1203.79 2.23767 1210.41 12.1069 1216.95 22.0523C1223.44 31.9801 1229.79 41.9357 1235.91 51.9223C1241.85 61.7677 1247.49 71.5899 1252.72 81.3154C1257.65 90.8605 1262.07 100.249 1265.94 109.489C1269.37 118.459 1272.14 127.207 1274.24 135.722C1276.23 147.937 1275.92 170.68 1273.75 181.267C1270.54 191.366 1261.97 210.903 1257.28 220.627C1253.14 230.578 1247.29 251.922 1246.21 263.59C1246.58 271.829 1247.65 280.47 1249.43 289.531C1252.06 298.934 1255.32 308.723 1259.12 318.856C1263.5 329.214 1268.16 339.806 1272.9 350.558C1277.73 361.318 1282.26 372.074 1286.28 382.738C1289.79 393.161 1292.41 403.323 1293.95 413.142C1294.49 422.523 1293.72 431.442 1291.53 439.886C1288.16 447.815 1283.39 455.255 1277.27 462.242C1270.21 468.813 1262.09 475.061 1253.07 481.067C1243.73 486.914 1233.99 492.729 1224.12 498.629C1214.66 504.71 1205.69 511.021 1197.38 517.638C1190.11 524.705 1183.77 532.2 1178.44 540.133C1174.34 548.617 1171.2 557.522 1168.96 566.837C1167.71 576.566 1167.04 586.565 1166.8 596.738C1166.99 607.112 1167.17 617.452 1167.14 627.7C1166.9 637.84 1166.06 647.698 1164.42 657.166C1162.09 666.329 1158.73 675.01 1154.27 683.147C1148.86 690.855 1142.33 698.007 1134.7 704.602C1126.19 710.778 1116.72 716.455 1106.45 721.656C1095.57 726.562 1084.15 731.099 1072.33 735.321C1060.33 739.416 1048.22 743.288 1036.17 747.013C1024.33 750.733 1012.79 754.393 1001.64 757.999C991.001 761.716 980.894 765.412 971.364 769.104C958.35 774.86 936.239 786.346 926.95 791.928C911.802 802.28 892.1 814.706 885.791 817.368C872.304 820.049 849.151 818.891 840.235 816.798C830.703 814.18 809.938 807.262 798.767 803.18C791.035 800.456 783.079 797.587 774.928 794.617C766.564 791.808 758.027 788.956 749.341 786.119C740.451 783.527 731.408 780.995 722.232 778.549C712.883 776.426 703.41 774.439 693.827 772.596C684.066 771.089 674.216 769.783 664.284 768.632C654.174 767.849 644.007 767.232 633.79 766.769C623.44 766.646 613.05 766.65 602.634 766.752C592.125 767.102 581.62 767.517 571.155 767.949C560.612 768.523 550.138 769.047 539.744 769.462C529.339 769.905 519.178 770.151 509.266 770.156C499.395 770.067 489.813 769.642 480.522 768.882C471.311 767.903 462.425 766.507 453.875 764.669C441.359 761.226 418.209 751.339 407.554 744.837C400.691 739.976 394.141 734.582 387.885 728.696C381.742 722.443 375.887 715.712 370.296 708.523C364.786 701.002 359.509 693.057 354.453 684.715C349.435 676.103 344.616 667.147 339.961 657.85C335.304 648.375 330.803 638.618 326.433 628.632C322.03 618.504 317.73 608.214 313.532 597.761C309.292 587.258 305.132 576.647 301.06 565.978C296.924 555.313 292.891 544.63 288.923 533.943C284.933 523.342 281.037 512.782 277.248 502.269C273.46 491.9 269.788 481.629 266.265 471.455C262.778 461.456 259.441 451.586 256.314 441.856C253.229 432.32 250.368 422.929 247.724 413.697C245.15 404.67 242.819 395.781 240.737 387.049C237.838 374.28 233.368 349.64 231.754 337.687C230.362 325.99 228.451 302.93 227.85 291.467C227.244 280.05 226.413 256.999 226.152 245.303C225.802 233.519 225.516 209.512 225.675 197.329C225.926 185.044 227.508 160.227 228.978 147.74C230.835 135.28 236.355 110.383 240.053 97.9772C242.751 89.7556 245.816 81.5346 249.208 73.3294C252.7 65.1516 256.52 56.9895 260.653 48.8373C264.82 40.6833 269.22 32.6153 273.828 24.6542C278.415 16.668 283.163 8.75197 288.052 0.913571C292.861 -6.95989 297.792 -14.7481 302.816 -22.4955C307.735 -30.257 312.743 -37.9642 317.832 -45.6037C322.815 -53.2574 327.881 -60.8434 333.044 -68.3234C338.12 -75.825 343.326 -83.2222 348.645 -90.4748C353.944 -97.7199 359.388 -104.822 365.01 -111.75C370.662 -118.635 376.519 -125.333 382.57 -131.82C388.717 -138.233 395.09 -144.435 401.697 -150.408C408.388 -156.28 415.341 -161.911 422.502 -167.291C429.76 -172.565 437.234 -177.602 444.891 -182.368C452.611 -187.058 460.489 -191.488 468.484 -195.676C476.508 -199.786 484.61 -203.672 492.764 -207.313C500.882 -210.905 509.024 -214.264 517.157 -217.419C529.173 -221.986 552.808 -230.065 564.349 -233.581C575.593 -236.891 597.545 -242.503 608.267 -244.799C618.795 -246.909 639.676 -250.105 650.102 -251.176C660.536 -252.084 681.715 -252.935 692.532 -252.895C703.537 -252.741 726.178 -251.648 737.836 -250.762C749.764 -249.838 774.309 -247.451 786.924 -246.021C795.443 -245.136 804.073 -244.139 812.768 -243.034C821.561 -242.046 830.413 -240.936 839.316 -239.725C848.292 -238.609 857.306 -237.396 866.34 -236.048C875.434 -234.8 884.53 -233.409 893.605 -231.899C902.73 -230.431 911.824 -228.818 920.861 -227.038C929.929 -225.292 938.928 -223.353 947.834 -221.2" stroke="black" stroke-opacity="0.07" stroke-linecap="round" stroke-dasharray="18 15"/>
<path opacity="0.21" d="M963.132 -186.904C971.473 -184.43 979.675 -181.748 987.706 -178.858C999.637 -174.329 1022.58 -163.983 1033.6 -158.102C1040.84 -153.99 1047.93 -149.598 1054.84 -144.934C1068.61 -135.213 1081.78 -124.302 1094.44 -112.225C1107.13 -99.5611 1119.46 -85.6912 1131.53 -70.6868C1143.76 -55.1134 1155.83 -38.4897 1167.73 -20.9008C1179.77 -2.98447 1191.54 15.6679 1202.88 34.8527C1213.93 53.9571 1224.11 73.2383 1233.04 92.3933C1240.97 110.928 1247.07 128.953 1250.98 146.192C1253.33 162.442 1253.28 177.767 1250.85 192.141C1247.32 205.712 1242.13 218.696 1235.87 231.418C1230.31 244.237 1225.2 257.574 1221.3 271.841C1220.12 287.262 1221.11 304.161 1224.39 322.572C1230.35 342.183 1237.57 362.861 1245.05 384.062C1252.23 405.027 1257.11 425.284 1258.42 444.17C1256.83 457.055 1246.05 479.547 1236.92 489.207C1229.69 495.079 1221.54 500.631 1212.67 505.931C1203.52 511.084 1194.04 516.19 1184.41 521.367C1175.17 526.722 1166.31 532.289 1158.01 538.128C1150.58 544.423 1143.93 551.116 1138.14 558.245C1133.4 565.904 1129.51 573.987 1126.42 582.454C1124.2 591.385 1122.58 600.6 1121.38 610.001C1120.27 629.439 1118.87 648.614 1115.89 666.752C1110.97 683.859 1102.56 698.91 1090.41 711.683C1075.12 722.677 1056.59 731.546 1035.65 738.571C1013.43 744.646 990.608 749.665 968.162 753.956C946.889 758.418 927.238 762.657 909.554 766.7C894.066 771.287 880.546 775.581 868.746 779.359C858.578 783.376 849.401 786.472 840.742 788.423C832.627 790.176 824.292 790.523 815.491 789.436C806.353 788.047 796.329 785.307 785.386 781.378C773.68 777.471 760.947 772.746 747.284 767.434C732.756 762.697 717.327 757.83 701.102 753.016C684.072 749.267 666.328 745.859 648.039 742.879C638.624 741.84 629.11 740.899 619.491 740.068C609.72 739.504 599.896 739.012 590.013 738.571C580.031 738.358 570.016 738.145 560.007 737.918C549.952 737.816 539.904 737.635 529.935 737.331C519.947 737.065 510.175 736.599 500.633 735.939C491.124 735.181 481.879 734.13 472.904 732.775C464.001 731.244 455.389 729.336 447.086 727.046C438.889 724.514 430.995 721.547 423.412 718.131C408.623 710.428 395.088 700.84 382.735 689.444C370.834 676.773 359.99 662.377 350.084 646.428C340.46 629.476 331.608 611.261 323.442 592.02C315.365 572.251 307.848 551.832 300.868 531C293.935 510.174 287.544 489.28 281.771 468.554C276.153 448.266 271.244 428.355 267.16 408.979C263.327 390.271 260.37 372.157 258.344 354.663C256.482 337.809 255.466 321.452 255.211 305.531C254.836 289.974 254.995 274.624 255.617 259.362C255.768 244.155 256.201 228.846 256.955 213.388C257.154 197.829 257.76 182.051 258.909 166.14C259.849 150.188 261.651 134.183 264.478 118.224C266.905 106.337 273.546 82.85 277.798 71.2696C282.586 59.8301 293.993 37.2446 300.568 26.0917C305.086 18.6922 309.812 11.3987 314.733 4.20447C319.621 -2.99 324.666 -10.105 329.821 -17.1475C334.892 -24.2166 340.047 -31.2264 345.273 -38.1508C350.395 -45.1282 355.562 -52.0334 360.794 -58.8729C370.881 -72.6786 381.239 -86.1167 391.914 -99.0825C402.386 -112.037 413.421 -124.327 425.105 -135.83C437.041 -147.057 449.832 -157.324 463.419 -166.547C477.441 -175.37 492.206 -183.142 507.585 -189.833C523.131 -196.209 539.022 -201.623 555.045 -206.102C570.864 -210.471 586.547 -214.025 601.996 -216.798C616.976 -219.645 631.643 -221.783 646.005 -223.192C659.912 -224.799 673.631 -225.716 687.253 -225.928C700.642 -226.39 714.118 -226.186 727.746 -225.314C741.416 -224.749 755.414 -223.575 769.748 -221.803C784.325 -220.416 799.304 -218.496 814.639 -216.085C830.303 -214.096 846.316 -211.634 862.581 -208.7C874.954 -206.649 900.003 -202.015 912.613 -199.4C921.05 -197.663 929.5 -195.757 937.909 -193.674C946.35 -191.624 954.751 -189.365 963.112 -186.898" stroke="black" stroke-opacity="0.07" stroke-linecap="round" stroke-dasharray="25 8"/>
<path opacity="0.96" d="M979.996 -149.752C995.68 -144.178 1010.87 -137.707 1025.53 -130.348C1040.06 -122.69 1054.06 -113.994 1067.5 -104.216C1080.83 -94.0005 1093.64 -82.6275 1106 -70.1201C1118.26 -57.1083 1130.14 -42.9704 1141.61 -27.7989C1153.03 -12.1861 1164.02 4.34789 1174.53 21.6411C1184.82 39.1168 1194.42 57.1161 1203.14 75.3654C1211.24 93.3962 1218.07 111.351 1223.37 128.969C1227.58 145.913 1229.92 162.217 1230.23 177.727C1229.37 192.413 1226.59 206.299 1222.1 219.49C1217.23 232.237 1211.47 244.749 1205.4 257.351C1200.54 270.426 1196.53 284.303 1193.92 299.254C1193.79 315.467 1195.5 333.077 1198.9 352.004C1204.2 371.886 1210.08 392.46 1215.57 413.167C1220.32 433.353 1222.63 452.501 1221.53 470.057C1217.25 485.703 1208.71 499.282 1196.03 510.86C1180.89 520.98 1163.29 530.101 1144.51 538.975C1126.99 548.566 1111.27 559.178 1098.18 571.227C1088.62 585.353 1081.81 600.976 1077.15 617.69C1074.46 635.534 1071.94 653.258 1068.52 670.139C1063.93 686.261 1056.68 700.461 1046.45 712.436C1033.59 722.694 1017.78 730.643 999.566 736.498C979.762 741.116 958.862 744.281 937.695 746.342C916.931 748.233 897.111 749.61 878.707 750.649C861.921 752.161 846.878 753.441 833.516 754.419C821.78 755.858 811.296 756.777 801.787 756.982C793.11 757.386 784.768 756.869 776.435 755.325C768.117 753.842 759.335 751.359 749.917 747.912C739.98 744.686 729.161 740.741 717.463 736.247C704.961 732.315 691.528 728.126 677.19 723.864C662.043 720.464 646.056 717.2 629.377 714.105C611.987 711.965 594.05 709.979 575.729 708.072C556.965 706.836 538.05 705.394 519.183 703.523C500.26 701.721 482.098 699.078 464.817 695.395C447.855 691.136 431.946 685.482 417.151 678.33C402.845 670.196 389.703 660.392 377.676 648.973C366.169 636.489 355.703 622.43 346.237 606.979C337.163 590.657 328.952 573.148 321.575 554.706C314.478 535.785 308.123 516.233 302.505 496.317C297.144 476.365 292.514 456.35 288.672 436.492C285.102 416.979 282.352 397.828 280.439 379.183C278.805 361.074 277.978 343.521 277.979 326.521C278.05 310.035 278.768 293.978 280.073 278.333C281.115 262.906 282.518 247.673 284.222 232.532C285.364 217.367 286.714 202.137 288.259 186.835C289.296 171.388 290.69 155.879 292.585 140.325C294.322 124.781 296.904 109.324 300.46 94.0825C304.344 79.0325 309.475 64.3068 315.931 49.9497C322.872 35.8601 331.087 22.1097 340.531 8.68882C350.138 -4.63621 360.421 -17.4979 371.167 -29.9365C381.598 -42.5594 392.225 -54.8815 402.963 -66.9018C413.213 -79.1571 423.59 -91.0508 434.139 -102.488C444.43 -113.975 455.148 -124.806 466.352 -134.845C477.723 -144.651 489.815 -153.494 502.598 -161.29C515.799 -168.672 529.713 -174.96 544.222 -180.156C559.016 -184.999 574.202 -188.834 589.625 -191.718C604.993 -194.449 620.347 -196.376 635.56 -197.54C650.45 -198.791 665.083 -199.397 679.419 -199.382C693.372 -199.609 707.073 -199.289 720.561 -198.4C733.808 -197.855 746.989 -196.79 760.174 -195.183C773.331 -193.963 786.645 -192.229 800.162 -190.003C813.824 -188.2 827.795 -185.913 842.061 -183.147C856.538 -180.8 871.344 -177.973 886.41 -174.638C901.691 -171.668 917.175 -168.123 932.777 -163.967C948.496 -160.013 964.264 -155.304 979.983 -149.76" stroke="black" stroke-opacity="0.07" stroke-linecap="round" stroke-dasharray="17 1"/>
<path opacity="0.67" d="M997.136 -109.731C1011.89 -103.572 1026.24 -96.5509 1040.11 -88.6471C1053.87 -80.4881 1067.13 -71.3453 1079.88 -61.1943C1092.47 -50.6546 1104.52 -39.0702 1116.05 -26.4655C1127.38 -13.4639 1138.17 0.521483 1148.35 15.3328C1158.26 30.4722 1167.49 46.3159 1175.9 62.6697C1183.85 79.0639 1190.8 95.721 1196.56 112.427C1201.57 128.808 1205.14 144.95 1207.11 160.622C1208.13 175.694 1207.48 190.155 1205.14 203.939C1202.08 217.164 1197.68 229.866 1192.23 242.167C1186.95 254.456 1181.4 266.85 1176.04 279.649C1172.13 293.242 1169.24 307.779 1167.68 323.462C1168.22 340.389 1170.14 358.515 1173.17 377.67C1177.41 397.501 1181.62 417.632 1185.01 437.516C1187.36 456.618 1187.28 474.448 1184.06 490.515C1178.08 504.691 1168.45 516.805 1155.36 526.958C1140.33 535.794 1123.25 543.638 1105.19 551.182C1088.19 559.41 1072.66 568.514 1059.32 578.886C1048.92 591.238 1040.93 604.984 1034.91 619.8C1030.82 635.851 1027.23 651.939 1023.28 667.403C1018.77 682.381 1012.4 695.665 1003.78 706.885C993.072 716.54 979.848 723.866 964.431 728.957C947.349 732.674 928.903 734.622 909.761 735.14C890.417 735.172 871.425 734.385 853.243 733.016C836.066 731.931 820.232 730.567 805.805 728.964C792.717 727.904 780.925 726.585 770.247 724.886C760.504 723.652 751.397 721.913 742.671 719.55C734.221 717.564 725.669 714.913 716.821 711.627C707.695 708.734 697.932 705.293 687.457 701.395C676.37 698.072 664.397 694.473 651.606 690.68C638.053 687.66 623.666 684.575 608.525 681.461C592.729 679.121 576.301 676.728 559.403 674.197C542.096 672.2 524.538 669.843 506.895 666.956C489.212 664.129 472.132 660.476 455.826 655.848C439.799 650.774 424.7 644.441 410.61 636.78C397.034 628.322 384.527 618.418 373.094 607.089C362.244 594.885 352.448 581.313 343.693 566.522C335.447 551.019 328.183 534.467 321.861 517.105C315.998 499.347 311.013 481.034 306.932 462.393C303.259 443.745 300.437 425.031 298.506 406.456C296.907 388.172 296.154 370.172 296.247 352.614C296.551 335.476 297.583 318.772 299.3 302.542C300.956 286.641 303.134 271.087 305.701 255.845C307.888 240.701 310.321 225.686 312.904 210.736C314.92 195.689 317.066 180.605 319.353 165.493C321.183 150.251 323.341 135.017 325.985 119.897C328.54 104.805 331.88 89.9567 336.172 75.4444C340.816 61.2197 346.614 47.4488 353.684 34.1925C361.207 21.2562 369.932 8.80611 379.779 -3.1942C389.784 -15.0892 400.393 -26.4414 411.345 -37.3359C422.018 -48.4168 432.808 -59.1737 443.607 -69.6269C453.928 -80.3637 464.264 -90.7562 474.637 -100.703C484.711 -110.78 495.047 -120.225 505.724 -128.917C516.465 -137.442 527.785 -145.02 539.676 -151.586C551.927 -157.77 564.81 -162.849 578.259 -166.831C592.056 -170.44 606.295 -173 620.821 -174.596C635.472 -175.985 650.212 -176.561 664.936 -176.375C679.502 -176.242 693.918 -175.49 708.099 -174.174C722.021 -173.102 735.72 -171.564 749.172 -169.576C762.425 -167.949 775.529 -165.913 788.548 -163.46C801.509 -161.449 814.512 -159.024 827.575 -156.19C840.739 -153.798 854.069 -150.997 867.614 -147.754C881.317 -144.932 895.25 -141.641 909.39 -137.843C923.708 -134.365 938.212 -130.324 952.826 -125.631C967.549 -121.129 982.34 -115.861 997.123 -109.739" stroke="black" stroke-opacity="0.07" stroke-linecap="round" stroke-dasharray="21 11"/>
<path opacity="0.25" d="M1012.17 -67.9227C1026 -61.2593 1039.41 -53.7856 1052.34 -45.4959C1065.13 -37.0199 1077.41 -27.6492 1089.12 -17.3958C1100.61 -6.86278 1111.49 4.57915 1121.71 16.8539C1131.64 29.4079 1140.83 42.7214 1149.21 56.6687C1157.19 70.7868 1164.25 85.3571 1170.27 100.227C1175.72 115.032 1179.99 129.916 1182.95 144.65C1185.19 159.098 1186.03 173.22 1185.4 186.89C1184.09 200.143 1181.41 212.92 1177.48 225.226C1173.29 237.327 1168.29 249.209 1162.73 261.042C1157.74 273.213 1152.88 285.805 1148.51 299.046C1145.56 313.237 1143.61 328.446 1142.74 344.735C1143.49 362.121 1145.15 380.454 1147.4 399.478C1150.24 418.866 1152.64 438.171 1153.92 456.89C1154.02 474.66 1151.8 490.97 1146.76 505.409C1139.4 518.056 1128.99 528.69 1115.71 537.438C1100.92 545.033 1084.47 551.658 1067.22 557.928C1050.84 564.878 1035.69 572.512 1022.3 581.246C1011.37 591.816 1002.49 603.663 995.395 616.513C990.1 630.665 985.537 644.987 981.04 658.882C976.424 672.596 970.628 684.87 963.255 695.329C954.363 704.458 943.464 711.375 930.66 716.066C916.325 719.344 900.583 720.681 883.913 720.364C866.639 719.298 849.219 717.116 832.121 714.097C815.454 711.112 799.637 707.706 784.851 704C770.997 700.78 758.237 697.396 746.513 693.827C735.623 690.851 725.484 687.655 715.913 684.192C706.719 681.272 697.698 678.025 688.659 674.415C679.509 671.363 670.01 667.974 660.051 664.274C649.623 661.17 638.526 657.837 626.733 654.288C614.327 651.429 601.168 648.403 587.329 645.212C572.904 642.675 557.883 639.909 542.388 636.875C526.524 634.258 510.378 631.19 494.102 627.493C477.794 623.864 462.001 619.433 446.852 614.099C432 608.422 417.982 601.618 404.887 593.664C392.302 585.107 380.75 575.28 370.254 564.275C360.347 552.562 351.533 539.717 343.782 525.827C336.653 511.382 330.561 496.073 325.511 480.088C321.01 463.787 317.51 447.033 314.998 430.037C312.948 412.988 311.832 395.913 311.627 378.941C311.759 362.15 312.718 345.599 314.463 329.387C316.316 313.421 318.807 297.772 321.849 282.484C324.742 267.321 327.981 252.402 331.496 237.674C334.568 222.903 337.786 208.206 341.071 193.541C343.822 178.71 346.643 163.86 349.616 149.051C352.195 134.109 355.092 119.279 358.456 104.655C361.811 90.1162 365.926 75.9507 370.921 62.2672C376.275 48.9091 382.718 36.1185 390.287 23.9948C398.318 12.2027 407.434 1.01018 417.546 -9.61229C427.831 -20.1232 438.606 -30.0249 449.66 -39.4234C460.435 -49.0332 471.269 -58.2865 482.065 -67.2216C492.365 -76.4943 502.597 -85.4343 512.772 -93.9599C522.597 -102.677 532.543 -110.826 542.667 -118.292C552.806 -125.655 563.336 -132.156 574.294 -137.674C585.547 -142.879 597.344 -147.012 609.625 -150.067C622.282 -152.746 635.376 -154.382 648.793 -155.04C662.476 -155.444 676.336 -155.018 690.275 -153.8C704.259 -152.568 718.19 -150.734 731.982 -148.328C745.693 -146.13 759.224 -143.501 772.561 -140.469C785.797 -137.788 798.872 -134.771 811.817 -131.414C824.722 -128.489 837.588 -125.245 850.439 -121.666C863.352 -118.533 876.337 -115.035 889.414 -111.175C902.624 -107.709 915.967 -103.812 929.428 -99.4426C943.036 -95.3643 956.75 -90.7483 970.532 -85.4955C984.405 -80.4117 998.299 -74.5804 1012.16 -67.9314" stroke="black" stroke-opacity="0.07" stroke-linecap="round" stroke-dasharray="22 16"/>
<path opacity="0.16" d="M1022.47 -26.3858C1035.32 -19.3103 1047.67 -11.543 1059.47 -3.12011C1071.14 5.46782 1082.2 14.778 1092.57 24.7742C1102.7 34.9975 1112.1 45.9101 1120.69 57.4157C1128.94 69.1249 1136.3 81.3496 1142.7 93.9824C1148.66 106.692 1153.53 119.654 1157.29 132.715C1160.49 145.707 1162.47 158.619 1163.18 171.353C1163.34 183.883 1162.25 196.129 1159.95 208.025C1157.26 219.757 1153.58 231.236 1149.05 242.513C1144.6 253.918 1139.74 265.408 1134.72 277.149C1130.44 289.503 1126.48 302.486 1123.09 316.23C1120.95 330.983 1119.58 346.68 1119.02 363.295C1119.58 380.795 1120.59 398.942 1121.72 417.402C1123.02 435.93 1123.57 454.063 1122.84 471.324C1120.91 487.5 1116.85 502.116 1110.37 514.853C1101.94 525.913 1091.01 535.09 1077.78 542.483C1063.39 548.88 1047.67 554.359 1031.28 559.444C1015.64 565.144 1000.98 571.408 987.775 578.55C976.569 587.397 967.099 597.359 959.214 608.23C952.958 620.452 947.53 632.919 942.498 645.148C937.649 657.476 932.18 668.641 925.699 678.293C918.214 686.916 909.234 693.534 898.763 698.077C886.973 701.284 873.886 702.503 859.809 701.957C844.934 700.501 829.612 697.724 814.215 693.866C798.79 689.792 783.761 685.097 769.359 679.957C755.438 675.132 742.299 670.11 729.999 664.959C718.253 660.395 707.215 655.744 696.783 651.034C686.66 646.952 676.871 642.771 667.248 638.463C657.594 634.8 647.814 630.991 637.824 627.022C627.471 623.684 616.702 620.202 605.443 616.553C593.684 613.513 581.362 610.3 568.517 606.891C555.175 603.997 541.345 600.843 527.135 597.325C512.611 594.153 497.839 590.483 482.996 586.176C468.106 581.925 453.707 576.941 439.926 571.142C426.405 565.104 413.688 558.101 401.857 550.126C390.496 541.689 380.142 532.23 370.847 521.775C362.134 510.817 354.516 498.913 348.013 486.195C342.108 473.046 337.308 459.209 333.606 444.849C330.452 430.227 328.348 415.253 327.274 400.083C326.64 384.847 326.954 369.556 328.156 354.349C329.631 339.204 331.876 324.215 334.8 309.441C337.781 294.735 341.286 280.225 345.201 265.931C348.905 251.592 352.867 237.357 356.982 223.233C360.69 208.935 364.45 194.644 368.273 180.368C371.604 165.882 375.028 151.4 378.594 137.02C381.861 122.519 385.476 108.218 389.539 94.223C393.657 80.3895 398.483 67.007 404.124 54.2225C410.135 41.7917 417.123 30.0598 425.122 19.0552C433.557 8.44058 442.944 -1.51468 453.201 -10.8246C463.635 -20.0036 474.452 -28.5296 485.477 -36.5129C496.259 -44.7046 507.047 -52.5448 517.718 -60.0441C527.935 -67.9112 538.032 -75.4581 547.972 -82.6403C557.549 -90.0939 567.116 -97.0185 576.74 -103.357C586.293 -109.68 596.083 -115.224 606.163 -119.87C616.448 -124.283 627.154 -127.705 638.252 -130.101C649.709 -132.153 661.588 -133.193 673.784 -133.253C686.302 -133.039 699.076 -131.954 712.005 -130.085C725.117 -128.136 738.281 -125.529 751.418 -122.35C764.637 -119.312 777.769 -115.812 790.766 -111.928C803.792 -108.326 816.687 -104.413 829.45 -100.21C842.257 -96.3734 854.98 -92.2812 867.643 -87.9148C880.377 -83.9478 893.103 -79.6798 905.825 -75.0903C918.672 -70.8734 931.56 -66.2764 944.45 -61.2551C957.464 -56.5128 970.496 -51.2749 983.501 -45.4652C996.567 -39.795 1009.58 -33.458 1022.45 -26.4047" stroke="black" stroke-opacity="0.07" stroke-linecap="round" stroke-dasharray="17 16"/>
<path opacity="0.82" d="M1026.11 12.4602C1037.91 19.7957 1049.09 27.6499 1059.64 35.9922C1070.04 44.4513 1079.73 53.4308 1088.64 62.9019C1097.31 72.5221 1105.13 82.6144 1112.05 93.0765C1118.62 103.67 1124.22 114.583 1128.78 125.703C1132.93 136.862 1135.98 148.127 1137.93 159.384C1139.42 170.609 1139.78 181.743 1139.03 192.715C1137.91 203.622 1135.78 214.385 1132.73 224.992C1129.55 235.663 1125.7 246.337 1121.34 257.064C1117.26 268.187 1113.04 279.654 1108.85 291.575C1105.42 304.254 1102.33 317.639 1099.72 331.809C1098.09 346.878 1096.98 362.763 1096.32 379.329C1096.33 396.502 1096.43 413.993 1096.29 431.468C1095.99 448.74 1094.77 465.36 1092.25 480.912C1088.59 495.321 1083.05 508.137 1075.45 519.137C1066.29 528.62 1055.12 536.337 1042.12 542.441C1028.27 547.705 1013.37 552.102 997.95 556.087C983.102 560.638 969.088 565.606 956.246 571.273C945.015 578.465 935.218 586.609 926.813 595.581C919.817 605.866 913.707 616.474 908.152 626.987C902.996 637.823 897.626 647.806 891.746 656.571C885.263 664.636 877.753 670.987 869.192 675.48C859.585 678.829 848.887 680.3 837.284 679.992C824.835 678.732 811.809 676.007 798.458 672.08C784.768 667.706 771.122 662.505 757.733 656.7C744.449 650.996 731.612 644.972 719.309 638.752C707.283 632.981 695.793 627.157 684.789 621.333C673.972 616.094 663.496 610.88 653.269 605.701C642.993 601.143 632.769 596.594 622.492 592.015C611.939 588.041 601.168 584.04 590.127 579.942C578.684 576.389 566.899 572.729 554.768 568.86C542.244 565.463 529.394 561.795 516.321 557.79C502.974 554.049 489.504 549.846 476.063 545.064C462.572 540.335 449.605 534.976 437.275 528.973C425.168 522.759 413.85 515.785 403.415 508.04C393.407 499.955 384.404 491.054 376.429 481.398C368.992 471.35 362.646 460.587 357.423 449.201C352.751 437.495 349.182 425.249 346.701 412.61C344.731 399.753 343.798 386.595 343.853 373.294C344.299 359.881 345.651 346.387 347.809 332.918C350.173 319.404 353.219 305.917 356.867 292.541C360.492 279.083 364.531 265.678 368.922 252.349C373.053 238.849 377.389 225.346 381.85 211.86C385.913 198.114 390.048 184.336 394.234 170.567C398.034 156.568 401.948 142.619 406.04 128.8C409.946 114.923 414.188 101.329 418.892 88.1168C423.693 75.0991 429.176 62.6353 435.386 50.8484C441.955 39.4464 449.397 28.8008 457.723 18.9424C466.439 9.47863 475.975 0.741416 486.28 -7.29917C496.711 -15.1978 507.456 -22.4317 518.347 -29.1007C529.027 -35.9718 539.663 -42.46 550.141 -48.6144C560.239 -55.1534 570.137 -61.3991 579.824 -67.3204C589.164 -73.5546 598.39 -79.3527 607.554 -84.6435C616.592 -90.0143 625.726 -94.7056 635.032 -98.6259C644.444 -102.404 654.163 -105.28 664.15 -107.231C674.452 -108.9 685.095 -109.596 696.045 -109.368C707.322 -108.868 718.884 -107.507 730.64 -105.333C742.666 -103.021 754.84 -100.041 767.069 -96.4629C779.493 -92.8991 791.926 -88.8812 804.307 -84.4285C816.828 -80.1853 829.283 -75.5999 841.652 -70.7338C854.128 -66.1489 866.526 -61.3145 878.837 -56.2407C891.276 -51.4898 903.647 -46.4793 915.951 -41.2092C928.394 -36.2311 940.761 -30.9417 953.052 -25.3203C965.474 -19.8977 977.79 -14.0703 989.971 -7.7857C1002.21 -1.6056 1014.29 5.12521 1026.1 12.4501" stroke="black" stroke-opacity="0.07" stroke-linecap="round" stroke-dasharray="10 21"/>
<path opacity="0.29" d="M1022.49 46.6004C1033.13 54.0322 1043.11 61.7896 1052.36 69.8396C1061.47 77.9981 1069.79 86.4674 1077.28 95.2148C1084.54 104.098 1090.91 113.237 1096.33 122.587C1101.46 132.03 1105.61 141.621 1108.74 151.297C1111.53 161.033 1113.3 170.812 1114.06 180.543C1114.51 190.334 1113.99 200.077 1112.55 209.765C1110.95 219.55 1108.55 229.356 1105.5 239.189C1102.5 249.313 1099.06 259.627 1095.32 270.219C1091.96 281.373 1088.55 293.011 1085.23 305.2C1082.57 318.158 1080.15 331.817 1078.04 346.139C1076.59 361.209 1075.39 376.857 1074.32 392.913C1073.56 409.301 1072.58 425.691 1071.13 441.784C1069.33 457.471 1066.54 472.315 1062.52 485.954C1057.45 498.489 1050.81 509.456 1042.46 518.705C1032.89 526.636 1021.73 532.977 1009.17 537.85C995.967 542.058 981.962 545.459 967.559 548.433C953.623 551.931 940.358 555.702 928.043 560.026C916.979 565.679 907.104 572.121 898.41 579.279C890.908 587.703 884.272 596.459 878.274 605.26C872.795 614.556 867.39 623.266 861.802 631.07C855.961 638.472 849.512 644.487 842.358 648.946C834.473 652.509 825.765 654.367 816.302 654.595C806.1 653.916 795.292 651.768 784.048 648.333C772.309 644.341 760.389 639.382 748.448 633.646C736.335 627.791 724.374 621.477 712.674 614.842C700.984 608.455 689.589 601.935 678.547 595.387C667.497 589.283 656.715 583.23 646.157 577.227C635.507 571.769 624.957 566.397 614.456 561.078C603.718 556.298 592.916 551.557 582.011 546.812C570.768 542.539 559.372 538.21 547.836 533.771C535.976 529.692 523.978 525.422 511.908 520.88C499.613 516.568 487.363 511.875 475.244 506.722C463.083 501.588 451.518 496.001 440.613 489.923C429.898 483.708 419.981 476.914 410.953 469.554C402.286 461.939 394.582 453.731 387.901 444.973C381.675 435.913 376.524 426.335 372.433 416.312C368.827 406.018 366.27 395.331 364.756 384.352C363.665 373.142 363.554 361.701 364.358 350.129C365.467 338.373 367.397 326.513 370.062 314.609C372.848 302.535 376.234 290.421 380.147 278.296C383.986 265.962 388.2 253.559 392.693 241.136C396.938 228.446 401.371 215.679 405.931 202.856C410.171 189.752 414.496 176.589 418.924 163.451C423.07 150.095 427.388 136.839 431.916 123.787C436.361 110.712 441.156 97.9698 446.397 85.7097C451.805 73.673 457.809 62.2583 464.489 51.5513C471.505 41.2497 479.266 31.7307 487.801 23.0471C496.662 14.7376 506.228 7.18852 516.438 0.356251C526.787 -6.32607 537.338 -12.3395 547.981 -17.8017C558.455 -23.4255 568.863 -28.6695 579.083 -33.6003C588.976 -38.8846 598.652 -43.9085 608.07 -48.653C617.17 -53.7402 626.081 -58.4731 634.861 -62.7666C643.474 -67.2629 652.074 -71.1708 660.702 -74.4473C669.4 -77.6695 678.235 -80.122 687.265 -81.7611C696.536 -83.2051 706.042 -83.7722 715.805 -83.4823C725.878 -82.943 736.199 -81.578 746.728 -79.4302C757.571 -77.1154 768.594 -74.1119 779.717 -70.4846C791.116 -66.7952 802.6 -62.6066 814.088 -57.9632C825.806 -53.4144 837.531 -48.4934 849.182 -43.2653C861.046 -38.215 872.859 -32.898 884.549 -27.3481C896.434 -22.018 908.237 -16.4534 919.908 -10.6666C931.753 -5.10048 943.474 0.73992 955.019 6.84223C966.694 12.7842 978.181 19.0599 989.438 25.6884C1000.77 32.2269 1011.8 39.1876 1022.47 46.5996" stroke="black" stroke-opacity="0.07" stroke-linecap="round" stroke-dasharray="21 2"/>
<path opacity="0.44" d="M1012.42 75.152C1021.9 82.4951 1030.65 90.0056 1038.65 97.661C1046.55 105.4 1053.63 113.298 1059.88 121.333C1065.94 129.453 1071.11 137.715 1075.38 146.055C1079.43 154.488 1082.54 163.006 1084.75 171.55C1086.71 180.184 1087.78 188.856 1087.99 197.548C1088 206.367 1087.24 215.255 1085.77 224.178C1084.23 233.364 1082.12 242.702 1079.54 252.242C1077.07 262.189 1074.33 272.482 1071.38 283.169C1068.78 294.461 1066.14 306.278 1063.56 318.63C1061.43 331.669 1059.39 345.277 1057.47 359.374C1055.92 373.995 1054.34 388.944 1052.66 404.018C1051.01 419.178 1048.94 434.091 1046.28 448.478C1043.16 462.313 1039.08 475.183 1033.89 486.845C1027.8 497.446 1020.41 506.571 1011.66 514.132C1002 520.588 991.081 525.615 979.099 529.367C966.68 532.588 953.648 535.086 940.313 537.17C927.34 539.694 914.898 542.405 903.247 545.525C892.532 549.783 882.793 554.676 874.034 560.162C866.251 566.811 859.252 573.816 852.917 580.938C847.112 588.682 841.562 596.047 836.092 602.797C827.688 612.207 808.363 624.154 797.01 626.12C788.653 626.189 779.776 624.89 770.482 622.326C760.656 619.161 750.535 614.971 740.228 609.913C729.595 604.595 718.898 598.648 708.256 592.24C697.41 585.905 686.684 579.302 676.097 572.546C665.379 566.068 654.798 559.572 644.381 553.093C633.771 546.999 623.267 540.988 612.839 535.046C602.173 529.528 591.51 524.082 580.885 518.682C569.963 513.657 559.021 508.63 548.083 503.562C536.878 498.79 525.685 493.894 514.58 488.831C503.282 483.946 492.156 478.787 481.279 473.31C470.379 467.852 460.108 462.102 450.532 456.046C441.102 449.87 432.477 443.316 424.738 436.391C417.268 429.264 410.738 421.742 405.168 413.846C399.974 405.716 395.78 397.217 392.581 388.411C389.768 379.362 387.928 370.023 387.042 360.467C386.479 350.682 386.799 340.683 387.95 330.546C389.323 320.172 391.413 309.66 394.169 299.037C396.998 288.182 400.339 277.19 404.155 266.109C407.876 254.729 411.951 243.228 416.285 231.627C420.42 219.717 424.764 207.692 429.25 195.587C433.514 183.212 437.916 170.799 442.47 158.431C446.873 145.904 451.49 133.521 456.352 121.391C461.222 109.293 466.457 97.5933 472.128 86.4236C477.983 75.4999 484.387 65.2209 491.392 55.6953C498.692 46.5511 506.651 38.2074 515.245 30.6828C524.125 23.5283 533.606 17.1272 543.62 11.4418C553.744 5.89163 564.012 0.998563 574.317 -3.32035C584.495 -7.81766 594.582 -11.9192 604.494 -15.706C614.108 -19.8535 623.51 -23.7313 632.65 -27.3752C641.496 -31.4005 650.124 -35.1149 658.575 -38.4939C666.833 -42.1303 674.992 -45.2888 683.104 -47.9539C695.282 -51.6965 720.253 -55.6781 733.233 -55.7121C742.208 -55.306 751.378 -54.134 760.726 -52.2393C770.378 -50.1594 780.203 -47.4092 790.144 -44.0358C800.388 -40.5707 810.755 -36.5645 821.158 -32.0777C831.851 -27.5834 842.568 -22.6927 853.271 -17.4506C864.221 -12.2985 875.133 -6.84947 885.968 -1.14852C897.011 4.43784 907.97 10.2443 918.783 16.2853C929.775 22.1779 940.611 28.2939 951.227 34.6478C961.989 40.8811 972.509 47.3709 982.713 54.1203C992.994 60.8254 1002.91 67.8273 1012.41 75.1407" stroke="black" stroke-opacity="0.07" stroke-linecap="round" stroke-dasharray="8 2"/>
<path opacity="0.47" d="M997.834 98.6687C1006.15 105.764 1013.75 112.957 1020.64 120.185C1027.44 127.481 1033.47 134.845 1038.72 142.275C1045.97 153.56 1056.21 176.561 1059.2 188.254C1061.18 200.229 1061.46 224.937 1060.02 237.816C1058.9 246.784 1057.31 256.014 1055.37 265.542C1053.56 275.511 1051.5 285.879 1049.29 296.671C1047.31 307.992 1045.24 319.8 1043.11 332.059C1041.24 344.819 1039.31 357.954 1037.3 371.392C1035.43 385.113 1033.33 398.903 1030.94 412.584C1028.42 426.149 1025.36 439.266 1021.68 451.708C1017.51 463.542 1012.48 474.374 1006.46 484.016C999.758 492.713 991.986 500.073 983.148 506.042C973.636 511.111 963.189 514.946 951.942 517.684C940.404 520.021 928.392 521.708 916.149 523.004C904.199 524.702 892.677 526.466 881.758 528.513C871.565 531.532 862.13 535.045 853.488 539.028C845.612 544.062 838.438 549.415 831.872 554.957C822.945 564.152 806.469 580.961 798.151 587.472C789.222 592.423 768.998 595.632 757.636 593.848C749.479 591.751 741 588.643 732.289 584.62C723.2 580.277 713.931 575.216 704.573 569.587C694.916 563.869 685.214 557.768 675.537 551.378C665.593 545.092 655.692 538.667 645.856 532.158C635.783 525.894 625.742 519.625 615.791 513.38C605.565 507.426 595.405 501.514 585.3 495.653C574.934 490.054 564.627 484.484 554.425 478.911C544 473.553 533.679 468.138 523.548 462.639C513.273 457.263 503.234 451.714 493.527 445.978C483.789 440.248 474.72 434.371 466.335 428.341C458.068 422.225 450.589 415.877 443.917 409.322C437.468 402.603 431.905 395.636 427.224 388.442C421.075 377.224 413.697 353.335 412.386 340.724C412.031 332.005 412.467 323.107 413.618 314.049C414.936 304.725 416.896 295.24 419.413 285.603C421.986 275.671 425.044 265.586 428.512 255.346C431.915 244.792 435.656 234.082 439.667 223.248C443.569 212.114 447.688 200.857 452.004 189.548C456.197 178.021 460.592 166.474 465.19 155.031C469.731 143.486 474.544 132.139 479.645 121.089C484.802 110.142 490.342 99.6212 496.298 89.646C502.44 79.9509 509.096 70.9113 516.264 62.6001C523.696 54.6752 531.686 47.5173 540.2 41.1522C548.963 35.1294 558.221 29.8115 567.911 25.2092C577.695 20.7367 587.578 16.8964 597.463 13.5789C607.262 10.1433 616.942 7.06535 626.457 4.30632C635.761 1.23187 644.83 -1.61801 653.657 -4.25518C666.416 -8.6367 690.604 -16.5217 702.202 -19.7687C713.652 -22.7987 736.655 -26.1355 748.388 -26.247C756.439 -26.0067 764.615 -25.0988 772.908 -23.5351C781.453 -21.8481 790.15 -19.5312 798.949 -16.6024C808.036 -13.5762 817.227 -10.0113 826.475 -5.94611C836 -1.84789 845.58 2.69789 855.175 7.61187C865.001 12.5203 874.817 17.7615 884.579 23.2765C894.547 28.7505 904.443 34.4747 914.188 40.4363C924.123 46.3129 933.877 52.4118 943.421 58.7181C953.1 64.962 962.504 71.4241 971.585 78.0861C980.733 84.7169 989.501 91.5702 997.825 98.6568" stroke="black" stroke-opacity="0.07" stroke-linecap="round" stroke-dasharray="16 6"/>
<path opacity="0.7" d="M981.026 119.019C988.236 125.79 994.801 132.609 1000.73 139.459C1009.16 149.835 1022.46 170.909 1027.33 181.649C1031.32 192.62 1035.9 215.291 1036.64 227.085C1036.9 235.246 1036.65 243.614 1035.95 252.232C1035.28 261.151 1034.23 270.392 1032.88 279.955C1031.6 289.904 1030.09 300.226 1028.37 310.925C1026.76 322.019 1024.99 333.466 1023.05 345.207C1021.19 357.248 1019.14 369.492 1016.86 381.822C1014.55 394.2 1011.9 406.47 1008.83 418.43C1005.57 430.123 1001.73 441.26 997.271 451.656C992.384 461.422 986.745 470.231 980.29 477.933C973.302 484.831 965.485 490.545 956.837 495.074C947.723 498.878 937.915 501.653 927.519 503.487C916.93 505.046 905.997 506.045 894.873 506.663C883.958 507.634 873.403 508.598 863.295 509.745C853.719 511.694 844.733 513.993 836.384 516.664C825.018 522.175 805.596 535.218 797.084 541.985C789.02 548.776 772.881 559.122 764.398 562.07C755.289 563.529 735.265 560.961 724.363 557.116C716.674 553.95 708.775 550.051 700.728 545.519C692.369 540.822 683.884 535.634 675.325 530.06C666.475 524.464 657.576 518.604 648.657 512.55C639.493 506.6 630.31 500.541 621.165 494.406C611.775 488.428 602.417 482.447 593.128 476.439C583.618 470.625 574.176 464.784 564.893 458.946C555.408 453.255 546.07 447.521 536.976 441.735C527.767 436.04 518.823 430.244 510.238 424.305C501.636 418.393 493.659 412.428 486.339 406.405C479.109 400.307 472.598 394.111 466.83 387.803C458.828 378.071 447.05 357.646 443.302 346.918C440.64 335.718 439.252 312.127 440.356 299.74C441.419 291.18 443.052 282.428 445.186 273.51C447.369 264.317 450.005 254.938 453.012 245.408C456.016 235.601 459.351 225.635 462.995 215.556C466.567 205.229 470.42 194.826 474.52 184.403C478.577 173.833 482.89 163.309 487.479 152.918C492.061 142.515 496.95 132.349 502.158 122.516C507.48 112.835 513.167 103.613 519.254 94.9334C525.522 86.5362 532.233 78.7743 539.402 71.725C546.791 65.0198 554.646 59.0394 562.954 53.7918C571.447 48.8592 580.341 44.6058 589.593 40.9905C598.944 37.5023 608.333 34.6143 617.71 32.2201C627.023 29.7277 636.238 27.594 645.297 25.733C654.191 23.614 662.879 21.7143 671.357 20.0013C683.652 17.0174 706.956 11.6149 718.075 9.36818C728.956 7.15381 750.464 4.65669 761.218 4.5705C772.198 5.05114 794.788 8.88665 806.419 12.246C814.423 14.7409 822.508 17.7395 830.646 21.225C839.025 24.7632 847.433 28.7515 855.863 33.1249C864.519 37.5265 873.153 42.272 881.745 47.357C890.524 52.4087 899.236 57.7631 907.824 63.3542C916.565 68.9156 925.156 74.7296 933.526 80.7382C942.017 86.7205 950.249 92.9212 958.179 99.2989C966.174 105.67 973.796 112.245 981.018 119.007" stroke="black" stroke-opacity="0.07" stroke-linecap="round" stroke-dasharray="14 18"/>
<path opacity="0.35" d="M963.887 138.715C972.884 148.347 988.072 167.983 994.204 178.002C1001.75 191.613 1007.01 205.676 1010.16 220.187C1012.99 235.34 1013.94 251.324 1013.28 268.221C1012.61 286.165 1010.64 305.31 1007.64 325.485C1004.72 346.637 1000.73 368.429 995.557 390.108C989.92 411.431 982.499 431.277 972.988 448.479C962.055 463.415 948.536 474.646 932.512 481.775C923.993 484.469 914.957 486.331 905.485 487.416C895.906 488.311 886.067 488.715 876.075 488.786C866.221 489.132 856.645 489.438 847.428 489.844C838.568 490.887 830.158 492.163 822.225 493.724C807.611 499.072 794.693 505.142 783.189 511.255C772.396 518.693 761.976 524.498 751.586 527.975C740.582 530.776 728.943 530.449 716.676 527.127C703.285 522.76 689.195 515.806 674.682 506.879C659.061 497.619 643.13 487.06 627.187 475.737C610.304 464.708 593.537 453.229 577.255 441.511C568.873 435.804 560.643 430.011 552.653 424.167C544.554 418.368 536.739 412.477 529.251 406.485C521.739 400.507 514.807 394.52 508.463 388.506C502.182 382.455 496.533 376.335 491.535 370.183C481.922 357.547 475.047 344.479 470.819 330.994C467.238 316.812 466.188 302.01 467.4 286.641C469.018 270.357 472.558 253.379 477.687 235.892C482.912 217.531 489.47 198.773 497.207 180.055C505.008 161.034 514.06 142.599 524.357 125.458C535.113 109.013 547.389 94.5276 561.199 82.5635C568.38 77.0715 575.945 72.2343 583.882 68.0589C591.963 64.1707 600.381 60.8808 609.102 58.1907C617.888 55.6151 626.706 53.574 635.494 51.9855C644.233 50.3405 652.903 49.0191 661.416 47.9864C678.094 45.1796 694.09 43.1249 709.246 41.6926C723.881 39.0956 737.945 37.3892 751.5 36.7731C765.027 35.6025 778.455 36.0123 791.834 38.124C805.686 40.2718 819.739 44.2991 833.865 50.0944C848.686 56.0523 863.61 63.6264 878.333 72.57C893.699 81.5544 908.735 91.7118 923.067 102.851C930.369 108.395 937.46 114.158 944.273 120.143C951.132 126.12 957.687 132.301 963.88 138.702" stroke="black" stroke-opacity="0.07" stroke-linecap="round" stroke-dasharray="25 13"/>
<path opacity="0.89" d="M947.383 160.041C957.874 172.081 966.525 184.612 973.344 197.515C979.913 210.637 984.62 224.373 987.611 238.686C990.348 253.511 991.482 269.182 991.198 285.641C990.77 302.804 989.059 320.835 986.16 339.395C983.082 358.352 978.722 377.347 973.006 395.656C966.689 413.233 958.648 429.069 948.746 442.351C937.774 453.67 924.752 461.846 909.84 466.638C894.14 469.882 877.095 470.728 859.284 469.868C841.9 469.921 825.477 470.009 810.392 470.713C796.47 473.773 783.849 477.434 772.4 481.271C761.61 486.558 751.338 490.877 741.357 493.691C731.116 496.404 720.604 496.862 709.785 494.953C698.182 492.369 686.061 487.52 673.614 480.736C660.245 473.556 646.564 464.904 632.83 455.141C618.324 445.428 603.886 434.953 589.858 423.92C575.331 413.097 561.47 401.74 548.711 389.911C535.873 378.12 525.067 366.2 516.391 354.152C508.071 341.834 502.02 329.142 498.2 316.127C494.842 302.561 493.639 288.451 494.373 273.883C495.487 258.628 498.33 242.823 502.692 226.701C507.268 210.019 513.237 193.195 520.444 176.646C527.886 160.079 536.632 144.29 546.618 129.846C557.073 116.165 568.925 104.353 582.098 94.8204C595.827 86.3974 610.833 80.2275 626.898 76.3347C643.187 72.8687 659.44 71.0936 675.326 70.5357C690.907 69.2825 705.951 68.7288 720.291 68.7293C734.244 67.6679 747.653 67.293 760.526 67.6829C773.309 67.3862 785.863 68.2561 798.163 70.4031C810.758 72.3573 823.357 75.82 835.855 80.7769C848.844 85.7391 861.796 92.1962 874.5 99.9762C887.668 107.774 900.502 116.79 912.725 126.883C925.202 136.933 936.859 148 947.377 160.027" stroke="black" stroke-opacity="0.07" stroke-linecap="round" stroke-dasharray="22 19"/>
<path opacity="0.88" d="M931.396 184.14C940.184 195.38 947.463 207.248 953.255 219.608C958.851 232.145 962.916 245.335 965.528 259.098C967.919 273.205 968.901 287.994 968.576 303.327C968.036 319.018 966.217 335.13 963.162 351.314C959.79 367.456 955.099 383.166 949.027 397.838C942.408 411.615 934.234 423.666 924.501 433.378C914.031 441.546 901.966 447.136 888.491 450.022C874.553 451.869 859.581 451.804 843.997 450.303C828.696 449.522 814.04 448.583 800.319 447.951C787.342 449.144 775.312 450.75 764.184 452.55C753.558 455.706 743.472 458.337 733.783 460.06C724.02 462.098 714.254 462.572 704.43 461.347C694.116 459.819 683.53 456.459 672.774 451.399C661.371 446.038 649.744 439.19 638.111 431.11C625.887 422.976 613.746 413.827 601.995 403.867C589.844 394.01 578.263 383.395 567.605 372.11C556.907 360.842 547.862 349.329 540.572 337.624C533.529 325.753 528.357 313.514 525.006 300.976C522.019 288.097 520.832 274.754 521.321 261.108C522.149 247.021 524.537 232.617 528.352 218.109C532.441 203.345 537.889 188.696 544.581 174.525C551.584 160.572 559.842 147.505 569.296 135.791C579.155 124.825 590.245 115.561 602.498 108.296C615.133 101.947 628.868 97.5604 643.483 95.1324C658.267 93.0763 673.032 92.5307 687.511 93.0846C701.81 93.1284 715.714 93.8583 729.058 95.1058C742.149 95.4781 754.778 96.3748 766.902 97.8451C778.925 98.6146 790.655 100.201 802.033 102.726C813.57 104.915 824.951 108.245 836.084 112.768C847.533 117.176 858.81 122.842 869.781 129.711C881.036 136.54 891.947 144.557 902.271 153.671C912.768 162.746 922.561 172.903 931.396 184.14Z" stroke="black" stroke-opacity="0.07" stroke-linecap="round" stroke-dasharray="9 21"/>
<path opacity="0.78" d="M914.937 210.52C922.172 220.893 928.146 231.907 932.858 243.423C937.436 255.047 940.702 267.253 942.728 279.891C944.548 292.693 945.118 305.947 944.49 319.402C943.614 332.944 941.528 346.52 938.252 359.785C934.658 372.759 929.807 385.011 923.73 396.099C917.208 406.351 909.371 415.006 900.283 421.67C890.713 427.217 879.952 430.722 868.127 432.155C856.045 432.935 843.151 432.188 829.739 430.263C816.504 428.893 803.658 427.218 791.428 425.622C779.645 425.354 768.488 425.286 757.993 425.343C747.828 426.567 738.107 427.514 728.799 427.914C719.503 428.836 710.336 428.754 701.287 427.502C691.965 426.268 682.583 423.664 673.215 419.678C663.416 415.565 653.561 410.141 643.796 403.51C633.638 396.816 623.613 389.039 613.971 380.324C604.044 371.632 594.627 362.051 585.987 351.641C577.307 341.246 569.992 330.468 564.092 319.444C558.375 308.325 554.167 296.834 551.439 285.106C548.999 273.185 548.059 260.957 548.55 248.57C549.333 236.004 551.495 223.313 554.938 210.748C558.671 198.174 563.656 185.906 569.808 174.282C576.247 162.991 583.862 152.636 592.552 143.544C601.556 135.132 611.647 128.196 622.695 122.984C634.025 118.492 646.263 115.632 659.278 114.465C672.394 113.587 685.518 114.021 698.448 115.45C711.272 116.53 723.838 118.288 735.999 120.526C747.994 122.111 759.64 124.159 770.835 126.641C781.956 128.516 792.772 130.976 803.209 134.125C813.72 136.862 823.983 140.443 833.912 144.928C844.005 149.218 853.844 154.508 863.295 160.815C872.911 167.018 882.14 174.284 890.787 182.588C899.54 190.839 907.656 200.147 914.937 210.52Z" stroke="black" stroke-opacity="0.07" stroke-linecap="round" stroke-dasharray="20 3"/>
<path opacity="0.7" d="M896.795 237.073C902.598 246.445 907.291 256.344 910.918 266.606C914.441 276.928 916.842 287.63 918.156 298.564C919.321 309.51 919.369 320.637 918.362 331.684C917.143 342.624 914.825 353.33 911.456 363.485C907.83 373.272 903.122 382.243 897.365 390.085C891.329 397.264 884.226 403.09 876.14 407.329C867.798 410.821 858.527 412.755 848.466 413.138C838.27 413.149 827.434 411.976 816.124 409.83C804.922 408.063 793.921 405.935 783.3 403.699C772.923 402.381 762.915 401.079 753.355 399.802C743.982 399.398 734.954 398.819 726.255 397.905C717.592 397.541 709.114 396.549 700.85 394.813C692.439 393.255 684.118 390.73 675.943 387.223C667.528 383.724 659.192 379.169 651.065 373.585C642.693 367.994 634.551 361.396 626.802 353.883C618.872 346.375 611.431 337.97 604.661 328.721C597.863 319.481 592.19 309.815 587.679 299.864C583.267 289.885 580.089 279.601 578.121 269.141C576.349 258.625 575.819 247.939 576.472 237.25C577.366 226.554 579.431 215.92 582.629 205.587C586.047 195.388 590.577 185.632 596.125 176.574C601.898 167.878 608.697 160.073 616.425 153.401C624.373 147.289 633.218 142.41 642.88 138.968C652.722 136.052 663.326 134.483 674.569 134.311C685.894 134.374 697.262 135.547 708.494 137.579C719.688 139.425 730.71 141.895 741.451 144.871C752.117 147.367 762.517 150.319 772.549 153.632C782.556 156.482 792.265 159.781 801.629 163.573C811.01 166.996 820.108 171.03 828.831 175.717C837.642 180.181 846.123 185.408 854.175 191.423C862.326 197.305 870.041 204.054 877.18 211.665C884.382 219.228 890.974 227.692 896.795 237.073Z" stroke="black" stroke-opacity="0.07" stroke-linecap="round" stroke-dasharray="9 9"/>
<path opacity="0.89" d="M876.072 260.69C884.954 277.102 889.999 294.693 891.405 312.327C892.379 329.832 889.549 346.773 883.237 361.494C876.296 374.994 865.802 385.078 852.285 390.418C838.268 394.044 821.54 393.395 802.958 388.895C784.627 385.461 766.694 380.787 749.924 375.825C733.521 373.265 717.854 369.705 703.295 364.598C688.44 360.454 674.117 353.576 661.008 343.737C647.308 333.999 634.834 321.088 624.721 305.262C614.52 289.441 608.168 272.229 605.639 254.724C603.622 237.301 605.636 219.852 611.344 203.754C617.68 188.4 627.641 175.233 640.716 165.729C654.29 157.805 670.785 153.959 689.513 154.793C708.398 156.34 727.46 161.183 745.722 168.087C763.864 173.911 781.321 181.367 797.41 190.143C813.578 197.854 828.662 207.495 841.937 219.167C855.408 230.436 867.116 244.279 876.072 260.69Z" stroke="black" stroke-opacity="0.07" stroke-linecap="round" stroke-dasharray="2 2"/>
<path opacity="0.2" d="M852.624 278.276C859.098 291.906 862.381 305.738 862.749 318.914C862.864 331.893 859.961 343.76 854.352 353.413C848.426 362.289 839.822 368.386 828.978 371.028C817.925 372.83 804.825 371.544 790.22 367.336C775.722 363.791 761.264 358.834 747.501 353.233C733.868 349.091 720.707 344.015 708.512 337.956C696.175 332.674 684.523 325.67 674.155 316.805C663.515 308.086 654.153 297.196 646.952 284.288C639.676 271.378 635.514 257.687 634.349 244.151C633.444 230.766 635.672 217.825 640.742 206.38C646.178 195.556 654.417 186.723 665.039 180.85C675.94 175.981 689.09 174.257 704.012 176.108C719.024 178.432 734.25 183.473 748.946 190.284C763.619 196.581 777.806 204.361 790.877 213.207C803.997 221.44 816.137 231.027 826.599 241.859C837.182 252.435 846.118 264.635 852.624 278.276Z" stroke="black" stroke-opacity="0.07" stroke-linecap="round" stroke-dasharray="11 8"/>
<path opacity="0.29" d="M827.119 287.707C831.447 298.204 833.364 308.225 833.108 317.216C831.492 329.896 817.879 346.584 806.574 349.291C798.441 349.991 788.831 348.551 778.066 344.952C767.323 341.732 756.489 337.157 746.061 331.808C735.646 327.176 725.527 321.692 716.189 315.514C706.768 309.814 698.002 303.05 690.431 295.315C682.711 287.712 676.187 278.873 671.437 268.991C666.643 259.113 664.216 249.129 663.995 239.628C664.938 225.945 677.658 204.753 688.85 199.02C696.984 196.441 706.741 196.136 717.813 198.398C728.915 200.965 740.208 205.567 751.159 211.598C762.093 217.454 772.714 224.575 782.464 232.516C792.231 240.192 801.198 248.814 808.805 258.072C816.46 267.222 822.762 277.213 827.119 287.707Z" stroke="black" stroke-opacity="0.07" stroke-linecap="round" stroke-dasharray="4 26"/>
<path opacity="0.67" d="M800.714 288.601C805.087 308.455 786.495 326.716 766.863 321.625C752.782 316.816 738.209 307.906 725.862 297.355C713.373 287.584 702.909 275.202 697.484 261.705C692.016 248.224 692.874 236.132 698.794 228.04C704.884 220.54 715.979 217.816 730.437 221.82C744.931 226.35 759.965 236.176 772.595 248.279C785.273 260.131 795.64 274.403 800.714 288.601Z" stroke="black" stroke-opacity="0.07" stroke-linecap="round" stroke-dasharray="24 3"/>
</g>
<defs>
<clipPath id="clip0_603_23479">
<rect width="1520" height="1526" fill="white" transform="translate(0 -469)"/>
</clipPath>
</defs>
</svg>
