<svg width="18" height="16" viewBox="0 0 18 16" fill="none" xmlns="http://www.w3.org/2000/svg">
<path d="M16.5003 0.5C16.7213 0.5 16.9333 0.587797 17.0896 0.744078C17.2459 0.900358 17.3337 1.11232 17.3337 1.33333V5.91667C16.7811 5.91667 16.2512 6.13616 15.8605 6.52686C15.4698 6.91756 15.2503 7.44747 15.2503 8C15.2503 8.55253 15.4698 9.08244 15.8605 9.47314C16.2512 9.86384 16.7811 10.0833 17.3337 10.0833V14.6667C17.3337 14.8877 17.2459 15.0996 17.0896 15.2559C16.9333 15.4122 16.7213 15.5 16.5003 15.5H1.50033C1.27931 15.5 1.06735 15.4122 0.91107 15.2559C0.75479 15.0996 0.666992 14.8877 0.666992 14.6667V10.0833C1.21953 10.0833 1.74943 9.86384 2.14013 9.47314C2.53083 9.08244 2.75033 8.55253 2.75033 8C2.75033 7.44747 2.53083 6.91756 2.14013 6.52686C1.74943 6.13616 1.21953 5.91667 0.666992 5.91667V1.33333C0.666992 1.11232 0.75479 0.900358 0.91107 0.744078C1.06735 0.587797 1.27931 0.5 1.50033 0.5H16.5003ZM15.667 2.16667H2.33366V4.64L2.46366 4.7075C3.02893 5.01587 3.50526 5.4646 3.8468 6.01047C4.18833 6.55634 4.38355 7.18096 4.41366 7.82417L4.41699 8C4.4171 8.67353 4.23576 9.33466 3.89203 9.91389C3.54831 10.4931 3.0549 10.969 2.46366 11.2917L2.33366 11.36V13.8333H15.667V11.3592L15.537 11.2925C14.9717 10.9841 14.4954 10.5354 14.1539 9.98953C13.8123 9.44366 13.6171 8.81904 13.587 8.17583L13.5837 8C13.5837 6.58 14.3728 5.34417 15.537 4.70833L15.667 4.63917V2.16667ZM12.3337 5.5V10.5H5.66699V5.5H12.3337Z" fill="#272A32"/>
</svg>
