<svg width="48" height="48" viewBox="0 0 48 48" fill="none" xmlns="http://www.w3.org/2000/svg">
<rect width="48" height="48" rx="24" fill="#F2F2F3"/>
<path d="M15.064 19.51C15.896 17.8532 17.1724 16.4605 18.7504 15.4875C20.3285 14.5144 22.1461 13.9994 24 14C26.695 14 28.959 14.99 30.69 16.605L27.823 19.473C26.786 18.482 25.468 17.977 24 17.977C21.395 17.977 19.19 19.737 18.405 22.1C18.205 22.7 18.091 23.34 18.091 24C18.091 24.66 18.205 25.3 18.405 25.9C19.191 28.264 21.395 30.023 24 30.023C25.345 30.023 26.49 29.668 27.386 29.068C27.9054 28.726 28.3501 28.2822 28.6932 27.7635C29.0363 27.2448 29.2706 26.6619 29.382 26.05H24V22.182H33.418C33.536 22.836 33.6 23.518 33.6 24.227C33.6 27.273 32.51 29.837 30.618 31.577C28.964 33.105 26.7 34 24 34C22.6866 34.0005 21.386 33.7422 20.1725 33.2399C18.9591 32.7375 17.8565 32.0009 16.9278 31.0722C15.9991 30.1436 15.2625 29.041 14.7601 27.8275C14.2578 26.614 13.9995 25.3134 14 24C14 22.386 14.386 20.86 15.064 19.51Z" fill="#3D434F"/>
</svg>
