<svg width="30" height="24" viewBox="0 0 30 24" fill="none" xmlns="http://www.w3.org/2000/svg">
<path d="M14.011 0.178975L14.0567 23.8139C14.0567 23.9744 13.8435 24.0547 13.7064 23.9584L9.56277 20.3297V4.73897H0.178786C0.0670718 4.71756 -0.0344863 4.54629 0.0112148 4.41784L2.9818 0.0986934C3.00718 0.0665808 3.07929 0.00235555 3.1646 0.00235555H13.813C13.8789 -0.00834866 14.0107 0.0119893 14.011 0.178975Z" fill="#2F343D"/>
<path d="M15.989 23.821L15.932 0.337804C15.932 0.17724 16.1001 0 16.2987 0L20.1796 3.57191e-07C20.353 0.0691688 20.408 0.14428 20.4372 0.337804V19.261L29.8212 19.261C29.9329 19.2824 30.0345 19.4537 29.9888 19.5822L27.0182 23.9013C26.9928 23.9334 26.9207 23.9976 26.8354 23.9976L16.187 23.9976C16.1211 24.0083 15.9893 23.988 15.989 23.821Z" fill="#2F343D"/>
</svg>
