<svg width="16" height="19" viewBox="0 0 16 19" fill="none" xmlns="http://www.w3.org/2000/svg">
<path d="M8 18.7731L2.69667 13.4698C1.64779 12.4209 0.933489 11.0845 0.644107 9.62965C0.354725 8.17479 0.503256 6.6668 1.07092 5.29636C1.63858 3.92592 2.59987 2.75458 3.83324 1.93048C5.0666 1.10637 6.51665 0.666504 8 0.666504C9.48336 0.666504 10.9334 1.10637 12.1668 1.93048C13.4001 2.75458 14.3614 3.92592 14.9291 5.29636C15.4968 6.6668 15.6453 8.17479 15.3559 9.62965C15.0665 11.0845 14.3522 12.4209 13.3033 13.4698L8 18.7731ZM12.125 12.2914C12.9408 11.4756 13.4963 10.4362 13.7213 9.30467C13.9463 8.17313 13.8308 7.00027 13.3892 5.9344C12.9477 4.86854 12.2 3.95753 11.2408 3.31658C10.2815 2.67563 9.1537 2.33353 8 2.33353C6.8463 2.33353 5.71851 2.67563 4.75924 3.31658C3.79997 3.95753 3.05229 4.86854 2.61076 5.9344C2.16923 7.00027 2.05368 8.17313 2.27871 9.30467C2.50374 10.4362 3.05926 11.4756 3.875 12.2914L8 16.4164L12.125 12.2914ZM8 9.83311C7.55798 9.83311 7.13405 9.65751 6.82149 9.34495C6.50893 9.03239 6.33334 8.60847 6.33334 8.16644C6.33334 7.72441 6.50893 7.30049 6.82149 6.98793C7.13405 6.67537 7.55798 6.49977 8 6.49977C8.44203 6.49977 8.86595 6.67537 9.17852 6.98793C9.49108 7.30049 9.66667 7.72441 9.66667 8.16644C9.66667 8.60847 9.49108 9.03239 9.17852 9.34495C8.86595 9.65751 8.44203 9.83311 8 9.83311Z" fill="#3D434F"/>
</svg>
