<svg width="18" height="19" viewBox="0 0 18 19" fill="none" xmlns="http://www.w3.org/2000/svg">
<path d="M15.667 13.1665H17.3337V14.8332H0.666992V13.1665H2.33366V7.33317C2.33366 5.56506 3.03604 3.86937 4.28628 2.61913C5.53652 1.36888 7.23222 0.666504 9.00033 0.666504C10.7684 0.666504 12.4641 1.36888 13.7144 2.61913C14.9646 3.86937 15.667 5.56506 15.667 7.33317V13.1665ZM14.0003 13.1665V7.33317C14.0003 6.00709 13.4735 4.73532 12.5359 3.79764C11.5982 2.85995 10.3264 2.33317 9.00033 2.33317C7.67424 2.33317 6.40247 2.85995 5.46479 3.79764C4.52711 4.73532 4.00033 6.00709 4.00033 7.33317V13.1665H14.0003ZM6.50033 16.4998H11.5003V18.1665H6.50033V16.4998Z" fill="#3D434F"/>
</svg>
