<svg width="15" height="14" viewBox="0 0 15 14" fill="none" xmlns="http://www.w3.org/2000/svg">
<path d="M7.49967 13.6668C3.81767 13.6668 0.833008 10.6822 0.833008 7.00016C0.833008 3.31816 3.81767 0.333496 7.49967 0.333496C11.1817 0.333496 14.1663 3.31816 14.1663 7.00016C14.1663 10.6822 11.1817 13.6668 7.49967 13.6668ZM6.58101 4.61016C6.54089 4.58339 6.49425 4.56801 6.44608 4.56564C6.3979 4.56328 6.34999 4.57403 6.30744 4.59674C6.26489 4.61945 6.22929 4.65328 6.20445 4.69462C6.1796 4.73596 6.16643 4.78326 6.16634 4.8315V9.16883C6.16643 9.21706 6.1796 9.26437 6.20445 9.30571C6.22929 9.34705 6.26489 9.38088 6.30744 9.40359C6.34999 9.4263 6.3979 9.43705 6.44608 9.43468C6.49425 9.43232 6.54089 9.41693 6.58101 9.39016L9.83368 7.22216C9.87025 7.19782 9.90025 7.16482 9.921 7.12609C9.94174 7.08736 9.9526 7.0441 9.9526 7.00016C9.9526 6.95623 9.94174 6.91297 9.921 6.87424C9.90025 6.83551 9.87025 6.80251 9.83368 6.77816L6.58034 4.61016H6.58101Z" fill="#272A32"/>
</svg>
