<svg width="24" height="32" viewBox="0 0 24 32" fill="none" xmlns="http://www.w3.org/2000/svg">
<path d="M24 32H21V29C21 27.8065 20.5259 26.6619 19.682 25.818C18.8381 24.9741 17.6935 24.5 16.5 24.5H7.5C6.30653 24.5 5.16193 24.9741 4.31802 25.818C3.47411 26.6619 3 27.8065 3 29V32H0V29C0 27.0109 0.790176 25.1032 2.1967 23.6967C3.60322 22.2902 5.51088 21.5 7.5 21.5H16.5C18.4891 21.5 20.3968 22.2902 21.8033 23.6967C23.2098 25.1032 24 27.0109 24 29V32ZM12 18.5C10.8181 18.5 9.64778 18.2672 8.55585 17.8149C7.46392 17.3626 6.47177 16.6997 5.63604 15.864C4.80031 15.0282 4.13738 14.0361 3.68508 12.9442C3.23279 11.8522 3 10.6819 3 9.5C3 8.3181 3.23279 7.14778 3.68508 6.05585C4.13738 4.96392 4.80031 3.97177 5.63604 3.13604C6.47177 2.30031 7.46392 1.63738 8.55585 1.18508C9.64778 0.732792 10.8181 0.5 12 0.5C14.3869 0.5 16.6761 1.44821 18.364 3.13604C20.0518 4.82387 21 7.11305 21 9.5C21 11.8869 20.0518 14.1761 18.364 15.864C16.6761 17.5518 14.3869 18.5 12 18.5ZM12 15.5C13.5913 15.5 15.1174 14.8679 16.2426 13.7426C17.3679 12.6174 18 11.0913 18 9.5C18 7.9087 17.3679 6.38258 16.2426 5.25736C15.1174 4.13214 13.5913 3.5 12 3.5C10.4087 3.5 8.88258 4.13214 7.75736 5.25736C6.63214 6.38258 6 7.9087 6 9.5C6 11.0913 6.63214 12.6174 7.75736 13.7426C8.88258 14.8679 10.4087 15.5 12 15.5Z" fill="#3D434F"/>
</svg>
