<svg width="16" height="16" viewBox="0 0 16 16" fill="none" xmlns="http://www.w3.org/2000/svg">
<path d="M8.00065 14.6663C4.31865 14.6663 1.33398 11.6817 1.33398 7.99967C1.33398 4.31767 4.31865 1.33301 8.00065 1.33301C11.6827 1.33301 14.6673 4.31767 14.6673 7.99967C14.6673 11.6817 11.6827 14.6663 8.00065 14.6663ZM8.00065 13.333C9.41514 13.333 10.7717 12.7711 11.7719 11.7709C12.7721 10.7707 13.334 9.41416 13.334 7.99967C13.334 6.58519 12.7721 5.22863 11.7719 4.22844C10.7717 3.22824 9.41514 2.66634 8.00065 2.66634C6.58616 2.66634 5.22961 3.22824 4.22942 4.22844C3.22922 5.22863 2.66732 6.58519 2.66732 7.99967C2.66732 9.41416 3.22922 10.7707 4.22942 11.7709C5.22961 12.7711 6.58616 13.333 8.00065 13.333V13.333ZM7.33398 9.99967H8.66732V11.333H7.33398V9.99967ZM8.66732 8.90301V9.33301H7.33398V8.33301C7.33398 8.1562 7.40422 7.98663 7.52925 7.8616C7.65427 7.73658 7.82384 7.66634 8.00065 7.66634C8.19004 7.66633 8.37553 7.61254 8.53553 7.51123C8.69554 7.40992 8.82349 7.26525 8.9045 7.09406C8.9855 6.92288 9.01623 6.73221 8.99311 6.54424C8.96998 6.35627 8.89395 6.17873 8.77387 6.03228C8.65379 5.88583 8.49459 5.77649 8.3148 5.71699C8.135 5.65748 7.94201 5.65025 7.75827 5.69614C7.57453 5.74204 7.40759 5.83916 7.2769 5.97622C7.1462 6.11328 7.0571 6.28463 7.01998 6.47034L5.71198 6.20834C5.79307 5.80306 5.98032 5.42659 6.2546 5.1174C6.52887 4.80821 6.88033 4.5774 7.27304 4.44855C7.66576 4.31971 8.08564 4.29747 8.48977 4.38408C8.8939 4.4707 9.26779 4.66308 9.5732 4.94156C9.87861 5.22003 10.1046 5.57461 10.2281 5.96905C10.3515 6.36349 10.368 6.78364 10.2759 7.18655C10.1838 7.58946 9.98629 7.96067 9.70367 8.26225C9.42104 8.56383 9.06341 8.78495 8.66732 8.90301V8.90301Z" fill="#FFED00"/>
</svg>
