<svg width="13" height="12" viewBox="0 0 13 12" fill="none" xmlns="http://www.w3.org/2000/svg">
<path d="M11.7503 0.75C11.905 0.75 12.0534 0.811458 12.1628 0.920854C12.2722 1.03025 12.3337 1.17862 12.3337 1.33333V4.54167C11.9469 4.54167 11.576 4.69531 11.3025 4.9688C11.029 5.24229 10.8753 5.61323 10.8753 6C10.8753 6.38677 11.029 6.75771 11.3025 7.0312C11.576 7.30469 11.9469 7.45833 12.3337 7.45833V10.6667C12.3337 10.8214 12.2722 10.9697 12.1628 11.0791C12.0534 11.1885 11.905 11.25 11.7503 11.25H1.25033C1.09562 11.25 0.947243 11.1885 0.837847 11.0791C0.72845 10.9697 0.666992 10.8214 0.666992 10.6667V7.45833C1.05377 7.45833 1.4247 7.30469 1.69819 7.0312C1.97168 6.75771 2.12533 6.38677 2.12533 6C2.12533 5.61323 1.97168 5.24229 1.69819 4.9688C1.4247 4.69531 1.05377 4.54167 0.666992 4.54167V1.33333C0.666992 1.17862 0.72845 1.03025 0.837847 0.920854C0.947243 0.811458 1.09562 0.75 1.25033 0.75H11.7503ZM11.167 1.91667H1.83366V3.648L1.92466 3.69525C2.32035 3.91111 2.65378 4.22522 2.89286 4.60733C3.13193 4.98944 3.26858 5.42667 3.28966 5.87692L3.29199 6C3.29207 6.47147 3.16513 6.93426 2.92452 7.33972C2.68392 7.74518 2.33853 8.07833 1.92466 8.30417L1.83366 8.352V10.0833H11.167V8.35142L11.076 8.30475C10.6803 8.08889 10.3469 7.77478 10.1078 7.39267C9.86872 7.01056 9.73207 6.57333 9.71099 6.12308L9.70866 6C9.70866 5.006 10.2611 4.14092 11.076 3.69583L11.167 3.64742V1.91667ZM8.83366 4.25V7.75H4.16699V4.25H8.83366Z" fill="#272A32"/>
</svg>
