<svg width="48" height="48" viewBox="0 0 48 48" fill="none" xmlns="http://www.w3.org/2000/svg">
<rect width="48" height="48" rx="24" fill="#F2F2F3"/>
<path d="M34.1618 17.6559C33.3984 17.9936 32.5888 18.2154 31.7598 18.3139C32.6336 17.7914 33.2875 16.9689 33.5998 15.9999C32.7798 16.4879 31.8808 16.8299 30.9438 17.0149C30.3144 16.3415 29.4802 15.8949 28.5708 15.7445C27.6614 15.5941 26.7277 15.7484 25.9151 16.1834C25.1024 16.6183 24.4562 17.3096 24.0769 18.1497C23.6976 18.9898 23.6066 19.9317 23.8178 20.8289C22.1549 20.7456 20.5281 20.3134 19.0431 19.5606C17.5581 18.8077 16.2479 17.751 15.1978 16.4589C14.8261 17.0974 14.6308 17.8232 14.6318 18.5619C14.6318 20.0119 15.3698 21.2929 16.4918 22.0429C15.8278 22.022 15.1784 21.8427 14.5978 21.5199V21.5719C14.598 22.5376 14.9322 23.4735 15.5437 24.221C16.1551 24.9684 17.0063 25.4814 17.9528 25.6729C17.3364 25.84 16.6901 25.8646 16.0628 25.7449C16.3297 26.5762 16.8498 27.3031 17.5504 27.824C18.251 28.3449 19.0969 28.6337 19.9698 28.6499C19.1023 29.3313 18.109 29.8349 17.0467 30.1321C15.9844 30.4293 14.8739 30.5142 13.7788 30.3819C15.6905 31.6114 17.9159 32.264 20.1888 32.2619C27.8818 32.2619 32.0888 25.8889 32.0888 20.3619C32.0888 20.1819 32.0838 19.9999 32.0758 19.8219C32.8947 19.2301 33.6014 18.4969 34.1628 17.6569L34.1618 17.6559Z" fill="#3D434F"/>
</svg>
