<svg width="38" height="34" viewBox="0 0 38 34" fill="none" xmlns="http://www.w3.org/2000/svg">
<path d="M18.9998 17.9768L26.0715 25.0468L23.7132 27.4052L20.6665 24.3585V33.6668H17.3332V24.3552L14.2865 27.4052L11.9282 25.0468L18.9998 17.9768ZM18.9998 0.333496C21.8615 0.333632 24.6233 1.38535 26.7601 3.28869C28.897 5.19203 30.26 7.81427 30.5898 10.6568C32.6636 11.2224 34.4727 12.4987 35.7009 14.2627C36.9292 16.0268 37.4984 18.1663 37.3092 20.3075C37.12 22.4486 36.1843 24.4552 34.6658 25.9765C33.1472 27.4978 31.1423 28.4371 29.0015 28.6302V25.2735C29.7684 25.164 30.5059 24.9028 31.1708 24.5051C31.8357 24.1075 32.4147 23.5814 32.8741 22.9575C33.3335 22.3337 33.664 21.6245 33.8463 20.8716C34.0286 20.1186 34.0591 19.3368 33.936 18.5719C33.8129 17.8071 33.5387 17.0743 33.1294 16.4166C32.72 15.7588 32.1837 15.1892 31.5518 14.7409C30.9199 14.2927 30.2051 13.9748 29.449 13.8058C28.6929 13.6369 27.9108 13.6202 27.1482 13.7568C27.4092 12.5416 27.3951 11.2834 27.1069 10.0744C26.8186 8.86539 26.2636 7.73614 25.4825 6.76938C24.7013 5.80262 23.7138 5.02284 22.5923 4.48715C21.4707 3.95147 20.2436 3.67344 19.0007 3.67344C17.7577 3.67344 16.5306 3.95147 15.409 4.48715C14.2875 5.02284 13.3 5.80262 12.5188 6.76938C11.7377 7.73614 11.1827 8.86539 10.8945 10.0744C10.6063 11.2834 10.5921 12.5416 10.8532 13.7568C9.33258 13.4713 7.76085 13.8015 6.48373 14.6748C5.20661 15.5481 4.32871 16.8929 4.04316 18.4135C3.75761 19.9341 4.0878 21.5058 4.96109 22.7829C5.83439 24.06 7.17925 24.9379 8.69983 25.2235L8.99982 25.2735V28.6302C6.85891 28.4374 4.85383 27.4983 3.33505 25.9772C1.81626 24.456 0.880369 22.4494 0.690947 20.3082C0.501526 18.167 1.07062 16.0273 2.29877 14.2631C3.52692 12.4989 5.336 11.2225 7.40982 10.6568C7.73933 7.81412 9.10217 5.19168 11.2391 3.28827C13.3761 1.38486 16.1381 0.333268 18.9998 0.333496Z" fill="#272A32"/>
</svg>
