<svg width="20" height="17" viewBox="0 0 20 17" fill="none" xmlns="http://www.w3.org/2000/svg">
<path d="M2.49967 14.8335V3.75018C2.49962 3.57911 2.55222 3.41218 2.65031 3.27204C2.74841 3.1319 2.88726 3.02535 3.04801 2.96684L11.1072 0.0368439C11.1701 0.0139321 11.2377 0.00653797 11.3041 0.0152884C11.3705 0.0240389 11.4338 0.0486759 11.4887 0.0871106C11.5436 0.125545 11.5884 0.176644 11.6193 0.236075C11.6502 0.295507 11.6664 0.361517 11.6663 0.428511V4.55601L16.9297 6.31018C17.0957 6.36547 17.2401 6.47161 17.3424 6.61355C17.4447 6.7555 17.4997 6.92604 17.4997 7.10101V14.8335H19.1663V16.5002H0.833008V14.8335H2.49967ZM4.16634 14.8335H9.99967V2.21268L4.16634 4.33434V14.8335ZM15.833 14.8335V7.70184L11.6663 6.31268V14.8335H15.833Z" fill="#3D434F"/>
</svg>
